<svg width="35" height="31" viewBox="0 0 35 31" fill="none" xmlns="http://www.w3.org/2000/svg">
<g clip-path="url(#clip0)">
<path d="M28.7277 27.4316V29.9668C28.7277 30.2522 28.4667 30.4834 28.1445 30.4834H6.8556C6.53335 30.4834 6.27234 30.2522 6.27234 29.9668V27.4316C6.27234 24.7717 8.70671 22.6169 11.7105 22.6162C12.772 22.6156 13.7067 22.1319 14.2447 21.3983C14.7853 20.6626 14.7296 20.0228 14.7296 19.5057L14.7405 19.4818C12.1231 18.5222 10.2822 16.2382 10.2822 13.5732V13.3711C9.24294 13.3711 8.45955 12.6436 8.45955 11.7864V9.10266C8.43622 8.16826 8.48434 4.87301 11.1717 2.57867C14.2965 -0.0889207 19.2483 0.129342 22.8354 1.55645C22.952 1.60294 22.9484 1.75082 22.8303 1.79408L21.8949 2.13504C21.7549 2.18605 21.7848 2.3688 21.935 2.383L22.3892 2.42627C24.564 2.63226 26.5843 3.67837 27.8368 5.41931C27.8703 5.46645 27.8609 5.53813 27.8178 5.57881C27.045 6.3027 26.6134 7.26357 26.6134 8.26254V11.7864C26.6134 12.6614 25.8122 13.3711 24.8243 13.3711H24.7178V13.5732C24.7178 16.2382 22.8769 18.5222 20.2596 19.4818L20.2705 19.5057C20.2705 20.0079 20.2102 20.6564 20.7553 21.3983C21.2934 22.1319 22.2281 22.6156 23.2896 22.6162C26.2934 22.6169 28.7277 24.7717 28.7277 27.4316V27.4316Z" fill="#FFDFBA"/>
<path d="M28.7277 27.4316V29.9668C28.7277 30.2521 28.4666 30.4834 28.1445 30.4834H6.8556C6.53349 30.4834 6.27234 30.2521 6.27234 29.9668V27.4316C6.27234 24.7718 8.70707 22.6172 11.7101 22.6162C12.7719 22.6159 13.7068 22.1317 14.2447 21.3984C16.1224 22.8191 18.8766 22.82 20.7553 21.3984C21.2932 22.1317 22.2281 22.6159 23.2899 22.6162C26.293 22.6172 28.7277 24.7718 28.7277 27.4316V27.4316Z" fill="#60C1C1"/>
<path d="M27.8364 5.41964C27.8702 5.46672 27.8608 5.53801 27.8175 5.57856C27.0449 6.30296 26.6133 7.26351 26.6133 8.26255V11.7864C26.6133 12.5864 25.9329 13.3711 24.7177 13.3711V9.38228C24.7177 7.6704 23.151 6.28268 21.2182 6.28268H13.7817C11.8489 6.28268 10.2821 7.6704 10.2821 9.38228V13.3711C9.24284 13.3711 8.45945 12.6436 8.45945 11.7864V9.10267C8.43612 8.16827 8.48424 4.87302 11.1716 2.57867C14.2962 -0.0889806 19.2485 0.129412 22.8351 1.55665C22.9518 1.60307 22.9486 1.75102 22.8303 1.79415L21.8948 2.13524C21.755 2.18625 21.7845 2.3688 21.9348 2.38307L22.3892 2.42627C24.5643 2.63207 26.584 3.67819 27.8364 5.41964Z" fill="#42434D"/>
<path d="M24.7178 13.5732C24.7178 17.1052 21.4846 19.9661 17.5 19.9661C13.7459 19.9661 10.2822 17.3811 10.2822 13.3711V9.38227C10.2822 7.67039 11.849 6.28268 13.7818 6.28268H21.2183C23.1511 6.28268 24.7178 7.67039 24.7178 9.38227V13.5732Z" fill="#FFEBD2"/>
<path d="M15.8657 17.7013C17.0524 18.3589 16.1167 19.9715 14.8176 19.5097C12.1468 18.5602 10.2822 16.2549 10.2822 13.5732V9.38228C10.2822 8.7311 10.509 8.12681 10.8963 7.62791C11.3712 7.01619 12.4694 7.28643 12.4694 8.09078V12.2817C12.4694 14.6393 13.8687 16.5946 15.8657 17.7013Z" fill="#FFF3E4"/>
<path d="M20.3529 20.566C18.5567 21.232 16.5827 21.2836 14.6472 20.566C14.746 20.2027 14.7295 19.9674 14.7295 19.5057L14.7405 19.4818C16.4962 20.1273 18.5004 20.1286 20.2595 19.4818L20.2705 19.5057C20.2705 19.9676 20.254 20.2028 20.3529 20.566Z" fill="#FFD6A6"/>
<path d="M14.648 24.1762C14.3784 24.2513 14.0892 24.2927 13.7792 24.2951C10.7685 24.3186 8.31368 26.4271 8.31368 29.0939V29.5794C8.31368 30.0786 7.85669 30.4834 7.29298 30.4834H6.85553C6.53343 30.4834 6.27228 30.2521 6.27228 29.9668V27.4316C6.27228 24.7717 8.70701 22.6172 11.7101 22.6162C12.7719 22.6159 13.7068 22.1317 14.2447 21.3984C14.4615 21.5624 14.6936 21.7098 14.9382 21.8389C16.0138 22.4066 15.8424 23.8436 14.648 24.1762V24.1762Z" fill="#91D4D4"/>
<path d="M20.352 24.1762C20.6216 24.2513 20.9108 24.2927 21.2208 24.2951C24.2315 24.3186 26.6863 26.4271 26.6863 29.0939V29.5794C26.6863 30.0786 27.1433 30.4834 27.707 30.4834H28.1445C28.4666 30.4834 28.7277 30.2521 28.7277 29.9668V27.4316C28.7277 24.7717 26.293 22.6172 23.2899 22.6162C22.2281 22.6159 21.2932 22.1317 20.7553 21.3984C20.5385 21.5624 20.3064 21.7098 20.0618 21.8389C18.9862 22.4066 19.1577 23.8436 20.352 24.1762V24.1762Z" fill="#36B2B2"/>
<path d="M22.8303 1.79408C21.9731 2.10656 21.8509 2.17546 21.5538 2.13465C16.7657 1.47728 12.5648 3.23197 11.1382 7.35139V7.35204C10.6045 7.89576 10.2823 8.60608 10.2823 9.38227V11.8053C10.2823 12.8507 8.45957 12.9234 8.45957 11.7864V9.10266C8.43624 8.16827 8.48436 4.87301 11.1717 2.57867C14.2965 -0.0889211 19.2484 0.129342 22.8354 1.55645C22.952 1.60294 22.9484 1.75082 22.8303 1.79408V1.79408Z" fill="#4D4E59"/>
<path d="M29.311 27.4319V30.4835C29.311 30.7688 29.0498 31.0001 28.7277 31.0001C28.4056 31.0001 28.1445 30.7688 28.1445 30.4835V27.4319C28.1445 25.0559 25.9737 23.133 23.2908 23.1331C22.0214 23.1331 20.8697 22.5603 20.2098 21.6009C20.0423 21.3572 20.1294 21.0393 20.4046 20.8909C20.6796 20.7425 21.0385 20.8197 21.2061 21.0634C21.6524 21.7124 22.4318 22.0999 23.2908 22.0999C26.6181 22.0998 29.311 24.4846 29.311 27.4319V27.4319ZM19.1327 22.2534C19.2013 22.5322 19.0018 22.8074 18.687 22.8682C17.152 23.1644 15.5909 22.8679 14.3479 22.1164C13.1174 23.2844 11.4917 23.1331 11.7093 23.1331C9.02669 23.133 6.85566 25.0557 6.85566 27.4319V30.4835C6.85566 30.7688 6.59451 31.0001 6.2724 31.0001C5.9503 31.0001 5.68915 30.7688 5.68915 30.4835V27.4319C5.68915 24.485 8.38153 22.0999 11.7092 22.0999C13.0552 22.0999 14.1464 21.1393 14.1464 19.9468V19.8108C11.6005 18.7326 9.81358 16.4668 9.70465 13.8284C8.65698 13.6053 7.87636 12.7747 7.87636 11.7865V9.10839C7.8445 7.79752 8.06424 4.51434 10.767 2.20683C14.1043 -0.642606 19.4563 -0.461602 23.3916 1.21638C23.7752 1.38007 23.8335 1.83907 23.5149 2.07677C25.5086 2.50749 27.2277 3.59299 28.3322 5.14653C28.3892 5.22654 28.4936 5.35214 28.4663 5.55251C28.4494 5.67721 28.4075 5.78272 28.299 5.88023C27.5882 6.51875 27.1967 7.36487 27.1967 8.26279V11.7866C27.1967 12.0719 26.9356 12.3032 26.6135 12.3032C26.2914 12.3032 26.0302 12.0719 26.0302 11.7866V8.26279C26.0302 7.2272 26.4297 6.24424 27.1633 5.45462C26.0451 4.0381 24.3004 3.12708 22.3273 2.93994L21.3021 2.84269C20.7027 2.78587 20.5851 2.05443 21.1422 1.85134L21.6084 1.68131C15.5363 -0.193617 9.0428 1.88963 9.0428 9.10277V11.7865C9.0428 12.1964 9.30935 12.5527 9.69897 12.7316V9.38258C9.69897 7.38864 11.5305 5.76639 13.7818 5.76639H21.2183C23.4695 5.76639 25.3011 7.38851 25.3011 9.38238V13.6122C25.3011 18.105 20.3443 21.5175 15.3004 20.2023C15.2676 20.5709 15.164 20.9266 14.9952 21.2572C15.9764 21.854 17.2155 22.0947 18.4386 21.8586C18.7534 21.7979 19.0641 21.9747 19.1327 22.2534V22.2534ZM17.5 19.4493C21.1584 19.4493 24.1346 16.8132 24.1346 13.573V9.38238C24.1346 7.95825 22.8263 6.79958 21.2183 6.79958H13.7818C12.1737 6.79958 10.8655 7.95831 10.8655 9.38258V13.573C10.8655 16.8132 13.8417 19.4493 17.5 19.4493ZM23.4055 28.3525H21.6557C21.3336 28.3525 21.0725 28.5838 21.0725 28.8691C21.0725 29.1544 21.3336 29.3857 21.6557 29.3857H23.4055C23.7276 29.3857 23.9888 29.1544 23.9888 28.8691C23.9888 28.5838 23.7276 28.3525 23.4055 28.3525Z" fill="black"/>
</g>
<defs>
<clipPath id="clip0">
<rect width="35" height="31" fill="white"/>
</clipPath>
</defs>
</svg>
