<svg width="54" height="53" viewBox="0 0 54 53" fill="none" xmlns="http://www.w3.org/2000/svg">
<g clip-path="url(#clip0)">
<path d="M49.2618 1.59272C49.1899 1.33819 49.0109 1.12403 48.7679 1.00212C48.2884 0.757772 47.6939 0.93404 47.44 1.39581C47.4393 1.39699 47.4387 1.39816 47.4381 1.39934C47.4381 1.42547 42.461 10.7236 27.1822 12.3439C25.1891 12.5486 23.241 13.0493 21.4072 13.8282C18.1247 15.2024 15.4137 17.5941 13.7053 20.6228C12.1104 23.4678 11.4499 26.712 11.8111 29.9262C12.0772 32.2693 12.8898 34.5242 14.1884 36.5222C11.4746 38.3986 2.86634 44.8848 2.09018 51.8466C2.03319 52.3662 2.42453 52.8319 2.96403 52.8867C3.50368 52.9416 3.98714 52.5648 4.04413 52.0453C4.75516 45.8308 12.8315 39.8045 15.3499 38.0588C18.3731 41.6338 22.8998 43.6513 27.7575 43.9806C31.027 44.1838 34.3004 43.6469 37.3156 42.4126C40.5887 41.0901 43.4795 39.0221 45.7393 36.3863C51.5631 29.5917 54.3366 18.1716 49.2618 1.59272ZM15.9144 35.5866C15.5399 35.0186 15.2097 34.4246 14.9266 33.8096C14.3306 32.5117 13.9462 31.1332 13.7867 29.7224C13.4543 26.8915 14.022 24.0301 15.415 21.5166C16.9207 18.8518 19.309 16.7489 22.1996 15.5426C23.8522 14.8496 25.6061 14.4072 27.3993 14.2307C37.4838 13.1854 43.4162 8.86295 46.4774 5.72698C44.6788 11.4291 41.5822 16.6732 37.4133 21.0776L36.8162 15.2865C36.7858 14.7648 36.322 14.3657 35.7804 14.3949C35.2387 14.4242 34.8241 14.8708 34.8545 15.3924C34.856 15.4182 34.8586 15.4439 34.8623 15.4694L35.6276 22.9121C31.0629 27.3704 24.718 31.8496 15.9144 35.5866ZM44.2195 35.1737V35.179C42.1662 37.5862 39.5362 39.4768 36.5557 40.6878C33.8149 41.8032 30.8401 42.283 27.8715 42.0886C23.7387 41.8869 19.8605 40.1052 17.0976 37.1389C20.3355 35.7593 23.4661 34.1576 26.4657 32.3461L35.0902 33.9141C35.6262 33.995 36.1288 33.6421 36.2128 33.1259C36.2938 32.6281 35.9553 32.1564 35.443 32.0534L28.8159 30.8461C31.8759 28.8224 34.7243 26.517 37.321 23.9626C37.3686 23.9232 37.4122 23.8794 37.4513 23.832C44.3009 16.9642 47.2156 10.1696 48.4314 5.98831C51.7857 19.7657 49.2184 29.3513 44.2195 35.1737Z" fill="black"/>
</g>
<defs>
<clipPath id="clip0">
<rect width="54" height="52" fill="white" transform="translate(0 0.89209)"/>
</clipPath>
</defs>
</svg>
