<svg width="20" height="17" viewBox="0 0 20 17" fill="none" xmlns="http://www.w3.org/2000/svg">
<g clip-path="url(#clip0)">
<path d="M18.3952 11.1586C17.1707 11.1586 15.9684 10.9958 14.8291 10.6757C14.2708 10.5139 13.5845 10.6624 13.2438 10.9598L10.995 12.4028C8.38703 11.2195 6.78057 9.85442 5.40745 7.65429L7.0551 5.79262C7.48318 5.42924 7.63672 4.89844 7.45276 4.40039C7.07464 3.42687 6.88255 2.40541 6.88255 1.36416C6.8826 0.611956 6.16266 0 5.27776 0H1.60484C0.719948 0 0 0.611956 0 1.36412C0 9.98586 8.25198 17 18.3952 17C19.2801 17 20.0001 16.388 20.0001 15.6359V12.5226C20 11.7705 19.2801 11.1586 18.3952 11.1586Z" fill="#0CAEAE"/>
</g>
<defs>
<clipPath id="clip0">
<rect width="20" height="17" fill="white"/>
</clipPath>
</defs>
</svg>
