<svg width="48" height="47" viewBox="0 0 48 47" fill="none" xmlns="http://www.w3.org/2000/svg">
<g clip-path="url(#clip0)">
<path d="M45.5574 11.4066L43.4003 19.2224L38.6635 22.3864L35.1706 24.7195L22.8492 14.4027L22.3271 13.9652L23.5036 12.8881L27.6695 9.07274L33.55 3.68797L37.0091 2.39612C37.009 2.39603 35.1004 9.61704 45.5574 11.4066Z" fill="#31BDBD"/>
<path d="M40.6425 16.9594C40.6425 19.0112 39.9029 20.8978 38.6636 22.3863L35.1707 24.7194L22.8492 14.4026C23.018 13.8744 23.2382 13.3677 23.5036 12.8879C24.4223 11.2233 25.8874 9.87841 27.6695 9.07255C28.846 8.53983 30.1602 8.24243 31.5476 8.24243C36.5703 8.24243 40.6425 12.145 40.6425 16.9594Z" fill="#15A6A6"/>
<path d="M46.3468 16.1166C46.3468 20.2566 44.5971 24.0029 41.7656 26.7154C41.7566 26.7241 41.7475 26.7327 41.7385 26.7413C39.805 28.5856 38.6911 31.0758 38.6911 33.6901V41.4917C38.6911 42.797 38.1387 43.98 37.2457 44.8357C36.3528 45.6914 35.1194 46.2208 33.7564 46.2208C31.0314 46.2208 28.8217 44.1031 28.8217 41.4916V39.0727C28.8217 36.5209 26.6631 34.4514 24.0005 34.4514H23.9994C21.3367 34.4514 19.1782 36.5209 19.1782 39.0727V41.4916C19.1782 42.7969 18.6258 43.9799 17.7329 44.8356C16.84 45.6913 15.6065 46.2207 14.2436 46.2207C11.5176 46.2207 9.30884 44.103 9.30884 41.4916V33.6303C9.30884 31.0275 8.21705 28.5364 6.28652 26.7056C3.42997 23.9979 1.65311 20.2593 1.65311 16.1164C1.65311 11.9783 3.40381 8.23202 6.2343 5.51947C8.00516 3.82266 10.1978 2.5309 12.6495 1.80123C14.584 1.22566 16.7114 1.7281 18.0834 3.15553C19.5539 4.68315 21.6601 5.63996 24.0005 5.63996C26.2232 5.63996 28.2341 4.7765 29.6905 3.38078C29.7468 3.32687 29.803 3.27296 29.8572 3.21717C31.2493 1.80123 33.3386 1.21209 35.2801 1.78003C35.8717 1.95326 36.4482 2.15928 37.0086 2.39612L30.5442 11.5617C29.9044 12.4684 30.7531 13.6572 31.867 13.4136L33.1567 13.1326C34.2425 12.8957 35.2137 13.8295 34.9626 14.87L33.7814 19.754C33.4941 20.9428 35.0198 21.7427 35.9097 20.8697L45.5572 11.4067C46.0696 12.8881 46.3468 14.4715 46.3468 16.1166Z" fill="#F8F6F9"/>
<path d="M16.561 45.6683C15.8701 46.0214 15.0817 46.2208 14.2446 46.2208C11.5186 46.2208 9.30914 44.1033 9.30914 41.4917V33.6302C9.30914 31.0276 8.21801 28.5364 6.28692 26.7056C3.43046 23.9979 1.65407 20.2589 1.65407 16.1166C1.65407 11.9787 3.40421 8.23165 6.23526 5.51946C8.00603 3.82247 10.1987 2.53062 12.65 1.80113C13.9512 1.41397 15.3386 1.51451 16.5253 2.05622C15.2083 2.81266 14.0271 4.00478 13.0531 5.51946C11.3086 8.23165 10.2295 11.9787 10.2295 16.1166C10.2295 20.259 11.3244 23.9979 13.085 26.7056C14.2745 28.5364 14.9476 31.0276 14.9476 33.6302V41.4917C14.9476 43.3011 15.601 44.8723 16.561 45.6683Z" fill="#DDDAEC"/>
<path d="M46.222 11.1967C46.1449 10.9735 45.9518 10.805 45.7129 10.7521C45.7059 10.7506 45.6989 10.7501 45.692 10.7488C45.6874 10.7476 45.683 10.7458 45.6783 10.745C42.2369 10.1561 39.8494 8.9109 38.5823 7.04392C37.1228 4.89355 37.6793 2.60167 37.6892 2.56214C37.69 2.55935 37.6898 2.55657 37.6904 2.55369C37.7179 2.4421 37.7165 2.32458 37.6826 2.21182C37.6247 2.01981 37.481 1.8623 37.2901 1.78189C36.6987 1.53256 36.0911 1.31593 35.4837 1.13785C33.3058 0.500816 30.9534 1.12132 29.3388 2.76358C29.2924 2.81201 29.2434 2.85864 29.1934 2.90662C27.8054 4.23594 25.9614 4.96795 24.001 4.96795C21.9557 4.96795 19.9874 4.1416 18.6009 2.70114C17.0687 1.10766 14.6513 0.502702 12.4428 1.16058C9.92963 1.90849 7.61161 3.25164 5.73921 5.04513C2.65277 8.00297 0.952972 11.9354 0.952972 16.118C0.952972 20.2947 2.67236 24.2248 5.79434 27.1843C7.58189 28.8799 8.6072 31.229 8.6072 33.6293V33.8314C8.6072 34.2036 8.92194 34.5052 9.31028 34.5052C9.69861 34.5052 10.0134 34.2035 10.0134 33.8314V33.6293C10.0134 30.8717 8.83606 28.1735 6.78337 26.2264C3.93038 23.5219 2.35912 19.932 2.35912 16.118C2.35912 12.2953 3.91266 8.70137 6.7334 5.99807C8.4451 4.35859 10.5636 3.1308 12.86 2.4474C14.5527 1.94317 16.4005 2.40131 17.567 3.61464C19.2191 5.33121 21.5642 6.3156 24.0009 6.3156C26.3367 6.3156 28.5338 5.44352 30.1892 3.85795C30.2518 3.79802 30.3142 3.73782 30.3679 3.68184C31.6075 2.42117 33.4103 1.94038 35.0727 2.42665C35.362 2.51146 35.6515 2.6059 35.9392 2.70931L32.986 6.89593C32.7685 7.20421 32.853 7.62309 33.1747 7.83145C33.4964 8.0399 33.9335 7.95885 34.1509 7.65058L36.2327 4.6993C36.355 5.61675 36.6726 6.69323 37.3884 7.75615C38.7031 9.70876 40.9775 11.0705 44.1579 11.8143L35.4055 20.3992C35.1321 20.6673 34.8275 20.5395 34.7406 20.494C34.6538 20.4485 34.3772 20.2715 34.4653 19.9065L35.6465 15.0226C35.8195 14.3065 35.5994 13.5682 35.058 13.0477C34.5166 12.5272 33.7473 12.314 33.0005 12.477L31.7097 12.7575C31.3676 12.8323 31.1776 12.6095 31.1275 12.5394C31.0775 12.4693 30.9293 12.2188 31.1258 11.9402L32.576 9.88379C32.7934 9.57551 32.7088 9.15663 32.3872 8.94827C32.0654 8.73982 31.6283 8.82096 31.411 9.12923L29.9608 11.1856C29.5067 11.8295 29.5092 12.6597 29.9672 13.3008C30.4251 13.9417 31.2319 14.2442 32.0214 14.0716L33.3121 13.7912C33.5884 13.7308 33.8617 13.8066 34.0619 13.9991C34.2622 14.1916 34.3404 14.454 34.2765 14.7187L33.0952 19.6026C32.8947 20.4334 33.2846 21.2668 34.0656 21.6762C34.8465 22.0857 35.789 21.951 36.4111 21.3411L45.2132 12.7072C45.4971 13.8182 45.6407 14.9611 45.6407 16.1178C45.6407 19.9384 44.0898 23.5298 41.2739 26.2314C41.2623 26.242 41.251 26.2529 41.2403 26.2636C39.1421 28.2647 37.9865 30.9019 37.9865 33.6893V41.4899C37.9865 42.5722 37.5463 43.5902 36.7466 44.3566C35.9482 45.1224 34.8857 45.5443 33.7549 45.5443C31.422 45.5443 29.5242 43.7255 29.5242 41.4899V39.0705C29.5242 36.1513 27.0464 33.7763 23.9989 33.7763C20.9533 33.7763 18.4755 36.1513 18.4755 39.0705V41.4899C18.4755 42.5729 18.0356 43.5909 17.2369 44.3564C16.4374 45.1224 15.3749 45.5444 14.2448 45.5444C11.9114 45.5444 10.0132 43.7255 10.0132 41.49V36.5265C10.0132 36.1543 9.69843 35.8527 9.31009 35.8527C8.92175 35.8527 8.60701 36.1543 8.60701 36.5265V41.49C8.60701 44.4687 11.1361 46.8919 14.2448 46.8919C15.7505 46.8919 17.1662 46.3298 18.2311 45.3092C19.2955 44.2893 19.8816 42.9329 19.8816 41.4899V39.0705C19.8816 36.8944 21.7286 35.1239 24.0008 35.1239C26.2711 35.1239 28.1181 36.8944 28.1181 39.0705V41.4899C28.1181 44.4686 30.6468 46.8918 33.7549 46.8918C35.2616 46.8918 36.6773 46.3297 37.7412 45.3091C38.8061 44.2885 39.3927 42.9322 39.3927 41.4898V33.6892C39.3927 31.263 40.4011 28.965 42.2347 27.2164L42.2478 27.2035C42.2521 27.1996 42.2564 27.1956 42.2606 27.1916C45.3471 24.2347 47.0469 20.3019 47.0469 16.1178C47.047 14.4359 46.7694 12.7802 46.222 11.1967Z" fill="black"/>
</g>
<defs>
<clipPath id="clip0">
<rect width="48" height="46" fill="white" transform="translate(0 0.89209)"/>
</clipPath>
</defs>
</svg>
