<svg width="109" height="101" viewBox="0 0 109 101" fill="none" xmlns="http://www.w3.org/2000/svg">
<g clip-path="url(#clip0)">
<path d="M104.31 64.4226H2.69043C1.51463 64.4226 0.561523 63.5482 0.561523 62.4695V13.0646C0.561523 11.9859 1.51463 11.1115 2.69043 11.1115H104.31C105.485 11.1115 106.438 11.9859 106.438 13.0646V62.4695C106.438 63.5482 105.485 64.4226 104.31 64.4226Z" fill="#26C5C5"/>
<path d="M104.31 11.1115H101.935V58.3812C101.935 59.4361 101.003 60.2913 99.8533 60.2913H0.561523V62.4695C0.561523 63.5482 1.51463 64.4226 2.69043 64.4226H104.31C105.485 64.4226 106.438 63.5482 106.438 62.4695V13.0646C106.438 11.9859 105.485 11.1115 104.31 11.1115V11.1115Z" fill="#26C5C5"/>
<path d="M104.31 11.1115H83.1437V64.4226H104.31C105.485 64.4226 106.438 63.5482 106.438 62.4695V13.0646C106.438 11.9859 105.485 11.1115 104.31 11.1115Z" fill="#26C5C5"/>
<path d="M106.438 62.4695V13.0646C106.438 11.9859 105.485 11.1115 104.31 11.1115H101.935V58.3812C101.935 59.4361 101.003 60.2913 99.8533 60.2913H83.1439V64.4226H104.31C105.485 64.4226 106.438 63.5482 106.438 62.4695V62.4695Z" fill="#26C5C5"/>
<path d="M106.438 47.4135C107.301 47.4135 108 46.7721 108 45.9809V13.0217C108 11.1786 106.365 9.67896 104.356 9.67896H2.64362C0.634574 9.67876 -1 11.1784 -1 13.0217V62.5125C-1 64.3557 0.634574 65.8553 2.64362 65.8553H27.3826C28.245 65.8553 28.9441 65.2139 28.9441 64.4227C28.9441 63.6315 28.245 62.9901 27.3826 62.9901H2.64362C2.35665 62.9901 2.12311 62.776 2.12311 62.5125V13.0217C2.12311 12.7583 2.35665 12.5442 2.64362 12.5442H81.5824V62.9901H34.841C33.9786 62.9901 33.2794 63.6315 33.2794 64.4227C33.2794 65.2139 33.9786 65.8553 34.841 65.8553H104.356C106.365 65.8553 108 64.3557 108 62.5125V52.8217C108 52.0305 107.301 51.3891 106.438 51.3891C105.576 51.3891 104.877 52.0305 104.877 52.8217V62.5125C104.877 62.776 104.643 62.9901 104.356 62.9901H84.7055V12.5442H104.356C104.643 12.5442 104.877 12.7583 104.877 13.0217V45.9809C104.877 46.7721 105.576 47.4135 106.438 47.4135V47.4135Z" fill="black"/>
<path d="M16.9258 58.9785H22.0939C22.9564 58.9785 23.6555 58.3371 23.6555 57.5459C23.6555 56.7547 22.9564 56.1133 22.0939 56.1133H16.9258C16.0634 56.1133 15.3643 56.7547 15.3643 57.5459C15.3643 58.3371 16.0634 58.9785 16.9258 58.9785Z" fill="black"/>
<path d="M56.0841 56.1133H50.9162C50.0537 56.1133 49.3546 56.7547 49.3546 57.5459C49.3546 58.3371 50.0537 58.9785 50.9162 58.9785H56.0841C56.9465 58.9785 57.6456 58.3371 57.6456 57.5459C57.6456 56.7547 56.9465 56.1133 56.0841 56.1133Z" fill="black"/>
<path d="M67.4141 56.1133H62.246C61.3836 56.1133 60.6844 56.7547 60.6844 57.5459C60.6844 58.3371 61.3836 58.9785 62.246 58.9785H67.4141C68.2765 58.9785 68.9757 58.3371 68.9757 57.5459C68.9757 56.7547 68.2765 56.1133 67.4141 56.1133Z" fill="black"/>
<path d="M39.5859 58.9785H44.754C45.6165 58.9785 46.3156 58.3371 46.3156 57.5459C46.3156 56.7547 45.6165 56.1133 44.754 56.1133H39.5859C38.7235 56.1133 38.0244 56.7547 38.0244 57.5459C38.0244 58.3371 38.7235 58.9785 39.5859 58.9785Z" fill="black"/>
<path d="M78.7442 56.1133H73.576C72.7136 56.1133 72.0145 56.7547 72.0145 57.5459C72.0145 58.3371 72.7136 58.9785 73.576 58.9785H78.7442C79.6066 58.9785 80.3057 58.3371 80.3057 57.5459C80.3057 56.7547 79.6066 56.1133 78.7442 56.1133Z" fill="black"/>
<path d="M28.2559 58.9785H33.424C34.2864 58.9785 34.9856 58.3371 34.9856 57.5459C34.9856 56.7547 34.2864 56.1133 33.424 56.1133H28.2559C27.3935 56.1133 26.6943 56.7547 26.6943 57.5459C26.6943 58.3371 27.3935 58.9785 28.2559 58.9785Z" fill="black"/>
<path d="M6.49548 56.5909C6.49548 57.9075 7.66298 58.9786 9.09807 58.9786H10.7637C11.6261 58.9786 12.3253 58.3372 12.3253 57.546C12.3253 56.7547 11.6261 56.1133 10.7637 56.1133H9.61859V55.0627C9.61859 54.2715 8.91946 53.6301 8.05704 53.6301C7.19462 53.6301 6.49548 54.2715 6.49548 55.0627V56.5909Z" fill="black"/>
<path d="M9.05704 44.5895C9.91946 44.5895 10.6186 43.9481 10.6186 43.1569V38.6909C10.6186 37.8997 9.91946 37.2583 9.05704 37.2583C8.19462 37.2583 7.49548 37.8997 7.49548 38.6909V43.1569C7.49548 43.9481 8.19462 44.5895 9.05704 44.5895Z" fill="black"/>
<path d="M7.49548 52.9476C7.49548 53.7388 8.19462 54.3802 9.05704 54.3802C9.91946 54.3802 10.6186 53.7388 10.6186 52.9476V48.4816C10.6186 47.6904 9.91946 47.049 9.05704 47.049C8.19462 47.049 7.49548 47.6904 7.49548 48.4816V52.9476Z" fill="black"/>
<path d="M7.49548 62.738C7.49548 63.5292 8.19462 64.1706 9.05704 64.1706C9.91946 64.1706 10.6186 63.5292 10.6186 62.738V58.272C10.6186 57.4808 9.91946 56.8394 9.05704 56.8394C8.19462 56.8394 7.49548 57.4808 7.49548 58.272V62.738Z" fill="black"/>
<path d="M10.7637 16.4504H9.09807C7.66298 16.4504 6.49548 17.5215 6.49548 18.8381V20.3663C6.49548 21.1575 7.19462 21.7989 8.05704 21.7989C8.91946 21.7989 9.61859 21.1575 9.61859 20.3663V19.3157H10.7637C11.6261 19.3157 12.3253 18.6743 12.3253 17.8831C12.3255 17.0918 11.6261 16.4504 10.7637 16.4504Z" fill="black"/>
<path d="M56.0841 16.4504H50.9162C50.0537 16.4504 49.3546 17.0918 49.3546 17.8831C49.3546 18.6743 50.0537 19.3157 50.9162 19.3157H56.0841C56.9465 19.3157 57.6456 18.6743 57.6456 17.8831C57.6456 17.0918 56.9465 16.4504 56.0841 16.4504Z" fill="black"/>
<path d="M44.754 16.4504H39.5859C38.7235 16.4504 38.0244 17.0918 38.0244 17.8831C38.0244 18.6743 38.7235 19.3157 39.5859 19.3157H44.754C45.6165 19.3157 46.3156 18.6743 46.3156 17.8831C46.3156 17.0918 45.6165 16.4504 44.754 16.4504Z" fill="black"/>
<path d="M78.7442 16.4504H73.576C72.7136 16.4504 72.0145 17.0918 72.0145 17.8831C72.0145 18.6743 72.7136 19.3157 73.576 19.3157H78.7442C79.6066 19.3157 80.3057 18.6743 80.3057 17.8831C80.3057 17.0918 79.6066 16.4504 78.7442 16.4504Z" fill="black"/>
<path d="M67.4141 16.4504H62.246C61.3836 16.4504 60.6844 17.0918 60.6844 17.8831C60.6844 18.6743 61.3836 19.3157 62.246 19.3157H67.4141C68.2765 19.3157 68.9757 18.6743 68.9757 17.8831C68.9757 17.0918 68.2765 16.4504 67.4141 16.4504Z" fill="black"/>
<path d="M33.424 16.4504H28.2559C27.3935 16.4504 26.6943 17.0918 26.6943 17.8831C26.6943 18.6743 27.3935 19.3157 28.2559 19.3157H33.424C34.2864 19.3157 34.9856 18.6743 34.9856 17.8831C34.9856 17.0918 34.2864 16.4504 33.424 16.4504Z" fill="black"/>
<path d="M16.9258 19.3157H22.0939C22.9564 19.3157 23.6555 18.6743 23.6555 17.8831C23.6555 17.0918 22.9564 16.4504 22.0939 16.4504H16.9258C16.0634 16.4504 15.3643 17.0918 15.3643 17.8831C15.3643 18.6745 16.0634 19.3157 16.9258 19.3157Z" fill="black"/>
<path d="M26.4497 40.5354C26.4389 39.7442 25.7244 39.1071 24.8686 39.1211C24.2403 39.1281 23.5842 39.134 22.9683 39.1375C23.4303 38.5592 23.9996 37.8334 24.6932 36.924C25.5083 35.8149 25.9686 34.9803 26.0429 33.851C26.0429 31.819 24.241 30.1656 22.0261 30.1656C20.1109 30.1656 18.4531 31.4158 18.0844 33.1381C17.9181 33.9145 18.4693 34.6674 19.3158 34.8199C20.1618 34.9725 20.9827 34.4666 21.1492 33.6903C21.2309 33.3082 21.5999 33.0309 22.0263 33.0309C22.4938 33.0309 22.8787 33.3619 22.9168 33.7821C22.8449 34.2194 22.6703 34.5416 22.1346 35.2809C20.6201 37.2664 19.7168 38.3514 19.2317 38.934C18.6156 39.6742 18.2083 40.1633 18.4657 40.9303C18.6181 41.3846 19.0066 41.7465 19.504 41.8985C19.709 41.9613 23.5389 42.0016 24.9078 41.9858C25.7704 41.976 26.4606 41.3266 26.4497 40.5354V40.5354Z" fill="black"/>
<path d="M27.968 34.0932V38.1645C27.968 40.3582 29.9134 42.1428 32.3046 42.1428C34.6956 42.1428 36.641 40.3582 36.641 38.1645V34.0932C36.641 31.8994 34.6956 30.1149 32.3046 30.1149C29.9134 30.1149 27.968 31.8994 27.968 34.0932V34.0932ZM33.5179 34.0932V38.1645C33.5179 38.7781 32.9735 39.2776 32.3046 39.2776C31.6355 39.2776 31.0913 38.7781 31.0913 38.1645V34.0932C31.0913 33.4795 31.6357 32.9801 32.3046 32.9801C32.9735 32.9801 33.5179 33.4795 33.5179 34.0932V34.0932Z" fill="black"/>
<path d="M12.7732 36.9153C12.7732 37.7065 13.4723 38.3479 14.3347 38.3479H15.7626C16.625 38.3479 17.3242 37.7065 17.3242 36.9153C17.3242 36.1241 16.625 35.4827 15.7626 35.4827H14.3347C13.4723 35.4827 12.7732 36.1239 12.7732 36.9153V36.9153Z" fill="black"/>
<path d="M59.6611 31.2931V40.879C59.6611 41.6702 60.3602 42.3116 61.2226 42.3116C62.085 42.3116 62.7842 41.6702 62.7842 40.879V37.4279H65.1211C65.9835 37.4279 66.6826 36.7864 66.6826 35.9952C66.6826 35.204 65.9835 34.5626 65.1211 34.5626H62.7842V32.7257H65.4574C66.3199 32.7257 67.019 32.0843 67.019 31.2931C67.019 30.5019 66.3199 29.8605 65.4574 29.8605H61.2226C60.3602 29.8605 59.6611 30.5019 59.6611 31.2931V31.2931Z" fill="black"/>
<path d="M69.6362 31.2931V40.879C69.6362 41.6702 70.3354 42.3116 71.1978 42.3116C72.0602 42.3116 72.7593 41.6702 72.7593 40.879V37.4279H75.0962C75.9587 37.4279 76.6578 36.7864 76.6578 35.9952C76.6578 35.204 75.9587 34.5626 75.0962 34.5626H72.7593V32.7257H75.4326C76.295 32.7257 76.9942 32.0843 76.9942 31.2931C76.9942 30.5019 76.295 29.8605 75.4326 29.8605H71.1978C70.3354 29.8605 69.6362 30.5019 69.6362 31.2931V31.2931Z" fill="black"/>
<path d="M43.0403 36.086C43.0403 39.5384 46.1017 42.3469 49.8647 42.3469C53.6278 42.3469 56.6891 39.5382 56.6891 36.086C56.6891 32.6339 53.6278 29.8251 49.8647 29.8251C46.1017 29.8251 43.0403 32.6337 43.0403 36.086V36.086ZM49.8647 32.6905C51.9057 32.6905 53.566 34.2137 53.566 36.086C53.566 37.9585 51.9057 39.4817 49.8647 39.4817C47.8237 39.4817 46.1634 37.9585 46.1634 36.086C46.1634 34.2137 47.8237 32.6905 49.8647 32.6905V32.6905Z" fill="black"/>
<path d="M98.7348 47.9686H90.6388C89.7763 47.9686 89.0772 48.61 89.0772 49.4012C89.0772 50.1925 89.7763 50.8339 90.6388 50.8339H98.7346C99.597 50.8339 100.296 50.1925 100.296 49.4012C100.296 48.61 99.5972 47.9686 98.7348 47.9686Z" fill="black"/>
<path d="M98.7348 42.3612H90.6388C89.7763 42.3612 89.0772 43.0026 89.0772 43.7938C89.0772 44.585 89.7763 45.2264 90.6388 45.2264H98.7346C99.597 45.2264 100.296 44.585 100.296 43.7938C100.296 43.0026 99.5972 42.3612 98.7348 42.3612Z" fill="black"/>
<path d="M98.7348 34.6962H90.6388C89.7763 34.6962 89.0772 35.3376 89.0772 36.1288C89.0772 36.92 89.7763 37.5614 90.6388 37.5614H98.7346C99.597 37.5614 100.296 36.92 100.296 36.1288C100.296 35.3374 99.5972 34.6962 98.7348 34.6962Z" fill="black"/>
<path d="M98.7348 29.6011H90.6388C89.7763 29.6011 89.0772 30.2425 89.0772 31.0337C89.0772 31.8249 89.7763 32.4663 90.6388 32.4663H98.7346C99.597 32.4663 100.296 31.8249 100.296 31.0337C100.296 30.2423 99.5972 29.6011 98.7348 29.6011Z" fill="black"/>
<path d="M98.7348 24.5952H90.6388C89.7763 24.5952 89.0772 25.2366 89.0772 26.0278C89.0772 26.819 89.7763 27.4605 90.6388 27.4605H98.7346C99.597 27.4605 100.296 26.819 100.296 26.0278C100.296 25.2366 99.5972 24.5952 98.7348 24.5952Z" fill="black"/>
</g>
<defs>
<clipPath id="clip0">
<rect width="109" height="100" fill="white" transform="translate(0 0.76709)"/>
</clipPath>
</defs>
</svg>
