<svg width="20" height="16" viewBox="0 0 20 16" fill="none" xmlns="http://www.w3.org/2000/svg">
<path d="M18.2422 1.90625H1.7578C1.48721 1.90625 1.23389 1.95947 1.00471 2.04719L9.96093 9.21216L11.9683 7.66881C11.9683 7.66881 11.9685 7.66866 11.9685 7.66859C11.9685 7.66853 11.9687 7.66847 11.9687 7.66847L18.9955 2.04731C18.7663 1.95953 18.5128 1.90625 18.2422 1.90625Z" fill="#0CAEAE"/>
<path d="M19.8241 2.71021L13.2114 8.00002L19.8238 13.2899C19.9335 13.1066 20 12.9039 20 12.6875V3.31246C20 3.09611 19.9336 2.89349 19.8241 2.71021Z" fill="#0CAEAE"/>
<path d="M0.176172 2.70996C0.0665234 2.8933 0 3.09596 0 3.31243V12.6874C0 12.9038 0.0664453 13.1065 0.176016 13.2897L6.78863 7.99993L0.176172 2.70996Z" fill="#0CAEAE"/>
<path d="M12.3829 8.6629L10.3753 10.2064C10.2608 10.298 10.1109 10.3438 9.961 10.3438C9.81111 10.3438 9.66115 10.298 9.54674 10.2064L7.61721 8.66284L1.00447 13.9527C1.23369 14.0405 1.48717 14.0937 1.75783 14.0937H18.2422C18.5128 14.0937 18.7661 14.0405 18.9953 13.9528L12.3829 8.6629Z" fill="#0CAEAE"/>
</svg>
