<svg width="54" height="53" viewBox="0 0 54 53" fill="none" xmlns="http://www.w3.org/2000/svg">
<g clip-path="url(#clip0)">
<path d="M6.05107 11.4843L10.9907 6.72757L14.6592 10.2602L9.71952 15.0168L6.05107 11.4843Z" fill="#BACDEA"/>
<path d="M21.4723 9.68164L21.5725 9.7698L9.1891 21.6466L9.12234 21.5761V14.7759C9.12234 14.5605 9.21125 14.3538 9.36945 14.2015L13.8152 9.9197C13.9734 9.76726 14.188 9.68164 14.4118 9.68164H21.4723Z" fill="#EDF6FF"/>
<path d="M12.6584 11.0381C12.8167 10.8856 13.0313 10.8001 13.2551 10.8001H20.311L21.4723 9.68164H14.4118C14.188 9.68164 13.9734 9.76726 13.8152 9.9196L12.6584 11.0381Z" fill="#D8E2F3"/>
<path d="M49.8334 34.6179L50.0798 34.8535L35.4331 49.3322L35.0135 48.8913L9.12234 21.5761L21.4723 9.68164L49.8334 34.6179Z" fill="#D8E2F3"/>
<path d="M48.9387 35.9816L50.0798 34.8535L49.8334 34.6179L21.4723 9.68164L20.3159 10.7955L48.9387 35.9816Z" fill="#BACDEA"/>
<path d="M52.942 36.3818L36.8452 51.885C36.5157 52.2024 35.9814 52.2024 35.6519 51.885L34.375 50.6552C34.0455 50.338 34.0455 49.8236 34.375 49.5063L50.4718 34.0032C50.8013 33.6858 51.3356 33.6858 51.6652 34.0032L52.9421 35.233C53.2714 35.5502 53.2714 36.0645 52.942 36.3818Z" fill="#EDF6FF"/>
<path d="M24.423 37.7183L38.2326 24.418L27.9284 15.358L15.0161 27.7941L24.423 37.7183Z" fill="#EDF6FF"/>
<path d="M26.7696 16.4743L37.0699 25.538L38.2326 24.4182L27.9284 15.3583L26.7696 16.4743Z" fill="#D8E2F3"/>
<path d="M11.5275 7.36519L6.7172 11.9981C6.35186 12.35 5.75101 12.321 5.42386 11.9359L0.977803 6.70241C0.693676 6.36797 0.718988 5.88058 1.03623 5.57509L4.85856 1.89372C5.1758 1.58812 5.68183 1.56385 6.02903 1.83746L11.463 6.11945C11.8629 6.43469 11.8929 7.01339 11.5275 7.36519Z" fill="#EDF6FF"/>
<path d="M11.4631 6.12043L6.02909 1.83843C5.6819 1.56483 5.17587 1.5891 4.85852 1.8947L4.32581 2.40778L9.03732 6.12043C9.43714 6.43557 9.4672 7.01426 9.10186 7.36617L4.94331 11.3713L5.42382 11.937C5.75098 12.3221 6.35182 12.351 6.71726 11.9992L11.5276 7.36627C11.8929 7.01426 11.863 6.43547 11.4631 6.12043Z" fill="#D8E2F3"/>
<path d="M50.1775 6.93828L40.2976 16.4539L35.6307 11.9591C35.3012 11.6419 35.3012 11.1274 35.6307 10.8102L44.3175 2.44372C44.647 2.12634 45.1813 2.12634 45.5109 2.44372L50.1775 6.93828Z" fill="#EDF6FF"/>
<path d="M44.2727 3.61156L48.9523 8.11841L50.1776 6.93828L45.5108 2.44372C45.1813 2.12634 44.647 2.12634 44.3175 2.44372L43.2147 3.50584C43.5418 3.29957 43.9852 3.33471 44.2727 3.61156Z" fill="#D8E2F3"/>
<path d="M52.9415 7.2216L51.7066 6.03222C51.3656 5.70378 50.8126 5.70378 50.4716 6.03222L39.3222 16.7703C38.9387 17.1397 38.4713 17.4179 37.9568 17.583L32.1115 19.4596C31.597 19.6248 31.1296 19.9031 30.7461 20.2723L6.37505 43.7446L8.84518 46.1232L33.216 22.6512C33.5995 22.2819 34.0669 22.0036 34.5814 21.8384L40.4268 19.9618C40.9412 19.7966 41.4088 19.5183 41.7921 19.1491L52.9415 8.41108C53.2826 8.08253 53.2826 7.55005 52.9415 7.2216Z" fill="#15A6A6"/>
<path d="M52.9415 7.2216L51.7066 6.03222C51.3655 5.70378 50.8126 5.70378 50.4716 6.03222L49.8762 6.60563L50.5158 7.2216C50.8569 7.55005 50.8569 8.08263 50.5158 8.41108L39.3665 19.1492C38.983 19.5185 38.5156 19.7967 38.0011 19.9619L32.1557 21.8385C31.6413 22.0036 31.1737 22.2819 30.7904 22.6513L7.6322 44.9553L8.84517 46.1233L33.216 22.6513C33.5995 22.282 34.0669 22.0037 34.5814 21.8385L40.4267 19.9619C40.9412 19.7967 41.4087 19.5184 41.7921 19.1492L52.9415 8.41108C53.2826 8.08253 53.2826 7.55005 52.9415 7.2216Z" fill="#15A6A6"/>
<path d="M6.62595 43.5028L1.06849 48.8554C0.727516 49.1838 0.727516 49.7163 1.06849 50.0448L2.30351 51.2343C2.64448 51.5628 3.19744 51.5628 3.53852 51.2343L9.09598 45.8818L6.62595 43.5028Z" fill="#80B6FC"/>
<path d="M3.53852 51.2343L9.09609 45.8816L7.88311 44.7135L1.70815 50.6608L2.3035 51.2343C2.64448 51.5627 3.19744 51.5627 3.53852 51.2343Z" fill="#15A6A6"/>
<path d="M52.2372 33.4724C51.9283 33.175 51.5178 33.0113 51.0812 33.0113C50.6444 33.0113 50.2338 33.175 49.9251 33.4725L49.8213 33.5725L36.6478 21.9899L40.6897 20.6923C41.3174 20.4908 41.8965 20.1461 42.3643 19.6955L53.5136 8.95749C54.1625 8.33259 54.1625 7.31566 53.5136 6.69086L52.2786 5.50149C51.9643 5.19873 51.5464 5.03197 51.1018 5.03197C50.6573 5.03197 50.2393 5.19873 49.925 5.50149L49.8669 5.55745L46.0829 1.91295C45.7742 1.61548 45.3636 1.45176 44.9269 1.45176C44.4901 1.45176 44.0796 1.61548 43.7709 1.91295L35.084 10.2794C34.4469 10.8931 34.4469 11.8917 35.084 12.5054L38.8683 16.1502L38.7756 16.2395C38.4805 16.5237 38.1152 16.7411 37.7194 16.8681L32.6674 18.4901L22.0181 9.1273C21.8752 9.00167 21.6866 8.92793 21.4851 8.92793H14.4028L12.5427 7.13641C12.5767 6.99392 12.5927 6.84696 12.585 6.69848C12.5616 6.24714 12.3399 5.82414 11.9767 5.53795L6.54259 1.25595C5.87794 0.732001 4.91904 0.778211 4.31187 1.3631L0.489546 5.04436C-0.11752 5.62905 -0.165402 6.55254 0.378279 7.19257L4.82423 12.4261C5.12143 12.7759 5.5607 12.9894 6.0295 13.012C6.05703 13.0134 6.08445 13.014 6.11197 13.014C6.23822 13.014 6.36277 12.9986 6.48427 12.9717L8.34397 14.7629V21.5842C8.34397 21.7782 8.42053 21.96 8.551 22.0976L10.3981 24.0466C10.5541 24.2113 10.768 24.2948 10.9825 24.2948C11.1729 24.2948 11.3639 24.2289 11.5157 24.0956C11.8383 23.812 11.8611 23.3302 11.5665 23.0195L10.2288 21.6081L21.51 10.7429L26.7966 15.3911L15.055 26.6997L13.7385 25.3108C13.444 25.0001 12.9438 24.9782 12.621 25.2618C12.2983 25.5454 12.2756 26.0272 12.5701 26.3379L17.7149 31.7657L11.2042 38.0363C10.8953 38.3338 10.8953 38.8161 11.2043 39.1135C11.5133 39.4109 12.0142 39.4109 12.3229 39.1134L31.318 20.8188C31.613 20.5347 31.9783 20.3172 32.3742 20.1902L32.7174 20.08C32.7278 20.0768 32.7381 20.0737 32.7482 20.07L38.2196 18.3135C38.8471 18.1122 39.4261 17.7675 39.8942 17.3168L51.0437 6.57854C51.0757 6.54776 51.128 6.54776 51.16 6.57854L52.395 7.76801C52.4271 7.79899 52.4271 7.84926 52.395 7.88024L41.2456 18.6184C40.9505 18.9027 40.5852 19.12 40.1893 19.2471L34.8636 20.9569C34.8616 20.9575 34.8597 20.9581 34.8578 20.9587L34.3439 21.1236C33.7164 21.325 33.1374 21.6697 32.6693 22.1203L9.1087 44.8123L7.75725 43.5107L10.086 41.2679C10.3949 40.9705 10.3949 40.4882 10.0859 40.1908C9.77684 39.8932 9.27597 39.8933 8.96727 40.1909L0.521925 48.3247C-0.126801 48.9496 -0.126801 49.9663 0.521925 50.5912L1.75694 51.7808C2.08135 52.0931 2.50755 52.2493 2.93374 52.2493C3.35993 52.2493 3.78612 52.0931 4.11064 51.7807L21.1401 35.3793L33.9326 48.8752L33.8284 48.9756C33.1911 49.5894 33.1911 50.588 33.8284 51.2017L35.1053 52.4316C35.424 52.7384 35.8425 52.8918 36.2612 52.8918C36.6799 52.8918 37.0985 52.7383 37.4173 52.4315L53.5141 36.9284V36.9285C54.1514 36.3146 54.1514 35.316 53.5141 34.7023L52.2372 33.4724ZM9.92607 19.7449V14.7629L14.4028 10.4513H19.5756L9.92607 19.7449ZM11.6051 8.38804L12.9565 9.68964L9.13507 13.3701L7.78373 12.0685L11.6051 8.38804ZM5.43066 2.44025C5.44669 2.42481 5.46768 2.41699 5.48877 2.41699C5.50712 2.41699 5.52558 2.42298 5.54077 2.43507L10.9748 6.71706C10.9936 6.73189 11.0037 6.75119 11.0049 6.77455C11.0062 6.7978 10.9981 6.81791 10.9811 6.83437L9.13507 8.61228L4.07858 3.74236L5.43066 2.44025ZM1.60285 6.22805C1.57585 6.19636 1.57828 6.15046 1.60834 6.12151L2.9601 4.81961L8.01649 9.68954L6.17051 11.4674C6.15353 11.4839 6.13191 11.4917 6.10828 11.4905C6.08413 11.4894 6.06399 11.4796 6.04869 11.4616L1.60285 6.22805ZM18.8346 30.6873L16.1226 27.826L27.966 16.4193L31.0347 19.1175C30.7312 19.292 30.449 19.5012 30.1994 19.7416L18.8346 30.6873ZM39.9868 7.71195L43.8083 11.3924L42.4568 12.694L38.6355 9.01345L39.9868 7.71195ZM42.4568 5.333L46.2783 9.01345L44.9269 10.315L41.1054 6.6346L42.4568 5.333ZM44.8895 2.9901C44.8933 2.98644 44.905 2.97527 44.9269 2.97527C44.9487 2.97527 44.9603 2.98644 44.9641 2.9901L48.7482 6.6347L47.3968 7.9362L43.5753 4.25574L44.8895 2.9901ZM36.2027 11.3566L37.5169 10.0908L41.3383 13.7714L39.9868 15.073L36.2027 11.4284C36.1822 11.4085 36.1822 11.3764 36.2027 11.3566ZM48.6111 39.4958L47.2597 38.1942L48.6111 36.8926L49.9626 38.1942L48.6111 39.4958ZM46.1412 41.8747L44.7898 40.5731L46.1412 39.2715L47.4927 40.5731L46.1412 41.8747ZM43.6712 44.2536L42.3197 42.952L42.8545 42.437L43.6712 41.6504L45.0226 42.952L43.6712 44.2536ZM41.2013 46.6325L39.8497 45.3309L41.2012 44.0293L42.5526 45.3309L41.2013 46.6325ZM38.7312 49.0114L37.3798 47.7098L38.7312 46.4082L40.0827 47.7098L38.7312 49.0114ZM2.99195 50.7034C2.95989 50.7343 2.90758 50.7344 2.87552 50.7035L1.6405 49.5141C1.60834 49.4831 1.60834 49.4326 1.6405 49.4017L6.63867 44.588L7.99013 45.8897L2.99195 50.7034ZM33.7881 23.1976C34.0832 22.9133 34.4485 22.696 34.8444 22.5689L34.9292 22.5417L37.1008 24.4511L24.4618 36.6239L22.2599 34.3008L33.7881 23.1976ZM25.5294 37.7502L38.2702 25.4794L48.7016 34.651L35.0522 47.7968L25.5294 37.7502ZM36.2986 51.3543C36.2782 51.374 36.2445 51.3741 36.2239 51.3544L34.9471 50.1245C34.9265 50.1048 34.9265 50.0726 34.9471 50.0528L36.2612 48.7872L37.6126 50.0888L36.2986 51.3543ZM52.3953 35.8511L51.0812 37.1169L49.7297 35.8153L50.4055 35.1644L51.0439 34.5495C51.0477 34.5459 51.0593 34.5346 51.0812 34.5346C51.103 34.5346 51.1146 34.5458 51.1185 34.5495L52.3953 35.7793C52.3991 35.783 52.4108 35.794 52.4108 35.8152C52.4108 35.8364 52.3991 35.8475 52.3953 35.8511Z" fill="black"/>
</g>
<defs>
<clipPath id="clip0">
<rect width="54" height="52" fill="white" transform="translate(0 0.89209)"/>
</clipPath>
</defs>
</svg>
