<svg width="20" height="19" viewBox="0 0 20 19" fill="none" xmlns="http://www.w3.org/2000/svg">
<g clip-path="url(#clip0)">
<path d="M19.6648 8.96102L16.6337 6.23303V3.08174C16.6337 2.51195 16.1207 2.05017 15.4866 2.05017C14.854 2.05017 14.341 2.51195 14.341 3.08174V4.16963L12.0841 2.13836C10.9683 1.13465 9.02821 1.13644 7.91493 2.14017L0.336052 8.96102C-0.111346 9.36447 -0.111346 10.0173 0.336052 10.4201C0.783652 10.8235 1.51042 10.8235 1.95786 10.4201L9.53601 3.59911C9.78288 3.37809 10.218 3.37809 10.4636 3.59846L18.043 10.4201C18.2678 10.6218 18.5608 10.7221 18.8537 10.7221C19.1473 10.7221 19.4408 10.6217 19.6648 10.4201C20.1124 10.0173 20.1124 9.36451 19.6648 8.96102Z" fill="#0CAEAE"/>
<path d="M10.3982 5.55724C10.178 5.35918 9.82149 5.35918 9.60195 5.55724L2.93555 11.5552C2.8303 11.6499 2.77063 11.7792 2.77063 11.9141V16.2888C2.77063 17.3154 3.69546 18.1477 4.83604 18.1477H8.13658V13.5474H11.8628V18.1477H15.1634C16.304 18.1477 17.2288 17.3154 17.2288 16.2888V11.9141C17.2288 11.7792 17.1696 11.6499 17.0639 11.5552L10.3982 5.55724Z" fill="#0CAEAE"/>
</g>
<defs>
<clipPath id="clip0">
<rect width="20" height="18" fill="white" transform="translate(0 0.76709)"/>
</clipPath>
</defs>
</svg>
