<svg width="54" height="53" viewBox="0 0 54 53" fill="none" xmlns="http://www.w3.org/2000/svg">
<g clip-path="url(#clip0)">
<path d="M33.9105 30.0471H44.9827C46.592 30.0471 47.9879 31.1168 48.3499 32.6266L52.9142 51.6743H31.319H22.681H1.08582L5.65017 32.6266C6.0121 31.1168 7.40802 30.0471 9.01729 30.0471H20.0896H33.9105Z" fill="#15A6A6"/>
<path d="M1.08582 51.6743H22.681H31.319H52.9142L51.9174 47.5153H2.08265L1.08582 51.6743Z" fill="#A4D4F4"/>
<path d="M33.9105 28.3835H20.0896V31.7108H33.9105V28.3835Z" fill="#798699"/>
<path d="M34.1083 1.7655C32.5698 1.7655 31.0988 2.2962 29.886 3.2062C29.1492 3.75936 28.161 4.26094 27 4.26094C25.8391 4.26094 24.8509 3.75936 24.114 3.2062C22.9012 2.2962 21.4293 1.7655 19.8917 1.7655C16.1843 1.7655 13.1791 4.65938 13.1791 8.22953V13.0191C13.1791 16.4894 14.4869 19.8416 16.8598 22.4535C18.4146 24.1646 19.5238 26.2075 20.0965 28.4127H33.9027C34.4754 26.2067 35.5845 24.1646 37.1394 22.4535C39.5131 19.8416 40.8209 16.4894 40.8209 13.0191V8.22953C40.8209 4.65938 37.8157 1.7655 34.1083 1.7655Z" fill="#ECECEC"/>
<path d="M27 20.8972C22.2162 20.8972 17.8143 19.9847 14.3064 18.4558C14.9231 19.9015 15.774 21.2574 16.8598 22.4527C18.4146 24.1637 19.5238 26.2067 20.0965 28.4118H33.9027C34.4754 26.2058 35.5845 24.1637 37.1394 22.4527C38.226 21.2574 39.076 19.9015 39.6928 18.4558C36.1857 19.9847 31.7838 20.8972 27 20.8972Z" fill="#B6C1CE"/>
<path d="M22.681 31.7107V47.5152L27 51.6742L31.319 47.5152V31.7107H22.681Z" fill="#D3A06C"/>
<path d="M22.681 45.6137L31.319 44.4259V41.0986L22.681 42.2865V45.6137Z" fill="#B27946"/>
<path d="M22.681 38.9592L31.319 37.7713V34.4441L22.681 35.6319V38.9592Z" fill="#B27946"/>
<path d="M15.7705 13.0183C15.7705 15.8847 16.8503 18.6514 18.8111 20.8099L20.112 19.7144C18.4259 17.8595 17.4981 15.4813 17.4981 13.0183H15.7705Z" fill="black"/>
<path d="M31.4788 5.17505C28.725 7.24377 25.2758 7.2446 22.5212 5.17505L21.4587 6.48682C23.1414 7.75118 25.0582 8.41995 27 8.41995C28.9418 8.41995 30.8586 7.75118 32.5413 6.48599L31.4788 5.17505Z" fill="black"/>
<path d="M31.319 52.506H54L49.1912 32.4385C48.736 30.5412 47.0058 29.2153 44.9827 29.2153H34.7743V28.5107C35.3193 26.4819 36.3568 24.5771 37.7898 23.0008C40.3009 20.2358 41.6847 16.6915 41.6847 13.019V8.22943C41.6847 4.20678 38.2856 0.933594 34.1083 0.933594C32.4074 0.933594 30.7636 1.49257 29.3539 2.55064C27.8016 3.71601 26.1975 3.71601 24.6453 2.55064C23.2364 1.49257 21.5917 0.933594 19.8917 0.933594C15.7144 0.933594 12.3153 4.20678 12.3153 8.22943V13.019C12.3153 16.6915 13.6991 20.2358 16.2102 23.0008C17.6432 24.5779 18.6807 26.4819 19.2257 28.5107V29.2153H9.01728C6.99424 29.2153 5.26404 30.5412 4.80881 32.4394L0 52.506H22.681V50.8424H2.17161L6.49237 32.8137C6.76447 31.6741 7.80276 30.8789 9.01728 30.8789H19.2257V32.5425H21.8172V34.9107L20.8307 35.0463L21.0752 36.6924L21.8172 36.591V38.2379L20.8307 38.3735L21.0752 40.0197L21.8172 39.9182V41.5652L20.8307 41.7008L21.0752 43.3469L21.8172 43.2455V44.8924L20.8307 45.028L21.0752 46.6742L21.8172 46.5727V47.8595L27 52.8504L32.1828 47.8595V45.147L33.1693 45.0114L32.9249 43.3652L32.1828 43.4667V41.8197L33.1693 41.6841L32.9249 40.038L32.1828 40.1395V38.4925L33.1693 38.3569L32.9249 36.7107L32.1828 36.8122V35.1652L33.1693 35.0296L32.9249 33.3835L32.1828 33.485V32.5425H34.7743V30.8789H44.9827C46.1964 30.8789 47.2347 31.6741 47.5076 32.8129L51.8284 50.8424H31.319V52.506ZM30.4552 47.1708L27 50.498L23.5448 47.1708V46.3348L30.4552 45.3841V47.1708ZM30.4552 43.7046L23.5448 44.6554V43.0084L30.4552 42.0576V43.7046ZM30.4552 40.3774L23.5448 41.3281V39.6811L30.4552 38.7304V40.3774ZM30.4552 37.0501L23.5448 38.0009V36.3539L30.4552 35.4031V37.0501ZM30.4552 33.7229L23.5448 34.6736V32.5425H30.4552V33.7229ZM33.0466 30.8789H32.1828H21.8172H20.9534V29.2153H28.7276V27.5516H20.7417C20.0965 25.4763 18.9916 23.5348 17.5111 21.9044C15.2747 19.4439 14.0429 16.288 14.0429 13.019V8.22943C14.0429 5.12427 16.6663 2.59722 19.8917 2.59722C21.2047 2.59722 22.4806 3.03475 23.5828 3.86241C25.7578 5.49526 28.243 5.49526 30.4172 3.86241C31.5194 3.03475 32.7961 2.59722 34.1083 2.59722C37.3337 2.59722 39.9571 5.12427 39.9571 8.22943V13.019C39.9571 16.288 38.7253 19.4439 36.4889 21.9053C35.0084 23.5356 33.9027 25.4771 33.2583 27.5525H30.4552V29.2161H33.0466V30.8789Z" fill="black"/>
<path d="M17.4981 10.0836H15.7705V11.7472H17.4981V10.0836Z" fill="black"/>
</g>
<defs>
<clipPath id="clip0">
<rect width="54" height="52" fill="white" transform="translate(0 0.76709)"/>
</clipPath>
</defs>
</svg>
