<svg width="51" height="50" viewBox="0 0 51 50" fill="none" xmlns="http://www.w3.org/2000/svg">
<path d="M50.8467 14.6927C50.7226 12.0316 50.2915 10.2142 49.6611 8.62427C49.021 6.9561 48.0172 5.4451 46.7199 4.19617C45.4464 2.92435 43.9048 1.93977 42.2032 1.31187C40.5811 0.694275 38.7278 0.271988 36.0135 0.151062C33.294 0.0289917 32.4252 0 25.5 0C18.5748 0 17.706 0.0289917 14.9865 0.150299C12.2722 0.271988 10.4189 0.694656 8.79675 1.31264C7.09522 1.94016 5.554 2.92435 4.28009 4.19617C2.98283 5.44472 1.97857 6.95572 1.33811 8.62389C0.70816 10.2142 0.277428 12.0316 0.154083 14.6923C0.0295715 17.3588 0 18.2102 0 24.9996C0 31.7894 0.0295715 32.6412 0.154083 35.3073C0.277817 37.9681 0.708939 39.7854 1.33928 41.3757C1.97935 43.0435 2.98322 44.5549 4.28048 45.8035C5.554 47.0753 7.09561 48.0595 8.79714 48.687C10.4189 49.3053 12.2726 49.7276 14.9869 49.8493C17.7067 49.971 18.5752 49.9996 25.5004 49.9996C32.4256 49.9996 33.2944 49.971 36.0138 49.8493C38.7282 49.7276 40.5815 49.3053 42.2036 48.687C45.6289 47.3885 48.3366 44.7338 49.6611 41.3757C50.2918 39.7854 50.7226 37.9681 50.8467 35.3073C50.9704 32.6408 51 31.7894 51 25C51 18.2102 50.9704 17.3588 50.8467 14.6927ZM46.2565 35.1025C46.1433 37.5401 45.7277 38.8638 45.3787 39.7446C44.5207 41.925 42.7632 43.6481 40.5391 44.4893C39.6406 44.8315 38.2905 45.2389 35.8041 45.3499C33.1158 45.4704 32.3092 45.4956 25.5 45.4956C18.6904 45.4956 17.8842 45.4704 15.1955 45.3499C12.7095 45.2389 11.3594 44.8315 10.4605 44.4893C9.35316 44.0884 8.35123 43.4494 7.52868 42.6189C6.68161 41.8125 6.02987 40.8306 5.62093 39.7446C5.2719 38.8638 4.85635 37.5401 4.74312 35.1025C4.62055 32.4665 4.59448 31.6757 4.59448 25.0004C4.59448 18.3247 4.62055 17.5343 4.74312 14.8979C4.85674 12.4603 5.2719 11.1366 5.62093 10.2558C6.02987 9.16977 6.682 8.18748 7.52868 7.38106C8.35123 6.5506 9.35316 5.91164 10.4609 5.51109C11.3594 5.16853 12.7095 4.76151 15.1959 4.65012C17.8846 4.52995 18.6912 4.50439 25.5 4.50439H25.4996C32.3085 4.50439 33.1151 4.52995 35.8041 4.6505C38.2905 4.76151 39.6403 5.16891 40.5391 5.51109C41.6464 5.91202 42.6484 6.55098 43.4709 7.38106C44.318 8.18748 44.9697 9.16977 45.3783 10.2558C45.7277 11.1366 46.1433 12.4603 46.2565 14.8979C46.3791 17.5339 46.4051 18.3247 46.4051 25C46.4051 31.6757 46.3794 32.4661 46.2565 35.1025Z" fill="url(#paint0_linear)"/>
<path d="M25.4996 12.1621C18.2678 12.1621 12.4053 17.9101 12.4053 25.0001C12.4053 32.0901 18.2678 37.8377 25.4996 37.8377C32.7318 37.8377 38.5944 32.0901 38.5944 25.0001C38.5944 17.9101 32.7318 12.1621 25.4996 12.1621ZM25.4996 33.3333C20.8055 33.3329 16.9998 29.6021 17.0001 24.9997C17.0001 20.3977 20.8055 16.6665 25.5 16.6665C30.1945 16.6669 33.9999 20.3977 33.9999 24.9997C33.9999 29.6021 30.1941 33.3333 25.4996 33.3333Z" fill="url(#paint1_linear)"/>
<path d="M42.1717 11.655C42.1717 13.3118 40.8017 14.6549 39.1118 14.6549C37.4216 14.6549 36.0516 13.3118 36.0516 11.655C36.0516 9.99794 37.4216 8.65479 39.1118 8.65479C40.8017 8.65479 42.1717 9.99794 42.1717 11.655Z" fill="url(#paint2_linear)"/>
<defs>
<linearGradient id="paint0_linear" x1="4.27983" y1="45.8037" x2="45.8798" y2="3.37167" gradientUnits="userSpaceOnUse">
<stop stop-color="#FFD600"/>
<stop offset="0.5" stop-color="#FF0100"/>
<stop offset="1" stop-color="#D800B9"/>
</linearGradient>
<linearGradient id="paint1_linear" x1="16.2406" y1="34.0776" x2="34.3924" y2="15.5628" gradientUnits="userSpaceOnUse">
<stop stop-color="#FF6400"/>
<stop offset="0.5" stop-color="#FF0100"/>
<stop offset="1" stop-color="#FD0056"/>
</linearGradient>
<linearGradient id="paint2_linear" x1="36.948" y1="13.7761" x2="41.1897" y2="9.44959" gradientUnits="userSpaceOnUse">
<stop stop-color="#F30072"/>
<stop offset="1" stop-color="#E50097"/>
</linearGradient>
</defs>
</svg>
