<svg width="54" height="53" viewBox="0 0 54 53" fill="none" xmlns="http://www.w3.org/2000/svg">
<path d="M21.0938 27.7046C18.8895 27.7046 17.0965 30.3461 18.5685 37.4511C19.3975 41.4515 16.875 44.7671 14.3438 44.7671C12.3723 44.7671 9.23421 43.9241 7.62539 39.8882C3.94453 30.6518 6.03018 27.4535 3.41719 21.203C2.82962 19.7977 2.53125 18.059 2.53125 16.3296C2.53062 11.4028 5.0625 6.58905 10.9928 6.57961C16.0312 6.57169 19.4062 9.0099 21.0938 9.01711C22.7812 9.0099 26.1563 6.57169 31.1947 6.57961C37.125 6.58905 39.6569 11.4028 39.6562 16.3296C39.6562 18.059 39.3579 19.7977 38.7703 21.203C36.1569 27.4535 38.243 30.6518 34.5621 39.8882C32.9533 43.9241 29.8152 44.7671 27.8438 44.7671C25.3125 44.7671 22.79 41.4515 23.619 37.4511C25.091 30.3461 23.298 27.7046 21.0938 27.7046Z" fill="#E8EDF1"/>
<path d="M41.3438 42.3337C41.3438 45.0261 43.6103 47.2087 46.4062 47.2087C49.2022 47.2087 51.4688 45.0261 51.4688 42.3337V32.5837C51.4688 29.8914 49.2022 27.7087 46.4062 27.7087C43.6103 27.7087 41.3438 29.8914 41.3438 32.5837V42.3337Z" fill="#A4D4F4"/>
<path d="M41.3438 42.3341V37.4631H51.4688V42.3341C51.4688 43.627 50.9354 44.867 49.986 45.7812C49.0366 46.6955 47.7489 47.2091 46.4062 47.2091C45.0636 47.2091 43.7759 46.6955 42.8265 45.7812C41.8771 44.867 41.3438 43.627 41.3438 42.3341Z" fill="#15A6A6"/>
<path d="M40.8069 34.7258C42.1751 36.047 42.9661 37.8224 43.0178 39.6875C43.0694 41.5527 42.3776 43.3661 41.0845 44.7556C39.7913 46.1451 37.9949 47.0052 36.0639 47.1594C34.133 47.3136 32.214 46.7502 30.7008 45.5848C29.1876 44.4194 28.1951 42.7405 27.927 40.8926C27.6589 39.0447 28.1354 37.1681 29.2589 35.6479C30.3824 34.1278 32.0675 33.0794 33.9685 32.718C35.8694 32.3566 37.8418 32.7096 39.4809 33.7046C39.9608 33.9967 40.4055 34.3392 40.8069 34.7258Z" fill="#CED98F"/>
<path d="M40.8069 34.7258C41.2084 35.1122 41.5641 35.5403 41.8674 36.0022L31.3937 46.0884C30.4311 45.5023 29.6159 44.7173 29.0072 43.7904L39.481 33.7046C39.9609 33.9967 40.4056 34.3392 40.8069 34.7258Z" fill="#B0BB74"/>
<path d="M10.9225 28.6903C10.6894 26.2173 10.469 23.8816 9.21995 20.9004C9.1362 20.7006 8.97344 20.541 8.76748 20.4567C8.56152 20.3724 8.32923 20.3704 8.1217 20.451C7.91418 20.5317 7.74842 20.6884 7.6609 20.8867C7.57338 21.0851 7.57126 21.3087 7.655 21.5086C8.81105 24.2672 9.0108 26.385 9.24199 28.837C9.50187 31.5935 9.79655 34.7175 11.5475 39.3568C11.5845 39.4582 11.6419 39.5515 11.7166 39.6314C11.7912 39.7113 11.8816 39.7762 11.9825 39.8222C12.0833 39.8682 12.1927 39.8945 12.3041 39.8996C12.4156 39.9047 12.5271 39.8883 12.632 39.8516C12.7369 39.8149 12.8332 39.7586 12.9153 39.6858C12.9974 39.613 13.0637 39.5252 13.1103 39.4276C13.157 39.3299 13.183 39.2243 13.187 39.1169C13.191 39.0095 13.1728 38.9024 13.1335 38.8018C11.4573 34.3608 11.1732 31.3483 10.9225 28.6903Z" fill="black"/>
<path d="M46.4062 26.8965C44.8404 26.8982 43.3391 27.4979 42.2318 28.5642C41.1246 29.6304 40.5018 31.0761 40.5 32.584V33.3965C39.6346 32.769 38.6515 32.3085 37.6047 32.0401C37.7754 30.8908 37.8745 29.8475 37.9697 28.8347C38.2005 26.3826 38.3997 24.265 39.5531 21.5064C40.1636 20.0468 40.5 18.2079 40.5 16.3296C40.5 13.5412 39.7301 10.9853 38.3321 9.13277C36.6736 6.93577 34.2059 5.77186 31.1961 5.76709H31.1699C27.818 5.76709 25.2062 6.78089 23.2979 7.52168C22.3568 7.88731 21.544 8.20215 21.0974 8.20459C20.6439 8.20266 19.8307 7.88711 18.8896 7.52168C16.9812 6.78089 14.3698 5.76709 11.0176 5.76709H10.9914C7.98156 5.77186 5.51391 6.93577 3.85541 9.13287C2.45742 10.9854 1.6875 13.5413 1.6875 16.3296C1.6875 18.2078 2.02395 20.0468 2.6345 21.5063C3.7878 24.265 3.98672 26.3826 4.2177 28.8346C4.49307 31.761 4.80516 35.0779 6.83807 40.1791C8.78048 45.0534 12.7341 45.5796 14.3438 45.5796C15.6199 45.5796 16.9146 44.9194 17.8955 43.7674C19.3269 42.0867 19.8879 39.6659 19.3959 37.292C19.0117 35.4376 18.2836 30.9293 19.8196 29.1264C20.1686 28.7167 20.5854 28.517 21.0938 28.517C21.6021 28.517 22.0189 28.7162 22.3679 29.1264C23.9039 30.9297 23.1758 35.438 22.7916 37.292C22.2996 39.6659 22.8606 42.0867 24.292 43.7674C25.2729 44.9194 26.5676 45.5796 27.8438 45.5796C28.3286 45.5793 28.8124 45.5351 29.2887 45.4476C30.0701 46.2522 31.0137 46.8951 32.0617 47.3368C33.1098 47.7786 34.2404 48.01 35.3844 48.0168C36.5285 48.0237 37.662 47.806 38.7157 47.3768C39.7694 46.9477 40.7212 46.3163 41.513 45.5211C42.2215 46.5294 43.2473 47.2922 44.4395 47.6974C45.6317 48.1026 46.9275 48.1287 48.1363 47.772C49.3451 47.4152 50.4031 46.6945 51.1549 45.7156C51.9066 44.7367 52.3124 43.5514 52.3125 42.334V32.584C52.3107 31.0761 51.6879 29.6304 50.5807 28.5642C49.4734 27.4979 47.9721 26.8982 46.4062 26.8965ZM46.4062 28.5215C47.5247 28.5227 48.5971 28.9511 49.388 29.7127C50.1789 30.4743 50.6237 31.5069 50.625 32.584V36.6421H43.1684C42.9074 36.0677 42.5782 35.5242 42.1875 35.0227V32.584C42.1888 31.5069 42.6336 30.4743 43.4245 29.7127C44.2154 28.9511 45.2878 28.5227 46.4062 28.5215ZM28.6875 39.8921C28.6874 38.8183 28.9635 37.7612 29.4913 36.8153C30.019 35.8695 30.782 35.0642 31.7118 34.4716C32.6417 33.879 33.7095 33.5174 34.82 33.4193C35.9304 33.3212 37.0487 33.4895 38.0751 33.9092L29.2245 42.432C28.8693 41.629 28.6866 40.7649 28.6875 39.8921ZM27.8438 43.9546C27.0749 43.9546 26.2559 43.5108 25.5973 42.737C24.4828 41.4284 24.0528 39.5118 24.4468 37.61C25.3855 33.0816 25.1176 29.7915 23.6731 28.0955C23.0021 27.3085 22.1104 26.8921 21.0938 26.8921C20.0771 26.8921 19.1854 27.3085 18.5148 28.0955C17.0699 29.7916 16.8026 33.0816 17.7411 37.61C18.1351 39.5118 17.7051 41.4287 16.5907 42.737C15.9316 43.5108 15.1126 43.9546 14.3438 43.9546C12.7775 43.9546 9.92461 43.3885 8.41356 39.5976C6.4646 34.7067 6.1638 31.5093 5.89834 28.6883C5.66631 26.2158 5.44598 23.8804 4.20029 20.8997C3.6681 19.6277 3.375 18.0048 3.375 16.3296C3.375 13.8819 4.03007 11.6653 5.2207 10.0885C6.56786 8.30321 8.51048 7.39605 10.9943 7.39209H11.0171C14.0421 7.39209 16.4786 8.33784 18.2586 9.02887C19.4062 9.47412 20.3126 9.82634 21.0974 9.82959C21.8749 9.82634 22.7812 9.47412 23.9289 9.02887C25.709 8.33784 28.1452 7.39209 31.1704 7.39209H31.1932C33.677 7.39605 35.6196 8.30321 36.9671 10.0884C38.1574 11.6652 38.8125 13.8819 38.8125 16.3296C38.8125 18.0054 38.5194 19.6278 37.9877 20.8999C36.7415 23.8806 36.5217 26.216 36.2892 28.6885C36.1967 29.6712 36.1006 30.6831 35.9382 31.7831C35.7724 31.7732 35.6063 31.7671 35.4375 31.7671C33.9569 31.766 32.5021 32.1404 31.2195 32.8526C29.9369 33.5648 28.8716 34.5897 28.1309 35.8242C27.3902 37.0587 27.0001 38.4593 27 39.885C26.9998 41.3108 27.3896 42.7114 28.13 43.9461C28.0345 43.9504 27.9387 43.9546 27.8438 43.9546ZM30.1105 43.877L39.5757 34.7624C40.0212 35.0964 40.4218 35.4826 40.7683 35.912L31.3042 45.0255C30.8584 44.6918 30.4574 44.306 30.1105 43.877ZM35.4375 46.3921C34.5333 46.393 33.6382 46.218 32.806 45.8776L41.6532 37.358C42.0877 38.3463 42.2613 39.4228 42.1585 40.4914C42.0558 41.56 41.6799 42.5875 41.0643 43.4822C40.4488 44.3768 39.6128 45.1108 38.6309 45.6185C37.6491 46.1263 36.552 46.3921 35.4375 46.3921ZM46.4062 46.3965C45.6203 46.3972 44.8499 46.1861 44.182 45.7871C43.5142 45.3881 42.9756 44.8171 42.6272 44.1387C43.7469 42.384 44.1323 40.2851 43.7052 38.2671H50.625V42.334C50.6237 43.411 50.1789 44.4436 49.388 45.2052C48.5971 45.9668 47.5247 46.3952 46.4062 46.3965Z" fill="black"/>
<path d="M7.59601 17.1342C7.70683 17.1339 7.81649 17.1126 7.91876 17.0715C8.02102 17.0304 8.11388 16.9703 8.19202 16.8946C8.27017 16.819 8.33207 16.7292 8.3742 16.6305C8.41633 16.5318 8.43785 16.4261 8.43755 16.3194C8.43312 14.6522 8.77294 13.4405 9.42052 12.8155C9.80864 12.4412 10.3149 12.2592 10.9688 12.2592C11.1926 12.2592 11.4072 12.1736 11.5654 12.0212C11.7237 11.8688 11.8125 11.6621 11.8125 11.4467C11.8125 11.2312 11.7237 11.0245 11.5654 10.8721C11.4072 10.7198 11.1926 10.6342 10.9688 10.6342C9.87467 10.6342 8.92619 10.9916 8.22566 11.668C7.24079 12.6188 6.74435 14.1853 6.75005 16.3237C6.75061 16.5388 6.83975 16.745 6.99792 16.8969C7.15609 17.0488 7.37039 17.1342 7.5938 17.1342H7.59601Z" fill="black"/>
</svg>
