<svg width="77" height="80" viewBox="0 0 77 80" fill="none" xmlns="http://www.w3.org/2000/svg">
<path d="M64.6463 37.6673L63.1562 42.8673C61.994 42.9415 60.8981 43.4591 60.0761 44.322L59.0668 45.3783L60.2926 41.0408C60.5413 40.0628 61.092 39.1982 61.8588 38.5816C62.6257 37.9651 63.5658 37.631 64.5328 37.6314L64.6463 37.6673Z" fill="#F1DBCD"/>
<path d="M68.9762 34.3814L66.6634 42.472L66.2693 43.8064C65.3684 43.1221 64.2669 42.7898 63.1562 42.8673L64.6463 37.6673L65.0256 36.3439C65.5257 34.7439 67.4144 33.933 68.9657 34.3783L68.9762 34.3814Z" fill="#E5D0C6"/>
<path d="M66.2693 43.8064L66.6634 42.472L68.9762 34.3814L69.2539 33.4111C69.5394 32.4109 70.182 31.5642 71.0484 31.0469C71.9147 30.5295 72.9382 30.3813 73.9062 30.633L70.196 51.5236C69.3909 54.0202 67.8385 56.1789 65.7691 57.6798L57.6663 63.5205C56.8786 64.0134 56.3007 64.8026 56.0508 65.7267L55.243 74.5345L55.0146 74.6126C51.4809 75.8185 47.6686 75.7911 44.1511 74.5345V69.6611C44.1727 67.4474 44.3448 65.2382 44.6662 63.0501C44.6901 62.8689 44.708 62.6861 44.7185 62.5017L44.8424 60.2595C45.118 58.2197 45.9253 56.2988 47.1756 54.7076C48.4258 53.1164 50.0708 51.9163 51.9299 51.2392L52.6272 50.9861C53.7174 50.589 54.7076 49.9389 55.5237 49.0845L59.0668 45.3783L60.0761 44.322C60.882 43.481 61.9475 42.9674 63.0821 42.8729C64.2167 42.7784 65.3464 43.1093 66.2693 43.8064Z" fill="#EAC5AE"/>
<path d="M12.7981 39.4344L14.2882 44.6344C13.1775 44.5569 12.076 44.8891 11.1752 45.5734L10.781 44.2391L8.46826 36.1484L8.47871 36.1453C10.03 35.7 11.9187 36.5109 12.4189 38.1109L12.7981 39.4344Z" fill="#E5D0C6"/>
<path d="M18.3777 47.1453L17.3683 46.0891C16.5463 45.2261 15.4504 44.7086 14.2882 44.6344L12.7981 39.4344L12.9116 39.3984C13.8786 39.398 14.8187 39.7321 15.5856 40.3487C16.3525 40.9653 16.9031 41.8298 17.1519 42.8078L18.3777 47.1453Z" fill="#F1DBCD"/>
<path d="M13.2882 42.8673C14.4504 42.9415 15.5463 43.4591 16.3684 44.322L17.3777 45.3783L20.9207 49.0845C21.7368 49.9389 22.727 50.589 23.8172 50.9861L24.5145 51.2392C26.3736 51.9164 28.0186 53.1164 29.2689 54.7076C30.5192 56.2988 31.3264 58.2197 31.602 60.2595L31.7259 62.5017C31.7364 62.6861 31.7543 62.8689 31.7782 63.0502C32.0996 65.2382 32.2717 67.4474 32.2933 69.6611V74.5345L31.8872 74.6705C28.4028 75.8401 24.6523 75.8133 21.1835 74.5939L21.0163 74.5345L20.3937 65.7267C20.1437 64.8026 19.5658 64.0134 18.7782 63.5205L10.6754 57.6798C8.6059 56.1789 7.05358 54.0202 6.24845 51.5236L2.53821 30.633C3.50625 30.3813 4.52973 30.5295 5.39608 31.0469C6.26243 31.5642 6.90508 32.4109 7.19057 33.4111L7.46828 34.3814L9.78102 42.472L10.1752 43.8064C11.076 43.1221 12.1775 42.7898 13.2882 42.8673Z" fill="#EAC5AE"/>
<path d="M48.2272 17.0064C48.8443 17.5879 49.3278 18.308 49.6414 19.1127C49.955 19.9174 50.0907 20.7859 50.0382 21.6533C49.8993 24.0534 49.3406 26.4064 48.3899 28.5955H48.3929C47.2791 31.1767 46.6236 33.8611 46.6236 36.6783V39.9017C46.6264 40.505 46.4016 41.085 45.998 41.5158C45.7991 41.7285 45.5615 41.8973 45.2991 42.0122C45.0368 42.1271 44.755 42.1857 44.4706 42.1845C43.9194 42.1837 43.3871 41.9733 42.9731 41.5923C42.3988 41.0834 41.9356 40.4513 41.6149 39.7388C41.2942 39.0264 41.1235 38.2501 41.1142 37.4626V35.6923C41.1186 35.2788 41.0445 34.8685 40.896 34.4852C40.7476 34.1019 40.5279 33.7533 40.2496 33.4597C39.9714 33.166 39.6401 32.9332 39.2752 32.7747C38.9102 32.6161 38.5187 32.5351 38.1235 32.5362C37.7284 32.5373 37.3374 32.6207 36.9732 32.7813C36.6091 32.9419 36.279 33.1767 36.0023 33.4719C35.7256 33.7672 35.5077 34.117 35.3613 34.5012C35.2149 34.8853 35.1429 35.296 35.1495 35.7095V37.4626C35.1502 38.2464 34.9893 39.021 34.6777 39.7337C34.3662 40.4464 33.9114 41.0804 33.3444 41.5923C33.1369 41.7806 32.8993 41.9292 32.6426 42.0314C32.3865 42.1329 32.1148 42.1848 31.8409 42.1845C31.2604 42.1851 30.7032 41.9454 30.291 41.5177C29.8787 41.0901 29.6447 40.5092 29.6401 39.9017V36.6783C29.6551 33.892 29.0959 31.1351 28.0007 28.5955H28.0067C27.0551 26.4066 26.4953 24.0536 26.3554 21.6533C26.3479 21.533 26.3449 21.4126 26.3449 21.2923C26.3423 20.4093 26.5345 19.5376 26.9067 18.7451C27.2789 17.9527 27.8209 17.2609 28.4906 16.7237C29.1603 16.1865 29.9395 15.8184 30.7674 15.6482C31.5953 15.478 32.4497 15.5102 33.2638 15.7423L35.4436 16.3658C37.2459 16.8819 39.1475 16.8825 40.95 16.3673L43.1344 15.7439C44.0165 15.4925 44.9447 15.4763 45.8343 15.6968C46.7239 15.9173 47.5466 16.3676 48.2272 17.0064Z" fill="#DEEAFB"/>
<path d="M25.4954 74.5346L24.8728 65.7267C24.6229 64.8026 24.045 64.0134 23.2573 63.5205L15.1545 57.6799C13.0851 56.179 11.5327 54.0202 10.7276 51.5236L8.03564 36.366L7.46828 34.3816L7.19057 33.4113C6.90511 32.411 6.26248 31.5643 5.39612 31.047C4.52977 30.5296 3.50627 30.3813 2.53821 30.633L6.24845 51.5236C7.05358 54.0202 8.6059 56.179 10.6754 57.6799L18.7782 63.5205C19.5658 64.0134 20.1437 64.8026 20.3937 65.7267L21.0163 74.5346L21.1835 74.5939C23.6593 75.4629 26.292 75.7291 28.8809 75.3722C27.7868 75.2216 26.709 74.961 25.6627 74.5939L25.4954 74.5346Z" fill="#D3AD98"/>
<path d="M34.1193 36.6783C34.1343 33.892 33.5751 31.1351 32.4799 28.5955H32.4859C31.5343 26.4066 30.9745 24.0536 30.8346 21.6533C30.8271 21.533 30.8241 21.4127 30.8241 21.2923C30.8203 20.1643 31.1347 19.0601 31.7281 18.1184C32.3216 17.1766 33.1675 16.4392 34.1598 15.9986L33.2639 15.7423C32.4498 15.5102 31.5955 15.478 30.7676 15.6482C29.9396 15.8184 29.1605 16.1865 28.4908 16.7237C27.8211 17.2609 27.279 17.9527 26.9069 18.7451C26.5347 19.5376 26.3424 20.4093 26.3451 21.2923C26.3451 21.4127 26.3481 21.533 26.3556 21.6533C26.4955 24.0536 27.0552 26.4066 28.0069 28.5955H28.0009C29.0961 31.1351 29.6553 33.892 29.6403 36.6783V39.9017C29.6449 40.5092 29.8789 41.0901 30.2911 41.5177C30.7034 41.9454 31.2606 42.1851 31.8411 42.1845C32.115 42.1848 32.3867 42.1329 32.6428 42.0314C32.8995 41.9292 33.137 41.7806 33.3446 41.5923C33.6752 41.2927 33.9687 40.9508 34.218 40.5747C34.1526 40.3569 34.1194 40.13 34.1195 39.9017L34.1193 36.6783Z" fill="#C8D7E8"/>
<path d="M38.2222 0C37.9847 0 37.7568 0.098772 37.5888 0.274587C37.4208 0.450403 37.3264 0.688859 37.3264 0.9375V10.5156C37.3264 10.7643 37.4208 11.0027 37.5888 11.1785C37.7568 11.3544 37.9847 11.4531 38.2222 11.4531C38.4598 11.4531 38.6877 11.3544 38.8557 11.1785C39.0237 11.0027 39.1181 10.7643 39.1181 10.5156V0.9375C39.1181 0.688859 39.0237 0.450403 38.8557 0.274587C38.6877 0.098772 38.4598 0 38.2222 0Z" fill="#15A6A6"/>
<path d="M54.8737 13.7236L52.4194 16.2914C52.3362 16.3785 52.2702 16.4818 52.2252 16.5956C52.1802 16.7093 52.157 16.8312 52.157 16.9543C52.157 17.0774 52.1801 17.1994 52.2252 17.3131C52.2702 17.4269 52.3362 17.5302 52.4193 17.6173C52.5025 17.7043 52.6013 17.7734 52.71 17.8205C52.8186 17.8676 52.9351 17.8919 53.0528 17.8919C53.1704 17.8919 53.2869 17.8677 53.3956 17.8206C53.5043 17.7735 53.6031 17.7044 53.6863 17.6174L56.1404 15.0495C56.3062 14.8733 56.3987 14.6356 56.3977 14.3883C56.3968 14.1409 56.3025 13.904 56.1354 13.7291C55.9683 13.5542 55.742 13.4555 55.5056 13.4545C55.2693 13.4534 55.0422 13.5502 54.8737 13.7236Z" fill="#15A6A6"/>
<path d="M20.2527 13.7238C20.0847 13.8996 19.9904 14.138 19.9904 14.3866C19.9904 14.6353 20.0847 14.8737 20.2527 15.0495L22.707 17.6174C22.7899 17.7056 22.8888 17.7757 22.9977 17.8238C23.1067 17.8718 23.2237 17.8968 23.342 17.8973C23.4602 17.8978 23.5774 17.8737 23.6867 17.8266C23.7961 17.7795 23.8954 17.7101 23.979 17.6226C24.0627 17.5351 24.1289 17.4311 24.1739 17.3167C24.2189 17.2022 24.2418 17.0796 24.2413 16.9559C24.2408 16.8321 24.2169 16.7097 24.171 16.5956C24.1251 16.4816 24.058 16.3782 23.9737 16.2914L21.5197 13.7236C21.4365 13.6365 21.3378 13.5675 21.2291 13.5204C21.1204 13.4733 21.0038 13.449 20.8862 13.449C20.7685 13.4491 20.652 13.4733 20.5433 13.5205C20.4347 13.5676 20.3359 13.6367 20.2527 13.7238Z" fill="#15A6A6"/>
<path d="M25.8655 4.82999C25.6502 4.93513 25.4836 5.12547 25.4024 5.35912C25.3212 5.59278 25.332 5.85062 25.4325 6.07593L28.5059 12.9719C28.5557 13.0835 28.6259 13.1837 28.7127 13.2669C28.7994 13.3501 28.901 13.4146 29.0115 13.4567C29.1221 13.4988 29.2395 13.5177 29.3571 13.5123C29.4746 13.5069 29.59 13.4774 29.6966 13.4253C29.8033 13.3733 29.8991 13.2997 29.9785 13.209C30.058 13.1182 30.1196 13.0119 30.1599 12.8962C30.2001 12.7805 30.2182 12.6576 30.213 12.5346C30.2079 12.4116 30.1797 12.2908 30.1299 12.1792L27.056 5.28343C27.0063 5.17184 26.9361 5.0716 26.8493 4.98842C26.7626 4.90524 26.661 4.84076 26.5505 4.79865C26.4399 4.75655 26.3225 4.73764 26.205 4.74302C26.0874 4.7484 25.9721 4.77795 25.8655 4.82999Z" fill="#15A6A6"/>
<path d="M49.3374 5.28343L46.264 12.1792C46.1635 12.4045 46.1527 12.6624 46.234 12.8961C46.3152 13.1297 46.4818 13.32 46.6971 13.4252C46.9124 13.5303 47.1588 13.5416 47.3821 13.4566C47.6054 13.3715 47.7872 13.1972 47.8877 12.9719L50.9611 6.07671C51.012 5.96499 51.0412 5.84384 51.047 5.72024C51.0529 5.59665 51.0353 5.47307 50.9953 5.35661C50.9554 5.24016 50.8937 5.13315 50.814 5.04174C50.7343 4.95033 50.6381 4.87634 50.531 4.82404C50.4238 4.77173 50.3078 4.74215 50.1897 4.73699C50.0715 4.73183 49.9536 4.7512 49.8426 4.79398C49.7317 4.83676 49.6299 4.9021 49.5432 4.98624C49.4565 5.07038 49.3866 5.17165 49.3374 5.28421V5.28343Z" fill="#15A6A6"/>
<path d="M13.1857 22.6094L19.7768 25.825C19.8836 25.8781 19.9993 25.9085 20.1174 25.9146C20.2354 25.9206 20.3535 25.9022 20.4647 25.8603C20.5759 25.8184 20.6781 25.7539 20.7653 25.6705C20.8526 25.5871 20.9233 25.4864 20.9732 25.3743C21.0231 25.2622 21.0514 25.1409 21.0563 25.0173C21.0612 24.8937 21.0427 24.7703 21.0019 24.6542C20.9611 24.5382 20.8987 24.4317 20.8183 24.341C20.738 24.2503 20.6413 24.1771 20.5338 24.1256L13.9429 20.91C13.7275 20.8049 13.4811 20.7937 13.2579 20.8787C13.0346 20.9638 12.8528 21.1382 12.7524 21.3635C12.652 21.5889 12.6412 21.8467 12.7225 22.0804C12.8038 22.314 12.9704 22.5043 13.1857 22.6094Z" fill="#15A6A6"/>
<path d="M56.426 23.6041C56.4757 23.7157 56.5459 23.816 56.6326 23.8992C56.7193 23.9824 56.8209 24.0469 56.9315 24.089C57.042 24.131 57.1594 24.1499 57.277 24.1444C57.3945 24.139 57.5099 24.1093 57.6164 24.0572L64.2076 20.8416C64.4211 20.7354 64.5859 20.5451 64.666 20.3123C64.7461 20.0795 64.735 19.823 64.6351 19.5987C64.5352 19.3744 64.3546 19.2005 64.1327 19.115C63.9108 19.0295 63.6656 19.0393 63.4506 19.1422L56.8595 22.358C56.7528 22.41 56.657 22.4835 56.5775 22.5743C56.498 22.6651 56.4363 22.7713 56.3961 22.8871C56.3558 23.0028 56.3378 23.1257 56.3429 23.2487C56.348 23.3717 56.3763 23.4925 56.426 23.6041Z" fill="#15A6A6"/>
<path d="M32.6203 62.4477L32.4886 60.1289C32.1951 57.9166 31.3223 55.8325 29.9668 54.1073C28.6113 52.3821 26.826 51.0832 24.8086 50.3544L24.1121 50.1008C23.1495 49.7502 22.2751 49.1764 21.5544 48.4222L18.1721 44.8836L17.031 40.787C16.7547 39.7037 16.1693 38.7342 15.3531 38.0078C14.5368 37.2814 13.5284 36.8326 12.4623 36.7213L12.2771 36.0753C12.275 36.068 12.2728 36.0605 12.2704 36.053C11.7293 34.3228 9.93511 33.2069 8.10209 33.3258L8.04938 33.1419C7.69889 31.9102 6.90795 30.8674 5.84124 30.2307C4.77452 29.5939 3.51424 29.4123 2.32277 29.7236C2.10114 29.7812 1.90888 29.9251 1.78528 30.1261C1.66168 30.327 1.61607 30.5697 1.65777 30.8047L5.17376 50.5558C5.42424 51.9997 5.93406 53.3808 6.67622 54.6259C7.58308 56.1334 8.77047 57.4344 10.1677 58.4517L18.2707 64.2928C18.2865 64.3041 18.3025 64.3148 18.3189 64.3251C18.8861 64.679 19.3091 65.2388 19.5077 65.8978L20.1234 74.6042C20.1364 74.7883 20.2011 74.9643 20.3093 75.1101C20.4174 75.2558 20.5643 75.365 20.7315 75.4237L20.8982 75.4823C24.5464 76.7746 28.4953 76.8033 32.1604 75.5642L32.5453 75.4278C32.7237 75.3659 32.8783 75.2458 32.9864 75.085C33.0945 74.9242 33.1504 74.7314 33.1458 74.5348V69.6619C33.1335 67.4041 32.9657 65.1503 32.6436 62.9178C32.6224 62.7623 32.6291 62.6042 32.6203 62.4477ZM15.3029 41.2823L15.6695 42.6236C15.1402 42.3282 14.5696 42.1225 13.9788 42.0142L13.0493 38.7711C13.5903 38.9691 14.0776 39.3008 14.47 39.7379C14.8623 40.1751 15.148 40.7049 15.3029 41.2823ZM10.5649 36.6261L12.1027 41.9939C11.6214 42.0711 11.1515 42.2129 10.7048 42.4158L8.64362 35.2173C9.47719 35.3133 10.3021 35.8053 10.5649 36.6264V36.6261ZM31.3542 73.8492C28.2558 74.8499 24.9405 74.8462 21.8442 73.8384L21.2768 65.6578C21.2741 65.5951 21.2655 65.5329 21.251 65.472C20.9443 64.3279 20.2332 63.3487 19.2621 62.733L11.1847 56.9095C9.29473 55.5321 7.87044 53.5635 7.11622 51.2862L3.59456 31.4527C4.21574 31.4786 4.81362 31.7071 5.30448 32.1064C5.79533 32.5056 6.15459 33.0555 6.33192 33.6791L9.1417 43.4805C9.08198 43.5383 9.02276 43.5977 8.96403 43.6586C8.89292 43.7311 8.83438 43.816 8.79098 43.9095C8.7067 44.0919 8.68086 44.2978 8.7173 44.4968C8.75375 44.6958 8.85054 44.8771 8.99329 45.0139L13.0528 48.8936C14.0189 49.8173 14.9178 50.8151 15.7421 51.8787C15.8921 52.0677 16.1071 52.1875 16.3406 52.2123C16.5742 52.2371 16.8078 52.165 16.9911 52.0114C17.1743 51.8578 17.2927 51.635 17.3206 51.3911C17.3485 51.1471 17.2837 50.9014 17.1403 50.7069C16.258 49.5675 15.2955 48.4987 14.2609 47.5095L10.9791 44.3725C11.7238 43.9063 12.5959 43.7133 13.4572 43.8242C14.3186 43.935 15.12 44.3434 15.7346 44.9845L20.2869 49.7475C21.199 50.7017 22.3053 51.4278 23.5233 51.8716L24.2199 52.1253C25.9202 52.7395 27.4256 53.8326 28.5706 55.2843C29.7155 56.7361 30.4557 58.4902 30.7095 60.3537L30.8322 62.5661C30.8482 62.8548 30.89 63.3256 30.9272 63.6122C31.2014 65.6162 31.3441 67.6375 31.3542 69.6619V73.8492Z" fill="#15A6A6"/>
<path d="M74.1222 29.7236C72.9308 29.4123 71.6705 29.5939 70.6039 30.2306C69.5372 30.8673 68.7463 31.91 68.3959 33.1417L68.3433 33.3258C66.51 33.2061 64.7152 34.3225 64.1738 36.0529C64.1714 36.0604 64.1692 36.0686 64.1671 36.0753L63.9819 36.7212C62.9158 36.8326 61.9074 37.2814 61.0911 38.0078C60.2749 38.7342 59.6895 39.7036 59.4132 40.787L58.2635 44.8836L54.8862 48.4222C54.1653 49.1751 53.2918 49.7488 52.3304 50.1008L51.6348 50.3544C49.6175 51.0833 47.8324 52.3822 46.477 54.1074C45.1216 55.8326 44.2489 57.9167 43.9556 60.1289L43.8243 62.4476C43.8155 62.6039 43.8223 62.7623 43.8011 62.9176C43.479 65.1502 43.3111 67.4041 43.2986 69.6619V74.5348C43.2985 74.7325 43.3574 74.9252 43.4672 75.0861C43.577 75.2469 43.7321 75.3678 43.9108 75.4317C47.6006 76.7362 51.594 76.7614 55.2986 75.5037L55.5235 75.4256C55.689 75.3689 55.8351 75.2628 55.9439 75.1203C56.0526 74.9779 56.1193 74.8054 56.1356 74.6239L56.9347 65.9062C57.1318 65.2433 57.556 64.68 58.1257 64.3244C58.1422 64.314 58.1581 64.3033 58.1738 64.292L66.2789 58.4494C67.9421 57.2374 69.3042 55.6267 70.2514 53.7517C70.7262 52.7978 71.0602 51.7741 71.2421 50.7154L74.7872 30.8047C74.8289 30.5697 74.7833 30.327 74.6597 30.126C74.5361 29.9251 74.3438 29.7811 74.1222 29.7236ZM65.8796 36.6264C66.1421 35.8048 66.9685 35.3125 67.8027 35.2167L65.7423 42.4164C65.295 42.2132 64.8244 42.0714 64.3424 41.9945L65.8796 36.6264ZM61.1416 41.2826C61.2964 40.7051 61.5821 40.1753 61.9745 39.738C62.3668 39.3008 62.8542 38.9691 63.3952 38.7711L62.4657 42.0154C61.8762 42.1238 61.3068 42.3291 60.7786 42.6237L61.1416 41.2826ZM69.3274 51.2858C68.5734 53.5623 67.1496 55.5303 65.2604 56.9075L57.1797 62.7329C56.2078 63.3487 55.496 64.3282 55.1886 65.4728C55.1739 65.5269 55.1639 65.5823 55.1587 65.6383L54.4289 73.8303C51.3844 74.7893 48.1385 74.7962 45.0903 73.8501V69.6619C45.1029 67.4928 45.2647 65.3274 45.5745 63.1826C45.6027 62.9756 45.6121 62.7648 45.6236 62.5562L45.7404 60.3531C45.9938 58.4899 46.7334 56.7359 47.8778 55.2843C49.0223 53.8326 50.5273 52.7394 52.2271 52.1251L52.9223 51.8715C54.1391 51.4264 55.2447 50.7007 56.1574 49.7481L60.7101 44.9845C61.3245 44.3432 62.1259 43.9348 62.9873 43.8239C63.8486 43.7131 64.7206 43.9061 65.4653 44.3725L62.1833 47.5089C61.1488 48.4982 60.1864 49.567 59.3042 50.7064C59.1608 50.9009 59.096 51.1466 59.1239 51.3906C59.1518 51.6345 59.2702 51.8573 59.4534 52.0109C59.6367 52.1645 59.8703 52.2367 60.1039 52.2118C60.3374 52.187 60.5524 52.0672 60.7024 51.8783C61.5267 50.8146 62.4256 49.8168 63.3917 48.8931L67.4379 45.0269C67.5346 44.9374 67.6123 44.8278 67.6661 44.705C67.74 44.5314 67.7618 44.3384 67.7288 44.1515C67.6958 43.9646 67.6094 43.7926 67.4811 43.6581C67.4228 43.597 67.3636 43.5375 67.3032 43.4798L70.113 33.6783C70.2903 33.0547 70.6495 32.5048 71.1403 32.1056C71.6312 31.7063 72.2291 31.4778 72.8502 31.452L69.3274 51.2858Z" fill="#15A6A6"/>
<path d="M47.4792 39.9022V36.6777C47.4792 34.1372 48.0167 31.7038 49.1529 29.0655C49.1611 29.0463 49.2147 28.9428 49.2217 28.9233C50.2004 26.6468 50.7781 24.2041 50.9268 21.7127C50.9942 20.653 50.8185 19.5918 50.4146 18.6175C50.0107 17.6433 49.3901 16.7841 48.6046 16.1117C47.8191 15.4393 46.8915 14.973 45.8989 14.7517C44.9064 14.5305 43.8777 14.5606 42.8985 14.8397L40.7143 15.4627C39.0659 15.9329 37.3273 15.9325 35.6791 15.4614L33.4993 14.8381C32.5195 14.5588 31.4901 14.5285 30.4969 14.7497C29.5036 14.9709 28.5753 15.4372 27.789 16.1097C27.0028 16.7823 26.3814 17.6417 25.9767 18.6163C25.5719 19.591 25.3955 20.6527 25.4622 21.7131C25.5259 22.7634 25.6651 23.8072 25.8787 24.8356C25.9042 24.9567 25.9522 25.0713 26.0201 25.173C26.0879 25.2746 26.1742 25.3613 26.274 25.428C26.3738 25.4948 26.4852 25.5403 26.6018 25.5619C26.7185 25.5836 26.838 25.5811 26.9537 25.5544C27.0694 25.5277 27.1789 25.4775 27.2761 25.4065C27.3732 25.3355 27.456 25.2452 27.5198 25.1407C27.5835 25.0363 27.627 24.9197 27.6477 24.7976C27.6685 24.6756 27.666 24.5505 27.6405 24.4294C27.4452 23.4961 27.318 22.5485 27.2599 21.595C27.2109 20.8456 27.3311 20.0946 27.6107 19.4027C27.8904 18.7108 28.3216 18.0975 28.8696 17.6124C29.4532 17.1069 30.1454 16.7575 30.8867 16.5942C31.628 16.4309 32.396 16.4586 33.1248 16.6749L35.209 17.2711C37.1659 17.8305 39.2302 17.831 41.1873 17.2725L43.3709 16.6495C44.0754 16.4496 44.8153 16.4285 45.529 16.5882C46.2428 16.7479 46.9099 17.0836 47.4746 17.5675C48.0394 18.0514 48.4856 18.6695 48.776 19.3702C49.0665 20.071 49.1928 20.8342 49.1446 21.5964C49.0308 23.8329 48.5193 26.0276 47.6366 28.0678C47.6266 28.0906 47.5377 28.2517 47.5295 28.275C46.3031 31.137 45.6875 33.8864 45.6875 36.6777V39.9022C45.6934 40.0762 45.6658 40.2497 45.6064 40.4123C45.5469 40.575 45.4568 40.7235 45.3415 40.8489C45.2261 40.9744 45.0878 41.0743 44.9348 41.1428C44.7818 41.2112 44.6172 41.2468 44.4508 41.2474C44.109 41.2476 43.7787 41.1178 43.5216 40.882C43.0415 40.463 42.6531 39.9409 42.3828 39.351C42.1125 38.7611 41.9665 38.1172 41.9549 37.4631V35.692C41.9623 35.1579 41.8669 34.6276 41.6742 34.1329C41.4816 33.6382 41.1958 33.1891 40.8338 32.8125C40.4794 32.4427 40.0578 32.1511 39.5938 31.955C39.1299 31.7588 38.633 31.6621 38.1327 31.6705H38.1266C35.991 31.6705 34.191 33.4445 34.191 35.7091V37.3028C34.1983 38.5419 33.7566 39.7379 32.9551 40.6499C32.6087 41.0383 32.2924 41.247 31.8602 41.247C31.6929 41.2471 31.5274 41.2121 31.3733 41.1441C31.2192 41.0761 31.0796 40.9765 30.9629 40.8511C30.8461 40.7258 30.7546 40.5772 30.6936 40.4143C30.6325 40.2513 30.6033 40.0772 30.6077 39.9022V36.6777C30.6173 34.7355 30.3563 32.8022 29.8331 30.9388C29.7775 30.7437 29.6632 30.5726 29.5071 30.451C29.351 30.3295 29.1616 30.264 28.9671 30.2642H28.9589C28.8178 30.2646 28.6788 30.2995 28.553 30.3662C28.4272 30.4329 28.3181 30.5296 28.2344 30.6484C28.1508 30.7673 28.0949 30.905 28.0713 31.0505C28.0477 31.1961 28.0571 31.3454 28.0986 31.4864C28.5824 33.17 28.8239 34.9196 28.8153 36.6777V39.9022C28.8111 40.5222 28.9792 41.1302 29.2993 41.652C29.6193 42.1738 30.0774 42.587 30.6178 42.8412C31.1582 43.0955 31.7575 43.1799 32.3429 43.084C32.9283 42.9882 33.4744 42.7164 33.9148 42.3016C34.5728 41.6991 35.0984 40.9547 35.4554 40.1195C35.8123 39.2843 35.9922 38.378 35.9827 37.4631V35.7091C35.9827 34.4767 36.9802 33.5455 38.1285 33.5455H38.1318C38.3971 33.5376 38.6612 33.5862 38.908 33.6882C39.1549 33.7903 39.3794 33.9437 39.5679 34.1392C39.7628 34.3422 39.916 34.5845 40.0184 34.8515C40.1207 35.1185 40.17 35.4045 40.1632 35.692V37.4631C40.1632 39.2924 40.9816 41.0558 42.361 42.3016C42.9341 42.8307 43.6721 43.1226 44.4364 43.1224C45.2478 43.1174 46.0242 42.7754 46.5948 42.1715C47.1654 41.5677 47.4835 40.7514 47.4792 39.9022Z" fill="#15A6A6"/>
</svg>
