<svg width="54" height="53" viewBox="0 0 54 53" fill="none" xmlns="http://www.w3.org/2000/svg">
<path d="M27 20.3448V25.5447C26.9971 26.5008 26.1929 27.2752 25.2 27.278H20.6999C19.707 27.2752 18.9028 26.5008 18.8999 25.5447V19.4779C18.8534 18.5456 19.2176 17.6371 19.9031 16.977C20.5887 16.3168 21.5317 15.9661 22.4999 16.0113C23.6946 16.0078 24.8412 16.4632 25.6858 17.2765C26.5308 18.0902 27.0037 19.1943 27 20.3448Z" fill="white"/>
<path d="M18.8999 20.2493V24.678C18.897 25.6341 18.0928 26.4085 17.0999 26.4113H13.5C12.5071 26.4085 11.7029 25.6341 11.7 24.678V19.4781C11.6584 18.6481 11.9827 17.84 12.5928 17.2524C13.203 16.6649 14.0422 16.3526 14.9041 16.3927C15.9653 16.3923 16.9834 16.799 17.7332 17.5226C18.4826 18.2462 18.9028 19.2273 18.8999 20.2493Z" fill="white"/>
<path d="M11.7 20.1541V23.8116C11.6971 24.7677 10.8929 25.5421 9.90006 25.5449H7.19989C6.207 25.5421 5.4028 24.7677 5.39992 23.8116V19.4781C5.36408 18.7533 5.64752 18.0475 6.18022 17.5341C6.71333 17.0211 7.44626 16.7482 8.19896 16.7827C10.132 16.7839 11.6992 18.2927 11.7 20.1541Z" fill="white"/>
<path d="M5.39993 20.2147V23.3607C5.41806 23.59 5.24173 23.7908 5.00401 23.8114H3.59996C2.60707 23.8082 1.80287 23.0342 1.79998 22.0781V19.764C1.7489 19.3181 1.89227 18.8717 2.19632 18.5317C2.49995 18.1917 2.93666 17.9882 3.4022 17.97C3.95138 17.9763 4.46925 18.2175 4.81491 18.6285C5.19806 19.0745 5.40529 19.6362 5.39993 20.2147Z" fill="white"/>
<path d="M53.0998 13.4112V19.478C53.0998 19.9565 52.6969 20.3448 52.2 20.3448V19.764C52.2511 19.3181 52.1077 18.8718 51.8037 18.5318C51.5001 18.1918 51.0633 17.9883 50.5978 17.97C50.0486 17.9764 49.5308 18.2176 49.1851 18.6286C48.8019 19.0745 48.5947 19.6363 48.6001 20.2147V19.478C48.6359 18.7532 48.3525 18.0474 47.8198 17.534C47.2867 17.0211 46.5537 16.7481 45.801 16.7826C43.868 16.7838 42.3008 18.2926 42.3 20.154V19.478C42.3416 18.648 42.0173 17.8399 41.4072 17.2523C40.797 16.6648 39.9578 16.3526 39.0959 16.3926C38.0347 16.3922 37.0166 16.7989 36.2668 17.5225C35.5174 18.2462 35.0972 19.2273 35.1001 20.2492V19.478C35.1466 18.5457 34.7824 17.6372 34.0969 16.977C33.4113 16.3169 32.4683 15.9662 31.5001 16.0114C30.3054 16.0078 29.1588 16.4633 28.3142 17.2766C27.4692 18.0902 26.9963 19.1943 27 20.3448C27.0037 19.1943 26.5307 18.0902 25.6858 17.2766C24.8412 16.4633 23.6946 16.0078 22.4999 16.0114C21.5317 15.9662 20.5886 16.3169 19.9031 16.977C19.2176 17.6372 18.8534 18.5457 18.8999 19.478V20.2492C18.9028 19.2273 18.4826 18.2462 17.7332 17.5225C16.9833 16.7989 15.9653 16.3922 14.904 16.3926C14.0422 16.3526 13.2029 16.6648 12.5928 17.2523C11.9826 17.8399 11.6584 18.648 11.7 19.478V20.154C11.6992 18.2926 10.132 16.7838 8.19895 16.7826C7.44625 16.7481 6.71333 17.0211 6.18021 17.534C5.64751 18.0474 5.36407 18.7532 5.39991 19.478V20.2147C5.40527 19.6363 5.19804 19.0745 4.81489 18.6286C4.46923 18.2176 3.95136 17.9764 3.40218 17.97C2.93664 17.9883 2.49993 18.1918 2.1963 18.5318C1.89225 18.8718 1.74888 19.3181 1.79996 19.764V20.3448C1.30311 20.3448 0.900185 19.9565 0.900185 19.478V13.4112C0.900185 10.5425 12.5821 8.2113 27 8.2113C41.4179 8.2113 53.0998 10.5425 53.0998 13.4112Z" fill="#15A6A6"/>
<path d="M35.1001 19.4779V25.5447C35.0972 26.5008 34.293 27.2752 33.3001 27.278H28.8C27.8071 27.2752 27.0029 26.5008 27 25.5447V20.3448C26.9963 19.1943 27.4693 18.0902 28.3142 17.2765C29.1588 16.4632 30.3054 16.0078 31.5002 16.0113C32.4683 15.9661 33.4114 16.3168 34.0969 16.977C34.7825 17.6371 35.1467 18.5456 35.1001 19.4779Z" fill="white"/>
<path d="M42.3 19.4781V24.678C42.2971 25.6341 41.4929 26.4085 40.5 26.4113H36.9001C35.9072 26.4085 35.103 25.6341 35.1001 24.678V20.2493C35.0972 19.2273 35.5174 18.2462 36.2668 17.5226C37.0166 16.799 38.0347 16.3923 39.0959 16.3927C39.9578 16.3526 40.797 16.6649 41.4072 17.2524C42.0174 17.84 42.3416 18.6481 42.3 19.4781Z" fill="white"/>
<path d="M48.6001 19.4781V23.8116C48.5972 24.7677 47.793 25.5421 46.8001 25.5449H44.0999C43.1071 25.5421 42.3029 24.7677 42.3 23.8116V20.1541C42.3008 18.2927 43.868 16.7839 45.801 16.7827C46.5537 16.7482 47.2867 17.0211 47.8198 17.5341C48.3525 18.0475 48.6359 18.7533 48.6001 19.4781Z" fill="white"/>
<path d="M52.2 19.764V22.0781C52.1971 23.0342 51.3929 23.8082 50.4001 23.8114H48.996C48.7583 23.7908 48.582 23.59 48.6001 23.3607V20.2147C48.5947 19.6362 48.802 19.0745 49.1851 18.6285C49.5308 18.2175 50.0486 17.9763 50.5978 17.97C51.0634 17.9882 51.5001 18.1917 51.8037 18.5317C52.1077 18.8717 52.2511 19.3181 52.2 19.764Z" fill="white"/>
<path d="M27 21.2113V25.5448C26.9971 26.5009 26.1929 27.2753 25.2 27.2781H20.6999C19.707 27.2753 18.9028 26.5009 18.8999 25.5448V20.2493C18.8698 18.677 19.9962 17.3028 21.591 16.9647H21.6091C21.9017 16.9032 22.2003 16.8743 22.4999 16.8779C23.6946 16.8747 24.8412 17.3301 25.6858 18.1434C26.5307 18.9567 27.0037 20.0612 27 21.2113Z" fill="white"/>
<path d="M18.8999 21.1161V24.678C18.897 25.6341 18.0928 26.4085 17.0999 26.4113H13.5C12.5071 26.4085 11.7029 25.6341 11.7 24.678V20.3449C11.6395 18.9544 12.5957 17.7118 13.9948 17.3635C14.2922 17.2909 14.5975 17.256 14.904 17.2595C15.9653 17.2591 16.9833 17.6658 17.7332 18.3894C18.4826 19.1126 18.9028 20.0938 18.8999 21.1161Z" fill="white"/>
<path d="M11.7 21.0205V23.8114C11.6971 24.7676 10.8929 25.542 9.90006 25.5448H7.19989C6.207 25.542 5.4028 24.7676 5.39992 23.8114V20.3448C5.34883 19.1654 6.13408 18.1021 7.30783 17.7621C7.59746 17.6816 7.8978 17.6439 8.19896 17.6495C10.132 17.6503 11.6992 19.159 11.7 21.0205Z" fill="white"/>
<path d="M5.39993 21.0812V23.3608C5.41806 23.5901 5.24173 23.7909 5.00401 23.8115H3.59996C2.60707 23.8083 1.80287 23.0343 1.79998 22.0782V20.6306C1.7489 20.185 1.89227 19.7387 2.19632 19.3983C2.49995 19.0583 2.93666 18.8548 3.4022 18.8365C3.95138 18.8429 4.46925 19.0845 4.81491 19.4955C5.19806 19.941 5.40529 20.5028 5.39993 21.0812Z" fill="white"/>
<path d="M35.1001 20.2493V25.5448C35.0972 26.5009 34.293 27.2754 33.3001 27.2781H28.8C27.8071 27.2754 27.0029 26.5009 27 25.5448V21.2113C26.9934 19.1527 28.4963 17.3758 30.5909 16.9648H30.609C30.9019 16.9049 31.2006 16.8759 31.5002 16.8779C32.4523 16.8295 33.3821 17.1659 34.0656 17.8058C34.7491 18.4458 35.124 19.3316 35.1001 20.2493Z" fill="white"/>
<path d="M42.3 20.3449V24.678C42.2971 25.6341 41.4929 26.4085 40.5 26.4113H36.9001C35.9072 26.4085 35.103 25.6341 35.1001 24.678V21.1161C35.1005 20.093 35.5211 19.1115 36.2701 18.3859C36.7995 17.8733 37.4715 17.5182 38.2048 17.3635C38.4965 17.2937 38.7956 17.2587 39.0959 17.2595C39.9578 17.2195 40.797 17.5313 41.4072 18.1189C42.0173 18.7064 42.3416 19.5149 42.3 20.3449Z" fill="white"/>
<path d="M48.6001 20.3449V23.8115C48.5972 24.7676 47.793 25.542 46.8001 25.5448H44.0999C43.1071 25.542 42.3029 24.7676 42.3 23.8115V21.0205C42.2987 20.1263 42.6683 19.2686 43.3258 18.6374C43.7572 18.2161 44.2981 17.9137 44.8922 17.7622C45.1892 17.6888 45.4945 17.6511 45.801 17.6495C46.5537 17.615 47.2867 17.8876 47.8198 18.4009C48.3525 18.9139 48.6359 19.6197 48.6001 20.3449Z" fill="white"/>
<path d="M52.2 20.6306V22.0782C52.1971 23.0343 51.3929 23.8083 50.4001 23.8115H48.996C48.7583 23.7909 48.582 23.5901 48.6001 23.3608V21.0812C48.5947 20.5028 48.802 19.941 49.1851 19.4955C49.5308 19.0845 50.0486 18.8429 50.5978 18.8365C51.0634 18.8548 51.5001 19.0583 51.8037 19.3983C52.1077 19.7387 52.2511 20.185 52.2 20.6306Z" fill="white"/>
<path d="M27 33.5527V36.8979C27.0008 38.0084 26.5431 39.0736 25.7278 39.8587C24.9121 40.6438 23.8063 41.0846 22.6531 41.0838H22.4999C19.8001 41.0838 18.8999 39.9575 18.8999 38.5705V33.5527C18.8999 32.1646 20.0687 31.0394 21.5099 31.0394H24.3901C25.8316 31.0394 27 32.1646 27 33.5527Z" fill="white"/>
<path d="M18.8999 32.686V36.1268C18.9003 37.1131 18.4937 38.0589 17.7694 38.756C17.0451 39.4534 16.063 39.845 15.0392 39.845H14.904C14.0582 39.9005 13.2277 39.6093 12.6171 39.0428C12.007 38.4767 11.6737 37.688 11.7 36.8723V32.686C11.6955 32.0358 11.9575 31.4097 12.4288 30.944C12.9203 30.4504 13.6001 30.1719 14.31 30.1727H16.29C17.7315 30.1727 18.8999 31.2979 18.8999 32.686Z" fill="white"/>
<path d="M11.7 35.8494V36.7159C11.0668 37.3875 10.167 37.7688 9.2248 37.7648H9.09915C8.36004 37.812 7.63453 37.5569 7.10142 37.0618C6.56831 36.5667 6.27745 35.8776 6.30011 35.1647V34.2982C6.27745 35.0107 6.56831 35.6999 7.10142 36.195C7.63453 36.6901 8.36004 36.9456 9.09915 36.898H9.2248C10.167 36.9019 11.0668 36.5211 11.7 35.8494Z" fill="white"/>
<path d="M6.30011 31.1954V32.2527C6.3067 32.8315 6.09947 33.3937 5.71509 33.8388C5.36902 34.2498 4.85115 34.4911 4.30197 34.4974C3.76474 34.518 3.26047 34.2471 2.9968 33.7952C2.7974 33.4639 2.69481 33.0866 2.70017 32.7034V31.1954C2.70058 30.2719 3.478 29.5232 4.4371 29.5228H4.56317C5.52228 29.5232 6.2997 30.2719 6.30011 31.1954Z" fill="white"/>
<path d="M35.1001 33.5527V38.5705C35.1001 39.9575 34.1999 41.0838 31.5001 41.0838H31.3469C30.1937 41.0846 29.088 40.6438 28.2722 39.8587C27.4569 39.0736 26.9992 38.0084 27 36.8979V33.5527C27 32.1646 28.1684 31.0394 29.6099 31.0394H32.4901C33.9313 31.0394 35.1001 32.1646 35.1001 33.5527Z" fill="white"/>
<path d="M42.3 32.686V36.8723C42.3263 37.688 41.993 38.4767 41.3829 39.0428C40.7723 39.6093 39.9418 39.9005 39.0959 39.845H38.9608C37.937 39.845 36.9549 39.4534 36.2306 38.756C35.5063 38.0589 35.0997 37.1131 35.1001 36.1268V32.686C35.1001 31.2979 36.2685 30.1727 37.71 30.1727H39.69C40.3999 30.1719 41.0797 30.4504 41.5712 30.944C42.0425 31.4097 42.3045 32.0358 42.3 32.686Z" fill="white"/>
<path d="M47.6999 34.2982V35.1647C47.7226 35.8776 47.4317 36.5667 46.8986 37.0618C46.3655 37.5569 45.64 37.812 44.9009 37.7648H44.7752C43.833 37.7688 42.9332 37.3875 42.3 36.7159V35.8494C42.9332 36.5211 43.833 36.9019 44.7752 36.898H44.9009C45.64 36.9456 46.3655 36.6901 46.8986 36.195C47.4317 35.6999 47.7226 35.0107 47.6999 34.2982Z" fill="white"/>
<path d="M51.2998 31.1954V32.7034C51.3052 33.0866 51.2026 33.4639 51.0032 33.7952C50.7395 34.2471 50.2353 34.518 49.698 34.4974C49.1488 34.4911 48.631 34.2498 48.2849 33.8388C47.9005 33.3937 47.6933 32.8315 47.6999 32.2527V31.1954C47.7003 30.2719 48.4777 29.5232 49.4368 29.5228H49.5629C50.522 29.5232 51.2994 30.2719 51.2998 31.1954Z" fill="white"/>
<path d="M27 33.5527V36.0315C27.0008 37.1415 26.5431 38.2067 25.7278 38.9919C24.9121 39.7774 23.8063 40.2182 22.6531 40.2174H22.4999C22.1777 40.2205 21.8559 40.2003 21.5371 40.1567C19.5838 39.9226 18.8999 38.9086 18.8999 37.7041V33.5527C18.8999 32.1646 20.0687 31.0394 21.5099 31.0394H24.3901C25.8316 31.0394 27 32.1646 27 33.5527Z" fill="white"/>
<path d="M25.2 21.2114V25.5449C25.1972 26.501 24.3929 27.2754 23.4001 27.2782H20.6999C19.707 27.2754 18.9028 26.501 18.8999 25.5449V20.2494C18.8698 18.6771 19.9962 17.3029 21.591 16.9648H21.6091C23.7037 17.3759 25.2066 19.1528 25.2 21.2114Z" fill="white"/>
<path d="M25.2 33.5527V36.0315C25.2021 38.0881 23.6473 39.8393 21.5371 40.1567C19.5838 39.9226 18.8999 38.9086 18.8999 37.7041V33.5527C18.8999 32.1646 20.0687 31.0394 21.5099 31.0394H22.5901C24.0316 31.0394 25.2 32.1646 25.2 33.5527Z" fill="white"/>
<path d="M18.8999 32.6859V35.2599C18.9003 36.2461 18.4937 37.1919 17.7694 37.8894C17.0452 38.5864 16.063 38.9784 15.0392 38.978H14.9041C14.6165 38.982 14.3293 38.953 14.0492 38.8915C12.6418 38.6067 11.651 37.3891 11.7 36.0053V32.6859C11.6955 32.0356 11.9575 31.4096 12.4288 30.9438C12.9203 30.4503 13.6001 30.1718 14.31 30.1726H16.29C17.7315 30.1726 18.8999 31.2977 18.8999 32.6859Z" fill="white"/>
<path d="M17.0999 21.1161V24.6779C17.0971 25.634 16.2929 26.4084 15.3 26.4112H13.5C12.5071 26.4084 11.7029 25.634 11.7 24.6779V20.3448C11.6395 18.9543 12.5957 17.7117 13.9948 17.3634C14.7285 17.5181 15.4005 17.8732 15.9299 18.3858C16.6789 19.1114 17.0995 20.0929 17.0999 21.1161Z" fill="white"/>
<path d="M17.0999 32.6859V35.2599C17.1016 37.0126 15.829 38.5269 14.0492 38.8915C12.6418 38.6067 11.651 37.3891 11.7 36.0053V32.6859C11.6955 32.0356 11.9575 31.4096 12.4288 30.9438C12.9203 30.4503 13.6001 30.1718 14.31 30.1726H14.49C15.9316 30.1726 17.0999 31.2977 17.0999 32.6859Z" fill="white"/>
<path d="M12.4288 30.944C11.9575 31.4097 11.6955 32.0358 11.7 32.686V35.8495C11.0668 36.5212 10.167 36.902 9.22481 36.8981H9.09916C8.81324 36.9016 8.52855 36.8667 8.25293 36.7941C7.07424 36.5065 6.2618 35.4683 6.30011 34.2983V31.8196C6.30094 30.5659 7.26087 29.505 8.54998 29.3321C8.66904 29.3146 8.78934 29.3059 8.91005 29.3063H9.98987C10.8542 29.3067 11.6613 29.7229 12.1409 30.4155C12.2632 30.5774 12.36 30.7555 12.4288 30.944Z" fill="white"/>
<path d="M9.90006 21.0204V23.8114C9.89717 24.7675 9.09297 25.5419 8.10009 25.5447H7.19989C6.207 25.5419 5.4028 24.7675 5.39992 23.8114V20.3448C5.34883 19.1653 6.13408 18.1021 7.30783 17.7621C7.90192 17.9136 8.44286 18.2159 8.8738 18.6373C9.53174 19.2685 9.90088 20.1262 9.90006 21.0204Z" fill="white"/>
<path d="M11.0252 30.3832C10.4249 31.0287 10.034 31.8293 9.90005 32.6858V37.2447C9.46788 37.7041 8.81982 37.2133 8.17465 37.3609C6.73476 37.0229 6.30011 35.2166 6.30011 34.2982V31.8194C6.30093 30.5657 7.26086 29.5049 8.54997 29.3319C9.28784 29.4271 9.87946 28.9419 10.2754 29.5227C10.5473 29.7909 10.7978 30.0785 11.0252 30.3832Z" fill="white"/>
<path d="M6.30011 31.1954V31.3859C6.3067 31.9647 6.09947 32.5273 5.71509 32.972C5.36902 33.383 4.85115 33.6246 4.30197 33.6306C3.76474 33.6516 3.26047 33.3802 2.9968 32.9287C2.7974 32.5971 2.69481 32.2198 2.70017 31.8365V31.1954C2.70058 30.2719 3.478 29.5232 4.4371 29.5228H4.56317C5.52228 29.5232 6.2997 30.2719 6.30011 31.1954Z" fill="white"/>
<path d="M35.1001 33.5527V37.7041C35.1001 39.0906 34.1999 40.2174 31.5001 40.2174H31.3469C31.1174 40.2189 30.8883 40.1987 30.663 40.1567C28.5528 39.8393 26.9979 38.0881 27 36.0315V33.5527C27 32.1646 28.1684 31.0394 29.6099 31.0394H32.4901C33.9313 31.0394 35.1001 32.1646 35.1001 33.5527Z" fill="white"/>
<path d="M33.3001 20.2494V25.5449C33.2972 26.501 32.493 27.2754 31.5001 27.2782H28.8C27.8071 27.2754 27.0029 26.501 27 25.5449V21.2114C26.9934 19.1528 28.4963 17.3759 30.5909 16.9648H30.609C32.2038 17.3029 33.3302 18.6771 33.3001 20.2494Z" fill="white"/>
<path d="M33.3001 33.5527V37.7041C33.3001 38.9086 32.6158 39.9226 30.663 40.1567C28.5528 39.8393 26.9979 38.0881 27 36.0315V33.5527C27 32.1646 28.1684 31.0394 29.6099 31.0394H30.6902C32.1313 31.0394 33.3001 32.1646 33.3001 33.5527Z" fill="white"/>
<path d="M42.3 32.6859V36.0053C42.3263 36.8214 41.993 37.6097 41.3829 38.1762C40.7723 38.7423 39.9418 39.0335 39.0959 38.978H38.9608C38.6885 38.98 38.4166 38.951 38.1509 38.8915C36.3711 38.5269 35.0984 37.0126 35.1001 35.2599V32.6859C35.1001 31.2977 36.2685 30.1726 37.71 30.1726H39.69C40.3999 30.1718 41.0797 30.4503 41.5712 30.9438C42.0425 31.4096 42.3045 32.0356 42.3 32.6859Z" fill="white"/>
<path d="M40.5 20.3448V24.6779C40.4971 25.634 39.6929 26.4084 38.7 26.4112H36.9001C35.9072 26.4084 35.103 25.634 35.1001 24.6779V21.1161C35.1005 20.0929 35.5211 19.1114 36.2701 18.3858C36.7995 17.8732 37.4715 17.5181 38.2048 17.3634C39.6043 17.7117 40.5606 18.9543 40.5 20.3448Z" fill="white"/>
<path d="M40.5 32.6859V36.0053C40.549 37.3891 39.5582 38.6067 38.1509 38.8915C36.3711 38.5269 35.0984 37.0126 35.1001 35.2599V32.6859C35.1001 31.2977 36.2685 30.1726 37.71 30.1726H37.8901C38.5999 30.1718 39.2797 30.4503 39.7712 30.9438C40.2425 31.4096 40.5045 32.0356 40.5 32.6859Z" fill="white"/>
<path d="M47.6999 31.8194V34.2982C47.7226 35.0107 47.4317 35.6998 46.8986 36.1949C46.3655 36.6901 45.64 36.9456 44.9009 36.8979H44.7752C44.4955 36.8991 44.217 36.8642 43.9471 36.794C43.3114 36.6472 42.7367 36.3179 42.3 35.8494V32.6859C42.3045 32.0356 42.0425 31.4096 41.5712 30.9438C41.64 30.7554 41.7368 30.5773 41.8591 30.4154C42.2662 29.8227 42.9188 29.4279 43.6501 29.3319C43.7691 29.3149 43.8894 29.3062 44.0101 29.3062H45.09C45.7821 29.3062 46.4462 29.5708 46.9357 30.0421C47.4251 30.5134 47.6999 31.1529 47.6999 31.8194Z" fill="white"/>
<path d="M46.8001 20.3448V23.8114C46.7972 24.7675 45.993 25.5419 45.0001 25.5447H44.0999C43.1071 25.5419 42.3029 24.7675 42.3 23.8114V21.0204C42.2987 20.1262 42.6683 19.2685 43.3258 18.6373C43.7572 18.2159 44.2981 17.9136 44.8922 17.7621C46.066 18.1021 46.8512 19.1653 46.8001 20.3448Z" fill="white"/>
<path d="M45.8999 31.8194V34.2982C45.9382 35.4681 45.1258 36.5064 43.9471 36.794C43.3114 36.6472 42.7367 36.3179 42.3 35.8494V32.6859C42.3045 32.0356 42.0425 31.4096 41.5712 30.9438C41.64 30.7554 41.7368 30.5772 41.8591 30.4154C42.2662 29.8227 42.9188 29.4279 43.6501 29.3319C44.9392 29.5049 45.8991 30.5657 45.8999 31.8194Z" fill="white"/>
<path d="M51.2998 31.1954V31.8365C51.3052 32.2198 51.2026 32.5971 51.0032 32.9287C50.7395 33.3802 50.2353 33.6516 49.698 33.6306C49.1488 33.6246 48.631 33.383 48.2849 32.972C47.9005 32.5273 47.6933 31.9647 47.6999 31.3859V31.1954C47.7003 30.2719 48.4777 29.5232 49.4368 29.5228H49.5629C50.522 29.5232 51.2994 30.2719 51.2998 31.1954Z" fill="white"/>
<path d="M52.2 34.6275V41.3267C52.2 44.0915 40.9231 46.3449 27 46.3449C13.0769 46.3449 1.79996 44.0915 1.79996 41.3267V34.6275C1.80038 34.4053 1.89307 34.1927 2.05663 34.0364C2.2206 33.8805 2.44225 33.7936 2.67297 33.7952H2.99679C3.26046 34.247 3.76473 34.518 4.30196 34.4974C4.85114 34.491 5.36901 34.2498 5.71508 33.8388C6.09946 33.3937 6.30669 32.8315 6.3001 32.2527V35.1647C6.27744 35.8776 6.56831 36.5667 7.10142 37.0618C7.63453 37.5569 8.36004 37.812 9.09914 37.7648H9.2248C10.167 37.7688 11.0668 37.3875 11.7 36.7159V36.8722C11.6737 37.6879 12.007 38.4766 12.6171 39.0427C13.2277 39.6092 14.0582 39.9004 14.904 39.8449H15.0392C16.063 39.8449 17.0451 39.4533 17.7694 38.7559C18.4937 38.0588 18.9003 37.113 18.8999 36.1267V38.5706C18.8999 39.9576 19.8001 41.0839 22.4999 41.0839H22.6531C23.8063 41.0847 24.912 40.6439 25.7278 39.8588C26.5431 39.0736 27.0008 38.0084 27 36.898C26.9992 38.0084 27.4569 39.0736 28.2722 39.8588C29.0879 40.6439 30.1937 41.0847 31.3469 41.0839H31.5001C34.1999 41.0839 35.1001 39.9576 35.1001 38.5706V36.1267C35.0997 37.113 35.5063 38.0588 36.2306 38.7559C36.9548 39.4533 37.937 39.8449 38.9608 39.8449H39.0959C39.9417 39.9004 40.7723 39.6092 41.3829 39.0427C41.993 38.4766 42.3263 37.6879 42.3 36.8722V36.7159C42.9332 37.3875 43.833 37.7688 44.7752 37.7648H44.9008C45.6399 37.812 46.3655 37.5569 46.8986 37.0618C47.4317 36.5667 47.7225 35.8776 47.6999 35.1647V32.2527C47.6933 32.8315 47.9005 33.3937 48.2849 33.8388C48.631 34.2498 49.1488 34.491 49.698 34.4974C50.2353 34.518 50.7395 34.247 51.0032 33.7952H51.327C51.5577 33.7936 51.7794 33.8805 51.9434 34.0364C52.1069 34.1927 52.1996 34.4053 52.2 34.6275Z" fill="#15A6A6"/>
<path d="M49.9502 34.2982H51.8247V42.6613H49.9502V34.2982Z" fill="#02A3A3"/>
<path d="M50.8499 10.8979H52.7249V18.235H50.8499V10.8979Z" fill="#02A3A3"/>
<path d="M25.2 28.1446H20.6999C19.2089 28.1446 18.0001 26.9806 18.0001 25.5448V19.478C17.9462 18.3136 18.4031 17.181 19.2587 16.357C20.1149 15.533 21.2907 15.093 22.4999 15.1446C25.481 15.1478 27.8969 17.4742 27.9002 20.3449V25.5448C27.9002 26.9806 26.691 28.1446 25.2 28.1446ZM22.4999 16.8779C21.7735 16.8442 21.0665 17.1072 20.5524 17.6023C20.0382 18.0974 19.7651 18.7786 19.8001 19.478V25.5448C19.8001 26.0233 20.203 26.4113 20.6999 26.4113H25.2C25.6969 26.4113 26.0998 26.0233 26.0998 25.5448V20.3449C26.0998 18.4303 24.4881 16.8779 22.4999 16.8779Z" fill="black"/>
<path d="M17.0999 27.2782H13.5C12.009 27.2782 10.7998 26.1142 10.7998 24.678V19.4781C10.7512 18.4172 11.1673 17.3853 11.9472 16.6343C12.7271 15.8833 13.7987 15.4826 14.9003 15.5294C17.6055 15.533 19.7972 17.644 19.8001 20.2485V24.678C19.8001 26.1142 18.5913 27.2782 17.0999 27.2782ZM14.9003 17.2627C14.2815 17.2342 13.6788 17.4583 13.2409 17.8801C12.8029 18.3018 12.5701 18.8822 12.5998 19.4781V24.678C12.5998 25.1568 13.0031 25.5448 13.5 25.5448H17.0999C17.5972 25.5448 18.0001 25.1568 18.0001 24.678V20.2485C17.9985 18.6005 16.6117 17.2647 14.9003 17.2627Z" fill="black"/>
<path d="M9.90005 26.4113H7.19988C5.7089 26.4113 4.50013 25.2473 4.50013 23.8115V19.478C4.46717 18.5239 4.8462 17.5991 5.5474 16.9239C6.2486 16.2486 7.20895 15.8833 8.19978 15.915C10.6289 15.9174 12.5973 17.8133 12.5998 20.1525V23.8115C12.5998 25.2473 11.391 26.4113 9.90005 26.4113ZM8.19978 17.6483C7.68644 17.6166 7.18382 17.7991 6.82003 18.1494C6.45625 18.4997 6.26673 18.9837 6.3001 19.478V23.8115C6.3001 24.2899 6.70303 24.6779 7.19988 24.6779H9.90005C10.3969 24.6779 10.7998 24.2899 10.7998 23.8115V20.1525C10.7986 18.7703 9.63514 17.6499 8.19978 17.6483Z" fill="black"/>
<path d="M5.00028 24.6779H3.59994C2.10896 24.6779 0.900184 23.5139 0.900184 22.0782V19.7664C0.844978 19.0896 1.08187 18.4203 1.55483 17.9165C2.02779 17.4127 2.69521 17.1183 3.40012 17.1024C5.09092 17.1976 6.38538 18.5878 6.3001 20.2163V23.3616C6.31782 24.0702 5.7365 24.6593 5.00028 24.6779ZM3.40012 18.8357C2.73435 18.8357 2.70016 19.6113 2.70016 19.7664V22.0782C2.70016 22.5566 3.10308 22.9446 3.59994 22.9446H4.50013V20.2163C4.56934 19.5486 4.08773 18.944 3.40012 18.8357Z" fill="black"/>
<path d="M52.2 21.2114C51.7028 21.2114 51.2998 20.8234 51.2998 20.3449C51.2998 19.8661 51.7028 19.4781 52.2 19.4781V12.5448C52.2 12.066 52.603 11.678 53.0998 11.678C53.5971 11.678 54 12.066 54 12.5448V19.4781C54 20.4354 53.1942 21.2114 52.2 21.2114Z" fill="black"/>
<path d="M1.79997 21.2114C0.805847 21.2114 0 20.4354 0 19.4781V12.5448C0 12.066 0.402924 11.678 0.900192 11.678C1.39705 11.678 1.79997 12.066 1.79997 12.5448V19.4781C2.29724 19.4781 2.70016 19.8661 2.70016 20.3449C2.70016 20.8234 2.29724 21.2114 1.79997 21.2114Z" fill="black"/>
<path d="M33.3001 28.1446H28.8C27.309 28.1446 26.0998 26.9806 26.0998 25.5448V20.3449C26.1031 17.4742 28.519 15.1478 31.5001 15.1446C32.7093 15.093 33.8851 15.533 34.7412 16.357C35.5969 17.181 36.0538 18.3136 35.9999 19.478V25.5448C35.9999 26.9806 34.7911 28.1446 33.3001 28.1446ZM31.5001 16.8779C29.5119 16.8779 27.9002 18.4303 27.9002 20.3449V25.5448C27.9002 26.0233 28.3031 26.4113 28.8 26.4113H33.3001C33.797 26.4113 34.1999 26.0233 34.1999 25.5448V19.478C34.2349 18.7786 33.9618 18.0974 33.4476 17.6023C32.9334 17.1072 32.2265 16.8442 31.5001 16.8779Z" fill="black"/>
<path d="M40.5 27.2782H36.9001C35.4087 27.2782 34.1999 26.1142 34.1999 24.678V20.2485C34.2028 17.644 36.3945 15.533 39.0997 15.5294C40.2013 15.4826 41.2729 15.8833 42.0528 16.6343C42.8327 17.3853 43.2488 18.4172 43.2002 19.4781V24.678C43.2002 26.1142 41.991 27.2782 40.5 27.2782ZM39.0997 17.2627C37.3883 17.2647 36.0015 18.6005 35.9999 20.2485V24.678C35.9999 25.1568 36.4028 25.5448 36.9001 25.5448H40.5C40.9969 25.5448 41.4002 25.1568 41.4002 24.678V19.4781C41.4299 18.8822 41.1971 18.3018 40.7591 17.8801C40.3212 17.4583 39.7185 17.2342 39.0997 17.2627Z" fill="black"/>
<path d="M46.8001 26.4113H44.0999C42.609 26.4113 41.4002 25.2473 41.4002 23.8115V20.1525C41.4027 17.8133 43.3711 15.9174 45.8002 15.915C46.791 15.8833 47.7514 16.2486 48.4526 16.9239C49.1538 17.5991 49.5328 18.5239 49.4999 19.478V23.8115C49.4999 25.2473 48.2911 26.4113 46.8001 26.4113ZM45.8002 17.6483C44.3649 17.6499 43.2014 18.7703 43.2002 20.1525V23.8115C43.2002 24.2899 43.6031 24.6779 44.0999 24.6779H46.8001C47.297 24.6779 47.6999 24.2899 47.6999 23.8115V19.478C47.7333 18.9837 47.5437 18.4997 47.18 18.1494C46.8162 17.7991 46.3136 17.6166 45.8002 17.6483Z" fill="black"/>
<path d="M50.4001 24.6779H48.9997C48.2635 24.6593 47.6822 24.0702 47.6999 23.3616V20.2163C47.615 18.5878 48.9099 17.1976 50.6007 17.1024C51.3056 17.1183 51.973 17.4127 52.4456 17.9165C52.9185 18.4207 53.155 19.0896 53.0998 19.7664V22.0782C53.0998 23.5139 51.891 24.6779 50.4001 24.6779ZM49.4999 22.9446H50.4001C50.8969 22.9446 51.2998 22.5566 51.2998 22.0782V19.7664C51.2998 19.6113 51.2669 18.8357 50.6007 18.8357C49.9127 18.9436 49.4307 19.5486 49.4999 20.2163V22.9446Z" fill="black"/>
<path d="M53.0998 13.4113C52.603 13.4113 52.2 13.0233 52.2 12.5448C52.2 11.0714 43.3052 8.21133 27 8.21133C10.6948 8.21133 1.79997 11.0714 1.79997 12.5448C1.79997 13.0233 1.39705 13.4113 0.900192 13.4113C0.402924 13.4113 0 13.0233 0 12.5448C0 7.74597 17.6615 6.47803 27 6.47803C36.3385 6.47803 54 7.74597 54 12.5448C54 13.0233 53.5971 13.4113 53.0998 13.4113Z" fill="black"/>
<path d="M22.6548 41.9515H22.4999C18.4385 41.9515 18.0001 39.5898 18.0001 38.5714V33.5536C18.0001 31.687 19.5715 30.1735 21.5099 30.1735H24.3901C26.3285 30.1735 27.9002 31.687 27.9002 33.5536V36.898C27.8985 39.6874 25.5514 41.9488 22.6548 41.9515ZM21.5099 31.9103C20.5656 31.9103 19.8001 32.6475 19.8001 33.5572V38.5786C19.8001 39.0276 19.8001 40.2254 22.4999 40.2254H22.6548C23.5698 40.2242 24.4473 39.8731 25.0933 39.249C25.7397 38.625 26.1019 37.7791 26.0998 36.898V33.5536C26.0998 32.6443 25.3343 31.9068 24.3901 31.9068L21.5099 31.9103Z" fill="black"/>
<path d="M15.038 40.7114H14.9004C13.8139 40.7744 12.7502 40.3936 11.9699 39.6628C11.1896 38.932 10.7648 37.9188 10.7998 36.871V32.6867C10.7998 30.8201 12.3716 29.307 14.31 29.307H16.29C18.2284 29.307 19.8001 30.8201 19.8001 32.6867V36.1276C19.7948 38.6575 17.6656 40.707 15.038 40.7114ZM14.31 31.0439C13.3657 31.0439 12.5998 31.781 12.5998 32.6903V36.8746C12.5821 37.4574 12.8227 38.02 13.2619 38.4214C13.7011 38.8229 14.2968 39.0253 14.9004 38.9781H15.038C16.6715 38.9737 17.9944 37.7002 18.0001 36.1276V32.6867C18.0001 31.7774 17.2343 31.0403 16.29 31.0403L14.31 31.0439Z" fill="black"/>
<path d="M9.22481 38.6356H9.09916C8.1211 38.6805 7.16735 38.3325 6.46615 37.6744C5.76494 37.0162 5.3785 36.1073 5.39992 35.1647V31.8195C5.39992 29.9525 6.97166 28.4393 8.91006 28.4393H9.98987C11.4574 28.4401 12.7687 29.3217 13.2751 30.6475C13.3851 30.9387 13.3253 31.264 13.1185 31.5013C12.9117 31.7385 12.5891 31.8516 12.2727 31.7976C11.9559 31.7441 11.693 31.5314 11.583 31.2402C11.3371 30.5979 10.701 30.1718 9.98987 30.1726H8.91006C7.96578 30.1726 7.1999 30.9098 7.1999 31.8195V35.1647C7.17683 35.6479 7.37293 36.1168 7.73754 36.4497C8.10215 36.7825 8.599 36.946 9.09916 36.898H9.22481C9.91366 36.9039 10.5716 36.6258 11.033 36.1335C11.2493 35.9042 11.576 35.803 11.8904 35.8685C12.2047 35.9343 12.4589 36.1561 12.5574 36.4513C12.6554 36.746 12.5829 37.069 12.367 37.2983C11.562 38.1501 10.4212 38.6356 9.22481 38.6356Z" fill="black"/>
<path d="M4.30032 35.3658C3.59499 35.3499 2.92757 35.0556 2.45461 34.5513C1.98165 34.0471 1.74476 33.3782 1.79996 32.7006V31.1962C1.80202 29.7942 2.98196 28.6583 4.43792 28.6567H4.56193C6.01789 28.6583 7.19782 29.7942 7.19988 31.1962V32.2519C7.28558 33.8805 5.9907 35.2706 4.30032 35.3658ZM4.43792 30.39C3.97567 30.39 3.60035 30.7511 3.59994 31.1962V32.7006C3.59994 32.8569 3.63413 33.6325 4.30032 33.6325C4.98792 33.5242 5.46954 32.9196 5.39991 32.2519V31.1962C5.3995 30.7511 5.02459 30.39 4.56193 30.39H4.43792Z" fill="black"/>
<path d="M31.5001 41.9515H31.3452C28.4485 41.9488 26.1015 39.6874 26.0998 36.898V33.5536C26.0998 31.687 27.6715 30.1735 29.6099 30.1735H32.4901C34.4285 30.1735 35.9999 31.687 35.9999 33.5536V38.575C35.9999 39.5898 35.5615 41.9515 31.5001 41.9515ZM29.6099 31.9103C28.6657 31.9103 27.9002 32.6475 27.9002 33.5572V36.898C27.9027 38.7293 29.4435 40.2131 31.3452 40.2147H31.5001C34.1999 40.2147 34.1999 39.0205 34.1999 38.5682V33.5536C34.1999 32.6443 33.4344 31.9068 32.4901 31.9068L29.6099 31.9103Z" fill="black"/>
<path d="M39.0997 40.7114H38.9621C36.3344 40.707 34.2052 38.6575 34.1999 36.1276V32.6867C34.1999 30.8201 35.7716 29.307 37.71 29.307H39.69C41.6284 29.307 43.2002 30.8201 43.2002 32.6867V36.871C43.2352 37.9188 42.8104 38.932 42.0301 39.6628C41.2498 40.3936 40.1861 40.7744 39.0997 40.7114ZM37.71 31.0439C36.7657 31.0439 35.9999 31.781 35.9999 32.6903V36.1311C36.0073 37.7026 37.3302 38.9737 38.9621 38.9781H39.0997C39.7036 39.0257 40.3002 38.8225 40.7394 38.4203C41.1785 38.018 41.4187 37.4546 41.4002 36.871V32.6867C41.4002 31.7774 40.6343 31.0403 39.69 31.0403L37.71 31.0439Z" fill="black"/>
<path d="M44.9008 38.6357H44.7752C43.5792 38.6373 42.4384 38.1529 41.633 37.3019C41.3153 36.9456 41.3499 36.41 41.7117 36.0946C42.0734 35.7792 42.63 35.7991 42.967 36.1387C43.4288 36.6302 44.0868 36.9083 44.7752 36.9024H44.9008C45.401 36.9504 45.8979 36.7869 46.2625 36.4541C46.6271 36.1212 46.8232 35.6523 46.8001 35.1691V31.8239C46.8001 30.9142 46.0342 30.177 45.0899 30.177H44.0101C43.299 30.1762 42.6629 30.6023 42.417 31.2446C42.2468 31.6949 41.7306 31.9266 41.263 31.7632C40.7958 31.5993 40.5552 31.1018 40.7249 30.6519C41.2313 29.326 42.5426 28.4445 44.0101 28.4437H45.0899C47.0283 28.4437 48.6001 29.9568 48.6001 31.8239V35.1647C48.6215 36.1073 48.2351 37.0162 47.5339 37.6744C46.8327 38.3326 45.8789 38.6805 44.9008 38.6357Z" fill="black"/>
<path d="M49.7005 35.3658C48.0101 35.2706 46.7152 33.8805 46.8001 32.2519V31.1962C46.8014 29.7942 47.9817 28.6579 49.4381 28.6567H49.5621C51.018 28.6579 52.1984 29.7942 52.2 31.1962V32.7006C52.2552 33.3778 52.0184 34.0471 51.5458 34.5509C51.0733 35.0552 50.4058 35.3495 49.7005 35.3658ZM49.4381 30.39C48.9758 30.3908 48.6009 30.7511 48.6001 31.1962V32.2519C48.5305 32.9196 49.0125 33.5246 49.7005 33.6325C50.3667 33.6325 50.4001 32.8525 50.4001 32.7006V31.1962C50.3988 30.7511 50.0243 30.3908 49.5621 30.39H49.4381Z" fill="black"/>
<path d="M27 47.2113C17.9729 47.2113 0.900185 45.9807 0.900185 41.3242V34.6298C0.901009 33.6896 1.69202 32.9275 2.66843 32.9259C3.1657 32.9259 3.56863 33.3139 3.56863 33.7927C3.56863 34.2712 3.1657 34.6592 2.66843 34.6592L2.70016 41.3242C2.70016 42.7342 11.2769 45.478 27 45.478C42.7231 45.478 51.2998 42.7342 51.2998 41.3242V34.6298C51.0646 34.6326 50.838 34.5438 50.6715 34.3835C50.5051 34.2232 50.4128 34.0046 50.4161 33.7781C50.4248 33.2996 50.8339 32.9184 51.3307 32.9259C52.3075 32.9271 53.099 33.6892 53.0998 34.6298V41.3242C53.0998 45.9807 36.027 47.2113 27 47.2113Z" fill="black"/>
</svg>
