<svg width="54" height="53" viewBox="0 0 54 53" fill="none" xmlns="http://www.w3.org/2000/svg">
<path d="M35.9727 5.505C34.0644 5.505 32.1727 5.98475 30.5779 6.99455C29.72 7.5372 28.5277 8.02113 27 8.02113C25.4723 8.02113 24.28 7.5372 23.4221 6.99455C21.8282 5.98475 19.9356 5.505 18.0273 5.505C12.4008 5.505 7.83871 9.89817 7.83871 15.3162V17.5279C7.83871 23.3678 9.58239 29.0845 12.8616 33.9968C14.7263 36.7897 16.1042 39.8577 16.9403 43.0792L17.8888 46.7318C18.1248 47.6409 18.9732 48.2792 19.9469 48.2792C20.9973 48.2792 21.8892 47.5395 22.0451 46.5389L23.9995 33.9935C24.2225 32.5635 25.4985 31.505 27 31.505C28.5016 31.505 29.7775 32.5635 30.0005 33.9935L31.9549 46.5389C32.1108 47.5395 33.0027 48.2792 34.0531 48.2792C35.0268 48.2792 35.8752 47.6409 36.1112 46.7318L37.0597 43.0792C37.8958 39.8577 39.2737 36.7897 41.1384 33.9968C43.6808 30.1891 45.2999 25.8974 45.8991 21.4405L46.0542 13.8921C45.3382 9.14836 41.0975 5.505 35.9727 5.505Z" fill="#ECECEC"/>
<path d="M27.4355 28.9889C19.8241 28.9889 13.0157 26.8451 8.46231 23.4735C9.23312 27.1982 10.7085 30.7728 12.8616 33.9968C14.7263 36.7897 16.1042 39.8577 16.9403 43.0792L17.8888 46.7318C18.1248 47.6409 18.9732 48.2792 19.9469 48.2792C20.9973 48.2792 21.8892 47.5394 22.0451 46.5389L23.9995 33.9934C24.2225 32.5634 25.4984 31.505 27 31.505C28.5015 31.505 29.7775 32.5634 30.0005 33.9934L31.9549 46.5389C32.1108 47.5394 33.0027 48.2792 34.0531 48.2792C35.0268 48.2792 35.8752 47.6409 36.1112 46.7318L37.0597 43.0792C37.8958 39.8577 39.2737 36.7897 41.1384 33.9968C43.1538 30.9774 44.5787 27.652 45.3861 24.1831C40.8658 27.142 34.4973 28.9889 27.4355 28.9889Z" fill="#E5ECF3"/>
<path d="M40.0645 18.0857C43.9124 18.0857 47.0322 15.0814 47.0322 11.376C47.0322 15.0814 50.152 18.0857 54 18.0857C50.152 18.0857 47.0322 21.0899 47.0322 24.7953C47.0322 21.0899 43.9124 18.0857 40.0645 18.0857Z" fill="#029898"/>
<path d="M0 39.8921C3.84794 39.8921 6.96774 36.8878 6.96774 33.1824C6.96774 36.8878 10.0875 39.8921 13.9355 39.8921C10.0875 39.8921 6.96774 42.8963 6.96774 46.6017C6.96774 42.8963 3.84794 39.8921 0 39.8921Z" fill="#029898"/>
<path d="M12.1936 17.5279V17.2469H10.4516V17.5279C10.4516 18.0085 10.4647 18.4891 10.49 18.9671L12.2301 18.8816C12.2066 18.4312 12.1936 17.9808 12.1936 17.5279Z" fill="black"/>
<path d="M10.638 20.6966C11.1362 24.9212 12.6656 29.0502 15.0599 32.6356L16.5249 31.7282C14.2743 28.3574 12.8381 24.4767 12.3686 20.5062L10.638 20.6966Z" fill="black"/>
<path d="M27 10.5373C25.1692 10.5373 23.4046 10.019 21.8961 9.03856L20.9215 10.4291C22.7192 11.5975 24.8208 12.2148 27 12.2148C29.1792 12.2148 31.2808 11.5975 33.0793 10.4283L32.1047 9.03772C30.5962 10.019 28.8308 10.5373 27 10.5373Z" fill="black"/>
<path d="M7.83871 33.1824H6.09677C6.09677 36.419 3.36106 39.0533 0 39.0533V40.7308C3.36106 40.7308 6.09677 43.3652 6.09677 46.6017H7.83871C7.83871 43.3652 10.5744 40.7308 13.9355 40.7308V39.0533C10.5744 39.0533 7.83871 36.419 7.83871 33.1824ZM6.96774 43.1588C6.21871 41.7582 5.02984 40.6133 3.57532 39.8921C5.02984 39.1708 6.21871 38.0259 6.96774 36.6253C7.71677 38.0259 8.90565 39.1708 10.3602 39.8921C8.90565 40.6133 7.71677 41.7582 6.96774 43.1588Z" fill="black"/>
<path d="M47.9032 11.3759H46.2353C44.5857 7.42478 40.5479 4.66626 35.9727 4.66626C33.8127 4.66626 31.7816 5.22903 30.0989 6.29252C28.2359 7.47342 25.765 7.47342 23.9011 6.29252C22.2192 5.22903 20.1881 4.66626 18.0273 4.66626C11.9288 4.66626 6.96773 9.44355 6.96773 15.3162V17.5279C6.96773 23.5414 8.75321 29.3923 12.13 34.4505C13.9468 37.1721 15.2811 40.1437 16.0963 43.2821L17.044 46.9339C17.3767 48.2205 18.5708 49.1179 19.9469 49.1179C21.4406 49.1179 22.6861 48.0854 22.9064 46.663L24.86 34.1176C25.0211 33.0901 25.9209 32.3437 27 32.3437C28.0791 32.3437 28.9788 33.0901 29.1391 34.1176L31.0927 46.663C31.3139 48.0854 32.5594 49.1179 34.0531 49.1179C35.4292 49.1179 36.6233 48.2205 36.956 46.9339L37.9045 43.2821C38.7197 40.1428 40.0549 37.1713 41.8718 34.4505C43.8567 31.4765 45.3086 28.1552 46.1578 24.7081C46.1569 24.7374 46.1613 24.7659 46.1613 24.7953H47.9032C47.9032 21.5587 50.6389 18.9243 54 18.9243V17.2469C50.6389 17.2469 47.9032 14.6125 47.9032 11.3759ZM40.4059 33.543C38.4854 36.4198 37.0762 39.5599 36.2148 42.8762L35.2655 46.5279C35.127 47.0656 34.6279 47.4405 34.0531 47.4405C33.4286 47.4405 32.9086 47.0085 32.8163 46.4139L30.8627 33.8685C30.5736 32.0124 28.9483 30.6663 27 30.6663C25.0516 30.6663 23.4264 32.0124 23.1372 33.8685L21.1837 46.4139C21.0922 47.0085 20.5714 47.4405 19.9469 47.4405C19.3721 47.4405 18.873 47.0656 18.7328 46.5279L17.7843 42.8762C16.9238 39.5591 15.5137 36.419 13.5932 33.543C10.3985 28.7565 8.70966 23.2185 8.70966 17.5279V15.3162C8.70966 10.3686 12.8894 6.34368 18.0273 6.34368C19.8467 6.34368 21.5469 6.81084 22.9439 7.69484C24.1641 8.46729 25.5298 8.85981 27 8.85981C28.4702 8.85981 29.8359 8.46729 31.0552 7.69484C32.4531 6.81084 34.1532 6.34368 35.9727 6.34368C40.5679 6.34368 44.5326 9.64065 45.1858 13.9457L45.2224 14.4917C44.1424 16.1432 42.2367 17.2469 40.0645 17.2469V18.9243C42.1095 18.9243 43.9185 19.9023 45.0247 21.3943C44.4368 25.6952 42.8411 29.8946 40.4059 33.543ZM47.0322 21.3524C46.2832 19.9517 45.0943 18.8069 43.6398 18.0856C45.0943 17.3643 46.2832 16.2195 47.0322 14.8188C47.7813 16.2195 48.9701 17.3643 50.4247 18.0856C48.9701 18.8069 47.7813 19.9517 47.0322 21.3524Z" fill="black"/>
</svg>
