<svg width="58" height="56" viewBox="0 0 58 56" fill="none" xmlns="http://www.w3.org/2000/svg">
<g clip-path="url(#clip0)">
<path d="M48.1279 30.3985C47.1903 29.2552 47.4585 28.7465 48.1279 27.7245C48.14 27.7128 55.8806 17.3855 56.6781 13.8832L56.6829 13.8808C57.0793 12.6045 56.6829 11.6665 54.7665 11.6665H48.4252C46.8108 11.6665 46.0665 12.4715 45.6678 13.3722C45.6678 13.3722 42.4391 20.8342 37.8716 25.6712C36.3974 27.0688 35.7159 27.5168 34.9112 27.5168C34.5148 27.5168 33.8986 27.0688 33.8986 25.7925V13.8808C33.8986 12.3502 33.4467 11.6665 32.1102 11.6665H22.1391C21.1265 11.6665 20.5248 12.3805 20.5248 13.0455C20.5248 14.4968 22.8085 14.8305 23.0453 18.9138V27.7735C23.0453 29.7148 22.6804 30.0718 21.8708 30.0718C19.7152 30.0718 14.4831 22.5795 11.3825 14.0045C10.7566 12.3408 10.1452 11.6688 8.51875 11.6688H2.175C0.364917 11.6688 0 12.4738 0 13.3745C0 14.9658 2.15567 22.8782 10.0243 33.3315C15.2685 40.4668 22.6538 44.3332 29.3722 44.3332C33.4104 44.3332 33.9034 43.4745 33.9034 41.9975C33.9034 35.1795 33.5385 34.5355 35.5613 34.5355C36.4989 34.5355 38.1133 34.9835 41.8833 38.4252C46.1922 42.5062 46.9003 44.3332 49.3121 44.3332H55.6534C57.4611 44.3332 58.377 43.4745 57.8502 41.7805C56.6443 38.2175 48.4953 30.8885 48.1279 30.3985Z" fill="#4B729F"/>
</g>
<defs>
<clipPath id="clip0">
<rect width="58" height="56" fill="white"/>
</clipPath>
</defs>
</svg>
