<svg width="58" height="57" viewBox="0 0 58 57" fill="none" xmlns="http://www.w3.org/2000/svg">
<path d="M27.1875 3.51709H55.2813V17.5171H27.1875V3.51709Z" fill="#D0D8DA"/>
<path d="M42.5938 7.01709H51.6562V14.0171H42.5938V7.01709Z" fill="white"/>
<path d="M2.71875 26.2671H16.3125V54.2671H2.71875V26.2671Z" fill="#FAFAFA"/>
<path d="M10.875 26.2671H4.53125V54.2671H10.0684L9.00812 51.9658C8.45235 50.7625 8.16513 49.4597 8.16513 48.1421C8.16513 46.8245 8.45235 45.5217 9.00812 44.3183L9.11688 44.0908C9.67265 42.8875 9.95987 41.5847 9.95987 40.2671C9.95987 38.9495 9.67265 37.6467 9.11688 36.4433C8.53368 35.1752 8.24831 33.7981 8.28121 32.4109C8.31411 31.0237 8.66448 29.6607 9.30719 28.4196C9.71442 27.6299 10.243 26.9042 10.875 26.2671Z" fill="white"/>
<path d="M28.8912 34.9296C27.5999 33.8378 26.5445 32.5105 25.7856 31.024C25.0267 29.5375 24.5792 27.921 24.4688 26.2671C24.4688 23.4823 23.323 20.8116 21.2835 18.8425C19.2441 16.8733 16.478 15.7671 13.5938 15.7671C10.7095 15.7671 7.94342 16.8733 5.90396 18.8425C3.86451 20.8116 2.71875 23.4823 2.71875 26.2671V33.2671C2.71875 36.9801 4.24642 40.5411 6.9657 43.1666C9.68498 45.7921 13.3731 47.2671 17.2188 47.2671C19.1416 47.2671 20.9856 46.5296 22.3453 45.2168C23.7049 43.9041 24.4688 42.1236 24.4688 40.2671V36.7671L29 35.0171L28.8912 34.9296Z" fill="#FAFAFA"/>
<path d="M13.5938 15.7671C11.7989 15.7674 10.032 16.1966 8.45073 17.0165C6.86944 17.8364 5.52291 19.0214 4.53125 20.4658V40.0396C5.59293 41.887 7.07388 43.4784 8.86312 44.6946C8.90844 44.5721 8.95375 44.4408 9.00812 44.3183L9.11688 44.0908C9.67265 42.8875 9.95987 41.5847 9.95987 40.2671C9.95987 38.9495 9.67265 37.6467 9.11688 36.4433C8.53368 35.1752 8.24831 33.7981 8.28121 32.4109C8.31411 31.0237 8.66448 29.6607 9.30719 28.4196C10.317 26.4722 12.0522 24.9656 14.1647 24.2021L15.1616 23.8433C17.0768 23.1457 19.1824 23.1056 21.1247 23.7296L24.3419 24.7708C23.9695 22.2737 22.6784 19.9895 20.7047 18.3361C18.731 16.6827 16.2068 15.7708 13.5938 15.7671Z" fill="white"/>
<path d="M20.8438 44.6421C16.9981 44.6421 13.31 43.1671 10.5907 40.5416C7.87142 37.9161 6.34375 34.3551 6.34375 30.6421V23.6421C6.34804 21.1004 7.31504 18.648 9.0625 16.7471C7.17364 17.583 5.57233 18.9238 4.44809 20.611C3.32384 22.2981 2.72372 24.2609 2.71875 26.2671V33.2671C2.71875 36.9801 4.24642 40.5411 6.9657 43.1666C9.68498 45.7921 13.3731 47.2671 17.2188 47.2671C18.386 47.2672 19.536 46.9952 20.571 46.4742C21.6061 45.9532 22.4955 45.1986 23.1637 44.2746C22.4163 44.5181 21.6326 44.6423 20.8438 44.6421Z" fill="white"/>
<path d="M40.7812 38.5171H46.2187V43.7671H40.7812V38.5171Z" fill="#15A6A6"/>
<path d="M40.7812 42.8921L35.3438 42.0171V40.2671L40.7812 39.3921V42.8921Z" fill="#D0D8DA"/>
<path d="M46.2188 39.3921H53.4688C53.9495 39.3921 54.4105 39.5765 54.7504 39.9047C55.0903 40.2328 55.2812 40.678 55.2812 41.1421C55.2812 41.6062 55.0903 42.0513 54.7504 42.3795C54.4105 42.7077 53.9495 42.8921 53.4688 42.8921H46.2188V39.3921Z" fill="white"/>
<path d="M38.0625 17.5171H45.3125V21.0171H38.0625V17.5171Z" fill="#656B76"/>
<path d="M19.0312 28.8921C20.0323 28.8921 20.8438 28.1086 20.8438 27.1421C20.8438 26.1756 20.0323 25.3921 19.0312 25.3921C18.0302 25.3921 17.2188 26.1756 17.2188 27.1421C17.2188 28.1086 18.0302 28.8921 19.0312 28.8921Z" fill="white"/>
<path d="M17.2188 47.2671C13.3731 47.2671 9.68498 45.7921 6.9657 43.1666C4.24642 40.5411 2.71875 36.9801 2.71875 33.2671V45.1671C5.40545 47.6401 8.97552 49.0189 12.6875 49.0171C13.9608 49.0149 15.2111 48.689 16.3125 48.0721V47.2671H17.2188Z" fill="white"/>
<path d="M11.7812 11.3921C10.0928 11.393 8.42153 11.7193 6.86536 12.3518C5.3092 12.9844 3.89946 13.9105 2.71875 15.0758V54.2671H9.0625L7.19562 50.2158C6.63985 49.0125 6.35263 47.7097 6.35263 46.3921C6.35263 45.0745 6.63985 43.7717 7.19562 42.5683L7.30438 42.3408C7.86015 41.1375 8.14737 39.8347 8.14737 38.5171C8.14737 37.1995 7.86015 35.8967 7.30438 34.6933C6.72118 33.4252 6.43581 32.0481 6.46871 30.6609C6.50161 29.2737 6.85198 27.9107 7.49469 26.6696C8.5045 24.7222 10.2397 23.2156 12.3522 22.4521L13.3491 22.0933C15.2643 21.3957 17.3699 21.3556 19.3122 21.9796L24.4688 23.6421C24.4688 20.3932 23.132 17.2774 20.7527 14.98C18.3733 12.6827 15.1462 11.3921 11.7812 11.3921Z" fill="white"/>
<path d="M7.19562 42.5683L7.30438 42.3408C7.86015 41.1374 8.14737 39.8346 8.14737 38.517C8.14737 37.1995 7.86015 35.8966 7.30438 34.6933C6.72118 33.4251 6.43581 32.048 6.46871 30.6608C6.50161 29.2736 6.85198 27.9106 7.49469 26.6695L7.60344 26.4858C7.36535 25.2596 7.24702 24.0146 7.25 22.767C7.23157 18.7132 8.51721 14.7539 10.9294 11.4358C7.82071 11.628 4.89582 12.9247 2.71875 15.0758V54.267H9.0625L7.19562 50.2158C6.63985 49.0124 6.35263 47.7096 6.35263 46.392C6.35263 45.0745 6.63985 43.7716 7.19562 42.5683Z" fill="white"/>
<path d="M40.7812 38.5171H46.2187V41.1421H43.5C42.7789 41.1421 42.0874 40.8655 41.5776 40.3732C41.0677 39.881 40.7812 39.2133 40.7812 38.5171Z" fill="#15A6A6"/>
<path d="M48.0312 39.3921H53.4688C53.9495 39.3921 54.4105 39.5765 54.7504 39.9047C55.0903 40.2328 55.2812 40.678 55.2812 41.1421H49.8438C49.363 41.1421 48.902 40.9577 48.5621 40.6295C48.2222 40.3013 48.0312 39.8562 48.0312 39.3921Z" fill="#D0D8DA"/>
<path d="M39.875 39.5408V39.9521C39.8786 40.2084 39.8239 40.4623 39.7148 40.6959C39.6056 40.9295 39.4446 41.1371 39.2432 41.304C39.0418 41.4709 38.8049 41.5931 38.5492 41.6619C38.2935 41.7307 38.0252 41.7444 37.7634 41.7021L35.3438 41.2908V42.0171L40.7812 42.8921V39.3921L39.875 39.5408Z" fill="white"/>
<path d="M31.7188 6.14209V3.51709H27.1875V17.5171H55.2813V14.8921H40.7813C38.3777 14.8921 36.0726 13.9702 34.3731 12.3293C32.6735 10.6883 31.7188 8.46273 31.7188 6.14209Z" fill="white"/>
<path d="M32.625 12.2671C33.626 12.2671 34.4375 11.4836 34.4375 10.5171C34.4375 9.55059 33.626 8.76709 32.625 8.76709C31.624 8.76709 30.8125 9.55059 30.8125 10.5171C30.8125 11.4836 31.624 12.2671 32.625 12.2671Z" fill="white"/>
<path d="M44.4062 7.89209H48.9375C49.4182 7.89209 49.8792 8.07646 50.2191 8.40465C50.559 8.73284 50.75 9.17796 50.75 9.64209V12.2671H48.9375C47.7357 12.2671 46.5832 11.8062 45.7334 10.9857C44.8836 10.1652 44.4062 9.05241 44.4062 7.89209Z" fill="white"/>
<path d="M33.5312 11.3922C33.0505 11.3922 32.5895 11.2078 32.2496 10.8796C31.9097 10.5514 31.7187 10.1063 31.7187 9.64218C31.7199 9.39457 31.7755 9.15001 31.8819 8.92468C31.6131 9.04005 31.3774 9.21684 31.1952 9.43979C31.0131 9.66275 30.8898 9.92516 30.8361 10.2044C30.7824 10.4836 30.7999 10.7713 30.8871 11.0425C30.9743 11.3137 31.1285 11.5604 31.3365 11.7612C31.5445 11.962 31.8 12.111 32.0809 12.1951C32.3618 12.2793 32.6598 12.2962 32.949 12.2444C33.2382 12.1926 33.5099 12.0735 33.7409 11.8976C33.9718 11.7217 34.1549 11.4942 34.2744 11.2347C34.041 11.3374 33.7877 11.391 33.5312 11.3922Z" fill="white"/>
<path d="M31.7188 42.0172C31.9591 42.0172 32.1896 41.925 32.3596 41.7609C32.5295 41.5968 32.625 41.3742 32.625 41.1422C32.625 40.9101 32.5295 40.6875 32.3596 40.5234C32.1896 40.3593 31.9591 40.2672 31.7188 40.2672H25.375V37.3622L29.3353 35.8309C29.4793 35.7755 29.6062 35.6854 29.7038 35.5691C29.8014 35.4529 29.8665 35.3144 29.8928 35.1669C29.9192 35.0195 29.906 34.8679 29.8544 34.7268C29.8028 34.5857 29.7145 34.4597 29.5981 34.3609L29.4894 34.2647C27.0854 32.2225 25.6079 29.3506 25.375 26.2672C25.5609 24.6148 25.4845 22.9447 25.1484 21.3147C24.5836 18.288 22.9359 15.5489 20.4928 13.5755C18.0497 11.6021 14.9665 10.5197 11.7813 10.5172C9.97183 10.5116 8.1798 10.8582 6.51219 11.5362C4.84458 12.2143 3.33558 13.2098 2.07532 14.4634C1.98107 14.5425 1.90478 14.6396 1.85122 14.7485C1.79766 14.8574 1.76799 14.9758 1.76408 15.0963C1.76016 15.2168 1.78209 15.3368 1.82847 15.4488C1.87486 15.5607 1.9447 15.6622 2.03363 15.7469C2.12255 15.8315 2.22864 15.8975 2.34523 15.9407C2.46181 15.9839 2.58639 16.0033 2.71114 15.9979C2.83588 15.9924 2.95811 15.962 3.07015 15.9088C3.18218 15.8555 3.28161 15.7805 3.36219 15.6884C4.99944 14.0735 7.09778 12.966 9.38958 12.5073C11.6814 12.0485 14.0628 12.2592 16.23 13.1126C18.3973 13.9659 20.2522 15.4232 21.5581 17.2986C22.864 19.1739 23.5618 21.3823 23.5625 23.6422C23.5614 23.7633 23.5894 23.8831 23.6441 23.9922C23.6606 24.7251 23.6333 25.4584 23.5625 26.1884V26.3197C23.7814 29.4557 25.1202 32.4214 27.3506 34.7109L24.1334 35.9534C23.9648 36.0182 23.8203 36.1305 23.7185 36.2756C23.6167 36.4207 23.5623 36.5919 23.5625 36.7672V40.2672H18.125C17.8847 40.2672 17.6541 40.3593 17.4842 40.5234C17.3142 40.6875 17.2188 40.9101 17.2188 41.1422C17.2188 41.3742 17.3142 41.5968 17.4842 41.7609C17.6541 41.925 17.8847 42.0172 18.125 42.0172H23.2997C22.9093 43.2815 22.1065 44.3903 21.0108 45.1786C19.9152 45.9668 18.5852 46.3925 17.2188 46.3922H16.5844H16.3669C16.2434 46.385 16.1197 46.4023 16.0034 46.4431C15.887 46.4838 15.7806 46.5471 15.6906 46.6291C15.6006 46.7111 15.529 46.81 15.4801 46.9197C15.4312 47.0295 15.406 47.1477 15.4063 47.2672V54.2672C15.4063 54.4992 15.5017 54.7218 15.6717 54.8859C15.8416 55.05 16.0722 55.1422 16.3125 55.1422C16.5529 55.1422 16.7834 55.05 16.9533 54.8859C17.1233 54.7218 17.2188 54.4992 17.2188 54.2672V48.1422C19.0662 48.1412 20.8585 47.5347 22.3023 46.422C23.7462 45.3093 24.756 43.7563 25.1666 42.0172H31.7188Z" fill="#1F2D51"/>
<path d="M32.3622 37.0208C32.1915 36.856 31.9601 36.7634 31.7188 36.7634C31.4774 36.7634 31.246 36.856 31.0753 37.0208C30.9047 37.1855 30.8088 37.409 30.8088 37.642C30.8088 37.875 30.9047 38.0985 31.0753 38.2633L31.9816 39.1383C32.0658 39.2203 32.166 39.2854 32.2765 39.3298C32.3869 39.3742 32.5054 39.3971 32.625 39.3971C32.7446 39.3971 32.8631 39.3742 32.9735 39.3298C33.084 39.2854 33.1842 39.2203 33.2684 39.1383C33.3534 39.0569 33.4208 38.9601 33.4668 38.8535C33.5128 38.7469 33.5365 38.6325 33.5365 38.517C33.5365 38.4015 33.5128 38.2871 33.4668 38.1805C33.4208 38.0739 33.3534 37.9771 33.2684 37.8958L32.3622 37.0208Z" fill="#1F2D51"/>
<path d="M31.9816 43.1458L31.0753 44.0208C30.9904 44.1021 30.923 44.1989 30.8769 44.3055C30.8309 44.4121 30.8073 44.5265 30.8073 44.642C30.8073 44.7575 30.8309 44.8719 30.8769 44.9785C30.923 45.0851 30.9904 45.1819 31.0753 45.2633C31.1596 45.3453 31.2598 45.4104 31.3702 45.4548C31.4807 45.4992 31.5991 45.5221 31.7188 45.5221C31.8384 45.5221 31.9568 45.4992 32.0673 45.4548C32.1777 45.4104 32.2779 45.3453 32.3622 45.2633L33.2684 44.3883C33.4391 44.2235 33.535 44 33.535 43.767C33.535 43.534 33.4391 43.3105 33.2684 43.1458C33.0978 42.981 32.8663 42.8884 32.625 42.8884C32.3837 42.8884 32.1522 42.981 31.9816 43.1458Z" fill="#1F2D51"/>
<path d="M55.2813 11.3921C55.5216 11.3921 55.7521 11.2999 55.9221 11.1358C56.092 10.9717 56.1875 10.7492 56.1875 10.5171V3.51709C56.1875 3.28503 56.092 3.06247 55.9221 2.89837C55.7521 2.73428 55.5216 2.64209 55.2813 2.64209H27.1875C26.9471 2.64209 26.7166 2.73428 26.5467 2.89837C26.3767 3.06247 26.2812 3.28503 26.2812 3.51709V17.5171C26.2812 17.7492 26.3767 17.9717 26.5467 18.1358C26.7166 18.2999 26.9471 18.3921 27.1875 18.3921H37.1563V21.0171C37.1563 21.2492 37.2517 21.4717 37.4217 21.6358C37.5916 21.7999 37.8221 21.8921 38.0625 21.8921H40.8447C41.0653 23.5826 41.9169 25.1374 43.2399 26.265C44.563 27.3926 46.2665 28.0155 48.0313 28.0171H52.5625C53.0432 28.0171 53.5042 28.2015 53.8441 28.5297C54.184 28.8578 54.375 29.303 54.375 29.7671C54.375 30.2312 54.184 30.6763 53.8441 31.0045C53.5042 31.3327 53.0432 31.5171 52.5625 31.5171C51.6011 31.5171 50.6791 31.8858 49.9992 32.5422C49.3194 33.1986 48.9375 34.0888 48.9375 35.0171V38.5171H47.125C47.125 38.285 47.0295 38.0625 46.8596 37.8984C46.6896 37.7343 46.4591 37.6421 46.2188 37.6421H40.7813C40.5409 37.6421 40.3104 37.7343 40.1404 37.8984C39.9705 38.0625 39.875 38.285 39.875 38.5171V38.6483L35.1988 39.3921C34.9843 39.4256 34.7895 39.5324 34.6498 39.693C34.51 39.8536 34.4347 40.0574 34.4375 40.2671V42.0171C34.4347 42.2268 34.51 42.4305 34.6498 42.5911C34.7895 42.7517 34.9843 42.8585 35.1988 42.8921L39.875 43.6446V43.7671C39.875 43.9992 39.9705 44.2217 40.1404 44.3858C40.3104 44.5499 40.5409 44.6421 40.7813 44.6421H46.2188C46.4591 44.6421 46.6896 44.5499 46.8596 44.3858C47.0295 44.2217 47.125 43.9992 47.125 43.7671H53.4688C54.1898 43.7671 54.8813 43.4905 55.3912 42.9982C55.9011 42.506 56.1875 41.8383 56.1875 41.1421C56.1875 40.4459 55.9011 39.7782 55.3912 39.2859C54.8813 38.7937 54.1898 38.5171 53.4688 38.5171H50.75V35.0171C50.75 34.553 50.941 34.1078 51.2809 33.7797C51.6208 33.4515 52.0818 33.2671 52.5625 33.2671C53.5239 33.2671 54.4459 32.8983 55.1258 32.242C55.8056 31.5856 56.1875 30.6953 56.1875 29.7671C56.1875 28.8388 55.8056 27.9486 55.1258 27.2922C54.4459 26.6358 53.5239 26.2671 52.5625 26.2671H48.0313C46.7472 26.2658 45.5051 25.8259 44.5248 25.0251C43.5445 24.2244 42.8893 23.1145 42.6753 21.8921H45.3125C45.5529 21.8921 45.7834 21.7999 45.9533 21.6358C46.1233 21.4717 46.2188 21.2492 46.2188 21.0171V18.3921H55.2813C55.5216 18.3921 55.7521 18.2999 55.9221 18.1358C56.092 17.9717 56.1875 17.7492 56.1875 17.5171V14.0171C56.1875 13.785 56.092 13.5625 55.9221 13.3984C55.7521 13.2343 55.5216 13.1421 55.2813 13.1421C55.0409 13.1421 54.8104 13.2343 54.6404 13.3984C54.4705 13.5625 54.375 13.785 54.375 14.0171V16.6421H28.0938V4.39209H54.375V10.5171C54.375 10.7492 54.4705 10.9717 54.6404 11.1358C54.8104 11.2999 55.0409 11.3921 55.2813 11.3921ZM36.25 41.2733V41.0108L39.875 40.4246V41.8596L36.25 41.2733ZM41.6875 42.8921V39.3921H45.3125V42.8921H41.6875ZM54.375 41.1421C54.375 41.3742 54.2795 41.5967 54.1096 41.7608C53.9396 41.9249 53.7091 42.0171 53.4688 42.0171H47.125V40.2671H53.4688C53.7091 40.2671 53.9396 40.3593 54.1096 40.5234C54.2795 40.6875 54.375 40.91 54.375 41.1421ZM44.4063 18.3921V20.1421H38.9688V18.3921H44.4063Z" fill="#1F2D51"/>
<path d="M42.5937 6.14209C42.3534 6.14209 42.1229 6.23428 41.9529 6.39837C41.783 6.56247 41.6875 6.78503 41.6875 7.01709V14.0171C41.6875 14.2492 41.783 14.4717 41.9529 14.6358C42.1229 14.7999 42.3534 14.8921 42.5937 14.8921H51.6562C51.8966 14.8921 52.1271 14.7999 52.2971 14.6358C52.467 14.4717 52.5625 14.2492 52.5625 14.0171V7.01709C52.5625 6.78503 52.467 6.56247 52.2971 6.39837C52.1271 6.23428 51.8966 6.14209 51.6562 6.14209H42.5937ZM50.75 13.1421H43.5V7.89209H50.75V13.1421Z" fill="#1F2D51"/>
<path d="M29.9062 10.5171C29.9062 11.0363 30.0657 11.5438 30.3644 11.9755C30.6632 12.4071 31.0878 12.7436 31.5846 12.9423C32.0814 13.141 32.628 13.1929 33.1554 13.0916C33.6828 12.9904 34.1672 12.7404 34.5475 12.3732C34.9277 12.0061 35.1866 11.5384 35.2915 11.0292C35.3964 10.52 35.3426 9.9922 35.1368 9.51254C34.931 9.03289 34.5826 8.62292 34.1355 8.33448C33.6884 8.04604 33.1627 7.89209 32.625 7.89209C31.9039 7.89209 31.2124 8.16865 30.7026 8.66093C30.1927 9.15322 29.9062 9.8209 29.9062 10.5171ZM33.5313 10.5171C33.5313 10.6901 33.4781 10.8593 33.3785 11.0032C33.2789 11.1471 33.1374 11.2593 32.9718 11.3255C32.8062 11.3917 32.624 11.409 32.4482 11.3753C32.2724 11.3415 32.1109 11.2582 31.9842 11.1358C31.8574 11.0134 31.7711 10.8575 31.7362 10.6878C31.7012 10.5181 31.7191 10.3421 31.7877 10.1822C31.8563 10.0224 31.9725 9.8857 32.1215 9.78955C32.2706 9.69341 32.4458 9.64209 32.625 9.64209C32.8654 9.64209 33.0959 9.73428 33.2658 9.89837C33.4358 10.0625 33.5313 10.285 33.5313 10.5171Z" fill="#1F2D51"/>
<path d="M38.9688 9.64209C39.4693 9.64209 39.875 9.25034 39.875 8.76709C39.875 8.28384 39.4693 7.89209 38.9688 7.89209C38.4682 7.89209 38.0625 8.28384 38.0625 8.76709C38.0625 9.25034 38.4682 9.64209 38.9688 9.64209Z" fill="#1F2D51"/>
<path d="M38.9688 13.1421C39.4693 13.1421 39.875 12.7503 39.875 12.2671C39.875 11.7838 39.4693 11.3921 38.9688 11.3921C38.4682 11.3921 38.0625 11.7838 38.0625 12.2671C38.0625 12.7503 38.4682 13.1421 38.9688 13.1421Z" fill="#1F2D51"/>
<path d="M16.3125 27.1421C16.3125 27.6613 16.472 28.1688 16.7707 28.6005C17.0694 29.0321 17.494 29.3686 17.9908 29.5673C18.4876 29.766 19.0343 29.8179 19.5617 29.7167C20.089 29.6154 20.5735 29.3654 20.9537 28.9982C21.3339 28.6311 21.5929 28.1634 21.6978 27.6542C21.8027 27.145 21.7488 26.6172 21.543 26.1375C21.3373 25.6579 20.9888 25.2479 20.5417 24.9595C20.0946 24.671 19.569 24.5171 19.0312 24.5171C18.3102 24.5171 17.6187 24.7937 17.1088 25.2859C16.5989 25.7782 16.3125 26.4459 16.3125 27.1421ZM19.9375 27.1421C19.9375 27.3152 19.8843 27.4843 19.7848 27.6282C19.6852 27.7721 19.5437 27.8843 19.3781 27.9505C19.2125 28.0167 19.0302 28.034 18.8544 28.0003C18.6787 27.9665 18.5172 27.8832 18.3904 27.7608C18.2637 27.6384 18.1774 27.4825 18.1424 27.3128C18.1074 27.1431 18.1254 26.9671 18.194 26.8072C18.2626 26.6474 18.3787 26.5107 18.5278 26.4146C18.6768 26.3184 18.852 26.2671 19.0312 26.2671C19.2716 26.2671 19.5021 26.3593 19.6721 26.5234C19.842 26.6875 19.9375 26.91 19.9375 27.1421Z" fill="#1F2D51"/>
<path d="M19.0313 22.8108C19.1466 22.8592 19.2711 22.8839 19.3968 22.8833C19.5225 22.8827 19.6468 22.8569 19.7616 22.8074C19.8764 22.758 19.9793 22.686 20.0638 22.596C20.1483 22.5061 20.2124 22.4002 20.2522 22.285C20.2919 22.1698 20.3064 22.0479 20.2948 21.9271C20.2831 21.8062 20.2455 21.689 20.1843 21.5829C20.1232 21.4768 20.0399 21.3842 19.9397 21.3108C19.8394 21.2375 19.7245 21.1852 19.6022 21.1571C17.4632 20.4678 15.1439 20.5079 13.0319 21.2708L12.035 21.6296C9.70754 22.4674 7.79428 24.124 6.67907 26.2671C5.97745 27.6205 5.59564 29.1073 5.56116 30.6204C5.52668 32.1335 5.8404 33.6352 6.4797 35.0171C6.97965 36.1085 7.23791 37.2887 7.23791 38.4821C7.23791 39.6755 6.97965 40.8557 6.4797 41.9471L6.34376 42.2183C5.73865 43.5322 5.42599 44.9541 5.42599 46.3921C5.42599 47.83 5.73865 49.2519 6.34376 50.5658L8.21063 54.6258C8.28395 54.7835 8.40398 54.9166 8.55559 55.0085C8.70719 55.1004 8.88358 55.1469 9.06251 55.1421C9.19074 55.1415 9.31738 55.1147 9.43407 55.0633C9.65248 54.9678 9.82279 54.7927 9.90772 54.5762C9.99265 54.3597 9.98527 54.1196 9.8872 53.9083L8.02032 49.8921C7.52036 48.8007 7.26211 47.6205 7.26211 46.4271C7.26211 45.2337 7.52036 44.0535 8.02032 42.9621L8.15626 42.6908C8.76136 41.3769 9.07403 39.955 9.07403 38.5171C9.07403 37.0791 8.76136 35.6572 8.15626 34.3433C7.62806 33.1925 7.36962 31.9432 7.39938 30.6847C7.42915 29.4263 7.74639 28.1897 8.32845 27.0633C9.23174 25.3127 10.7898 23.9586 12.6875 23.2746L13.6844 22.9071C15.4036 22.2895 17.2894 22.2556 19.0313 22.8108Z" fill="#1F2D51"/>
<path d="M6.34375 22.3296C9.98644 19.8133 14.4796 18.7194 18.9225 19.2671C19.0415 19.2809 19.1622 19.2719 19.2776 19.2407C19.393 19.2095 19.5009 19.1566 19.5952 19.0851C19.6894 19.0136 19.7682 18.9249 19.8269 18.824C19.8856 18.7231 19.9232 18.612 19.9375 18.4971C19.9518 18.3822 19.9425 18.2657 19.9101 18.1543C19.8778 18.0428 19.823 17.9387 19.749 17.8477C19.6749 17.7567 19.583 17.6806 19.4785 17.6239C19.374 17.5672 19.259 17.5309 19.14 17.5171C14.2528 16.9198 9.31239 18.1295 5.31063 20.9034L4.91188 21.1834C4.75715 21.2915 4.64177 21.4441 4.58222 21.6194C4.52267 21.7946 4.52199 21.9835 4.58028 22.1592C4.63857 22.3348 4.75285 22.4882 4.9068 22.5973C5.06075 22.7065 5.24649 22.7659 5.4375 22.7671C5.62638 22.7659 5.81015 22.7078 5.96313 22.6009L6.34375 22.3296Z" fill="#1F2D51"/>
<path d="M3.25344 33.8971C3.04399 33.9925 2.88033 34.1618 2.79607 34.37C2.7118 34.5783 2.71332 34.8099 2.80032 35.0171C3.2981 36.109 3.55516 37.289 3.55516 38.4821C3.55516 39.6751 3.2981 40.8551 2.80032 41.9471C2.70224 42.1583 2.69487 42.3985 2.77979 42.615C2.86472 42.8314 3.03504 43.0066 3.25344 43.1021C3.37013 43.1534 3.49677 43.1803 3.625 43.1808C3.80033 43.1797 3.97157 43.1295 4.11794 43.0364C4.26432 42.9432 4.37956 42.811 4.44969 42.6558C5.0548 41.3419 5.36746 39.92 5.36746 38.4821C5.36746 37.0442 5.0548 35.6222 4.44969 34.3083C4.34586 34.1021 4.16235 33.9435 3.93864 33.8666C3.71492 33.7897 3.46888 33.8006 3.25344 33.8971Z" fill="#1F2D51"/>
<path d="M5.22907 18.9521C6.93408 16.9707 9.34623 15.6782 11.9897 15.3296C12.1083 15.3145 12.2227 15.2769 12.3262 15.219C12.4297 15.1611 12.5203 15.0839 12.5927 14.992C12.6652 14.9 12.7181 14.7952 12.7483 14.6834C12.7786 14.5717 12.7856 14.4552 12.7691 14.3408C12.7353 14.1179 12.6137 13.9162 12.4297 13.7777C12.2457 13.6391 12.0134 13.5744 11.7813 13.5971C8.68887 14.0053 5.86662 15.5161 3.86969 17.8321C3.79338 17.9205 3.73589 18.0226 3.70051 18.1325C3.66512 18.2424 3.65254 18.358 3.66349 18.4726C3.67443 18.5872 3.70868 18.6986 3.76428 18.8004C3.81989 18.9022 3.89574 18.9924 3.98751 19.0658C4.14089 19.1888 4.33201 19.2596 4.53126 19.2671C4.66439 19.2673 4.79594 19.2392 4.91655 19.1847C5.03716 19.1303 5.14386 19.0509 5.22907 18.9521Z" fill="#1F2D51"/>
</svg>
