<?xml version="1.0" standalone="no"?>
<!DOCTYPE svg PUBLIC "-//W3C//DTD SVG 20010904//EN"
 "http://www.w3.org/TR/2001/REC-SVG-20010904/DTD/svg10.dtd">
<svg version="1.0" xmlns="http://www.w3.org/2000/svg"
 width="700.000000pt" height="700.000000pt" viewBox="0 0 700.000000 700.000000"
 preserveAspectRatio="xMidYMid meet">
<metadata>
Created by potrace 1.14, written by Peter Selinger 2001-2017
</metadata>
<g transform="translate(0.000000,700.000000) scale(0.100000,-0.100000)"
fill="#000000" stroke="none">
<path d="M3445 6975 c-28 -27 -26 32 -26 -574 0 -293 3 -347 16 -367 29 -45
102 -44 131 2 15 23 17 70 16 464 0 308 -4 445 -12 460 -23 44 -89 52 -125 15z"/>
<path d="M2356 6567 c-35 -29 -40 -65 -17 -119 17 -40 98 -215 136 -293 8 -16
42 -88 74 -160 70 -152 87 -175 131 -175 43 0 66 14 78 50 13 37 6 58 -72 224
-31 65 -65 137 -76 160 -98 215 -150 315 -168 320 -45 15 -60 13 -86 -7z"/>
<path d="M4559 6577 c-28 -14 -56 -67 -222 -427 -21 -47 -54 -118 -73 -158
-19 -40 -34 -84 -34 -98 0 -34 42 -74 78 -74 28 0 82 33 82 49 0 5 24 60 54
122 29 63 65 139 79 169 14 30 46 100 72 155 80 168 83 177 73 212 -12 48 -65
71 -109 50z"/>
<path d="M1855 5795 c-16 -15 -25 -36 -25 -55 0 -26 19 -51 128 -160 70 -71
140 -134 155 -140 55 -20 118 36 103 93 -3 15 -62 82 -136 157 -118 117 -134
130 -166 130 -24 0 -43 -8 -59 -25z"/>
<path d="M4923 5698 c-140 -139 -154 -158 -141 -205 9 -34 28 -49 72 -57 34
-6 48 6 254 217 41 41 53 61 54 86 1 44 -35 81 -80 81 -32 0 -48 -13 -159
-122z"/>
<path d="M2861 5718 c-240 -27 -431 -181 -505 -408 -24 -74 -28 -221 -10 -345
22 -149 30 -173 64 -190 17 -9 32 -15 35 -15 3 0 9 0 15 0 5 0 14 -19 20 -42
7 -24 41 -116 77 -206 l64 -163 -22 -18 c-24 -19 -30 -69 -16 -121 37 -134 48
-234 53 -470 2 -135 6 -262 9 -283 12 -83 76 -165 160 -203 164 -76 335 15
435 230 43 93 53 145 55 306 2 138 14 179 66 224 71 60 161 67 234 18 67 -46
79 -78 82 -216 3 -190 10 -226 56 -326 53 -112 164 -224 248 -249 135 -41 272
17 336 143 25 49 27 60 29 231 4 204 11 353 19 405 23 135 69 276 164 504 85
204 138 460 133 644 -4 136 -82 305 -183 396 -50 46 -143 106 -163 106 -8 0
-17 4 -20 9 -6 8 -60 23 -131 36 -61 11 -162 5 -235 -14 -41 -11 -118 -31
-170 -44 -172 -45 -302 -52 -445 -22 -6 2 -71 19 -145 39 -163 45 -226 54
-309 44z"/>
<path d="M5625 5239 c-104 -49 -241 -113 -303 -141 -131 -60 -162 -84 -162
-128 0 -41 39 -80 79 -80 16 0 91 29 166 65 76 36 139 65 140 65 2 0 66 30
142 66 76 36 157 75 180 86 39 19 62 52 57 86 -1 6 -2 16 -3 22 -3 21 -46 50
-75 49 -17 0 -116 -41 -221 -90z"/>
<path d="M1191 5154 c-61 -51 -36 -107 67 -155 37 -17 99 -46 137 -64 39 -18
115 -54 170 -80 231 -109 274 -126 299 -119 58 14 82 85 44 127 -13 14 -88 56
-168 93 -80 36 -176 81 -215 99 -212 98 -274 125 -288 125 -8 0 -29 -12 -46
-26z"/>
<path d="M245 4405 c-5 -2 -23 -6 -38 -9 -18 -4 -33 -18 -43 -39 -15 -31 -14
-45 26 -258 22 -123 47 -255 55 -294 8 -38 17 -86 20 -105 3 -19 8 -42 10 -50
2 -8 7 -35 10 -60 3 -25 10 -61 15 -80 5 -19 11 -51 14 -70 3 -19 15 -84 26
-145 11 -60 23 -123 26 -140 10 -55 33 -180 39 -210 13 -71 37 -202 41 -225
58 -334 136 -502 317 -689 73 -76 165 -144 467 -351 124 -85 226 -158 228
-162 2 -4 8 -8 12 -8 11 0 214 -142 252 -175 28 -25 57 -73 63 -104 2 -10 6
-60 10 -112 4 -52 8 -110 10 -129 2 -19 6 -80 9 -135 4 -55 9 -120 11 -145 2
-25 7 -85 10 -135 6 -106 19 -151 47 -166 23 -13 167 -55 218 -64 154 -29 218
-34 375 -30 94 1 184 6 200 9 17 3 64 13 105 22 41 9 80 17 85 19 38 8 123 38
137 49 10 7 21 24 26 37 15 43 5 721 -13 831 -2 12 -6 50 -9 83 -3 33 -8 70
-10 82 -3 12 -7 69 -11 125 -14 240 -32 322 -111 484 -84 173 -206 314 -362
418 -78 51 -150 86 -295 141 -53 20 -121 53 -150 72 -28 20 -131 115 -228 212
l-176 176 -58 200 c-31 110 -71 226 -88 258 -67 127 -211 231 -347 250 -20 3
-29 16 -48 65 -51 134 -182 226 -334 235 -24 2 -44 9 -49 17 -4 8 -20 42 -35
75 -51 105 -167 197 -285 224 -41 10 -152 13 -174 6z m636 -516 c19 -10 41
-24 47 -32 11 -12 3 -14 -48 -12 -33 1 -63 4 -66 7 -2 3 -9 19 -14 37 -8 30
-8 31 18 25 15 -4 43 -15 63 -25z m397 -327 c17 -13 32 -25 32 -27 0 -1 -21 3
-47 8 -48 11 -63 21 -63 45 0 18 36 6 78 -26z"/>
<path d="M6546 4389 c-75 -26 -128 -60 -183 -118 -39 -40 -103 -152 -103 -178
0 -5 -10 -9 -22 -8 -44 3 -125 -17 -185 -46 -79 -38 -143 -108 -173 -189 -13
-34 -28 -63 -34 -65 -6 -1 -33 -8 -60 -14 -148 -35 -275 -149 -329 -296 -9
-22 -27 -78 -40 -125 -14 -47 -39 -130 -56 -185 l-30 -100 -178 -176 c-98 -96
-202 -190 -231 -208 -29 -19 -110 -56 -178 -82 -69 -26 -151 -62 -182 -80
-267 -149 -456 -404 -523 -704 -12 -54 -14 -74 -24 -238 -3 -60 -8 -116 -10
-125 -5 -31 -16 -116 -20 -167 -2 -27 -7 -88 -11 -135 -10 -130 -12 -682 -1
-706 13 -31 52 -49 167 -78 106 -26 121 -29 240 -45 70 -9 343 -8 375 2 11 4
40 9 65 12 49 6 219 47 262 64 40 15 56 48 63 126 3 39 8 81 10 95 3 14 7 61
11 105 3 44 7 96 9 115 2 19 7 69 11 110 3 41 8 83 10 92 1 9 6 57 9 105 8 92
27 145 68 183 12 12 130 96 262 187 132 91 257 177 278 192 21 14 95 65 165
113 236 163 352 285 456 480 33 63 79 193 89 253 4 25 29 157 43 230 4 21 20
110 28 159 3 16 10 52 16 80 13 65 19 94 25 131 10 60 14 81 25 135 6 30 13
69 16 85 2 17 16 89 29 160 13 72 26 141 29 155 13 76 21 115 31 163 3 12 8
42 11 67 3 25 7 47 9 50 2 3 17 84 35 180 36 198 33 221 -22 245 -49 20 -183
17 -252 -6z"/>
</g>
</svg>
